SplineFontDB: 3.2
FontName: ElectronicHighwaySign
FullName: Electronic Highway Sign
FamilyName: Electronic Highway Sign
Weight: Book
Version: 1.000
ItalicAngle: 0
UnderlinePosition: -143
UnderlineWidth: 20
Ascent: 1120
Descent: 280
InvalidEm: 0
sfntRevision: 0x00010000
LayerCount: 2
Layer: 0 1 "Back" 1
Layer: 1 1 "Fore" 0
XUID: [1021 805 -985792073 24152]
StyleMap: 0x0040
FSType: 0
OS2Version: 3
OS2_WeightWidthSlopeOnly: 0
OS2_UseTypoMetrics: 0
CreationTime: 1020026288
ModificationTime: 1709195673
PfmFamily: 81
TTFWeight: 400
TTFWidth: 5
LineGap: 0
VLineGap: 0
Panose: 0 0 4 0 0 0 0 0 0 0
OS2TypoAscent: 1120
OS2TypoAOffset: 0
OS2TypoDescent: -225
OS2TypoDOffset: 0
OS2TypoLinegap: 0
OS2WinAscent: 1200
OS2WinAOffset: 0
OS2WinDescent: 225
OS2WinDOffset: 0
HheadAscent: 1200
HheadAOffset: 0
HheadDescent: -225
HheadDOffset: 0
OS2SubXSize: 980
OS2SubYSize: 910
OS2SubXOff: 0
OS2SubYOff: 200
OS2SupXSize: 980
OS2SupYSize: 910
OS2SupXOff: 0
OS2SupYOff: 634
OS2StrikeYSize: 70
OS2StrikeYPos: 362
OS2CapHeight: 1120
OS2XHeight: 1120
OS2Vendor: 'MACR'
OS2CodePages: 00000001.00000000
OS2UnicodeRanges: 00000003.00000000.00000000.00000000
DEI: 91125
TtTable: prep
PUSHW_1
 0
CALL
EndTTInstrs
TtTable: fpgm
PUSHW_1
 0
FDEF
MPPEM
PUSHW_1
 3
LT
IF
PUSHB_2
 1
 1
INSTCTRL
EIF
PUSHW_1
 511
SCANCTRL
PUSHW_1
 68
SCVTCI
PUSHW_2
 3
 3
SDS
SDB
ENDF
PUSHW_1
 1
FDEF
DUP
DUP
RCVT
ROUND[Black]
WCVTP
PUSHB_1
 1
ADD
ENDF
PUSHW_1
 2
FDEF
PUSHW_1
 1
LOOPCALL
POP
ENDF
PUSHW_1
 3
FDEF
DUP
GC[cur]
PUSHB_1
 3
CINDEX
GC[cur]
GT
IF
SWAP
EIF
DUP
ROLL
DUP
ROLL
MD[grid]
ABS
ROLL
DUP
GC[cur]
DUP
ROUND[Grey]
SUB
ABS
PUSHB_1
 4
CINDEX
GC[cur]
DUP
ROUND[Grey]
SUB
ABS
GT
IF
SWAP
NEG
ROLL
EIF
MDAP[rnd]
DUP
PUSHB_1
 0
GTEQ
IF
ROUND[Black]
DUP
PUSHB_1
 0
EQ
IF
POP
PUSHB_1
 64
EIF
ELSE
ROUND[Black]
DUP
PUSHB_1
 0
EQ
IF
POP
PUSHB_1
 64
NEG
EIF
EIF
MSIRP[no-rp0]
ENDF
PUSHW_1
 4
FDEF
DUP
GC[cur]
PUSHB_1
 4
CINDEX
GC[cur]
GT
IF
SWAP
ROLL
EIF
DUP
GC[cur]
DUP
ROUND[White]
SUB
ABS
PUSHB_1
 4
CINDEX
GC[cur]
DUP
ROUND[White]
SUB

StartChar: .notdef
Encoding: 65536 -1 0
Width: 857
GlyphClass: 1
Flags: W
LayerCount: 2
Fore
SplineSet
107 0 m 1,0,-1
 107 1200 l 1,1,-1
 750 1200 l 1,2,-1
 750 0 l 1,3,-1
 107 0 l 1,0,-1
214 107 m 1,4,-1
 643 107 l 1,5,-1
 643 1093 l 1,6,-1
 214 1093 l 1,7,-1
 214 107 l 1,4,-1
EndSplineSet
Validated: 1
EndChar

StartChar: exclam
Encoding: 33 33 4
Width: 857
GlyphClass: 1
Flags: W
LayerCount: 2
Fore
SplineSet
375 73 m 1,0,-1
 375 210 l 1,1,-1
 513 210 l 1,2,-1
 513 73 l 1,3,-1
 375 73 l 1,0,-1
375 376 m 1,4,-1
 375 514 l 1,5,-1
 513 514 l 1,6,-1
 513 376 l 1,7,-1
 375 376 l 1,4,-1
375 527 m 1,8,-1
 375 665 l 1,9,-1
 513 665 l 1,10,-1
 513 527 l 1,11,-1
 375 527 l 1,8,-1
375 679 m 1,12,-1
 375 817 l 1,13,-1
 513 817 l 1,14,-1
 513 679 l 1,15,-1
 375 679 l 1,12,-1
375 830 m 1,16,-1
 375 968 l 1,17,-1
 513 968 l 1,18,-1
 513 830 l 1,19,-1
 375 830 l 1,16,-1
375 982 m 1,20,-1
 375 1120 l 1,21,-1
 513 1120 l 1,22,-1
 513 982 l 1,23,-1
 375 982 l 1,20,-1
EndSplineSet
Validated: 1
EndChar

StartChar: quotedbl
Encoding: 34 34 5
Width: 857
GlyphClass: 1
Flags: W
LayerCount: 2
Fore
SplineSet
224 679 m 1,0,-1
 224 817 l 1,1,-1
 361 817 l 1,2,-1
 361 679 l 1,3,-1
 224 679 l 1,0,-1
527 679 m 1,4,-1
 527 817 l 1,5,-1
 665 817 l 1,6,-1
 665 679 l 1,7,-1
 527 679 l 1,4,-1
224 830 m 1,8,-1
 224 968 l 1,9,-1
 361 968 l 1,10,-1
 361 830 l 1,11,-1
 224 830 l 1,8,-1
526 830 m 1,12,-1
 526 968 l 1,13,-1
 665 968 l 1,14,-1
 665 830 l 1,15,-1
 526 830 l 1,12,-1
224 982 m 1,16,-1
 224 1120 l 1,17,-1
 361 1120 l 1,18,-1
 361 982 l 1,19,-1
 224 982 l 1,16,-1
526 982 m 1,20,-1
 526 1120 l 1,21,-1
 665 1120 l 1,22,-1
 665 982 l 1,23,-1
 526 982 l 1,20,-1
EndSplineSet
Validated: 1
EndChar

StartChar: numbersign
Encoding: 35 35 6
Width: 857
GlyphClass: 1
Flags: W
LayerCount: 2
Fore
SplineSet
223 73 m 1,0,-1
 223 210 l 1,1,-1
 361 210 l 1,2,-1
 361 73 l 1,3,-1
 223 73 l 1,0,-1
526 73 m 1,4,-1
 526 210 l 1,5,-1
 664 210 l 1,6,-1
 664 73 l 1,7,-1
 526 73 l 1,4,-1
223 224 m 1,8,-1
 223 362 l 1,9,-1
 361 362 l 1,10,-1
 361 224 l 1,11,-1
 223 224 l 1,8,-1
526 224 m 1,12,-1
 526 362 l 1,13,-1
 664 362 l 1,14,-1
 664 224 l 1,15,-1
 526 224 l 1,12,-1
72 375 m 1,16,-1
 72 513 l 1,17,-1
 209 513 l 1,18,-1
 209 375 l 1,19,-1
 72 375 l 1,16,-1
223 375 m 1,20,-1
 223 513 l 1,21,-1
 361 513 l 1,22,-1
 361 375 l 1,23,-1
 223 375 l 1,20,-1
375 375 m 1,24,-1
 375 513 l 1,25,-1
 512 513 l 1,26,-1
 512 375 l 1,27,-1
 375 375 l 1,24,-1
526 376 m 1,28,-1
 526 514 l 1,29,-1
 664 514 l 1,30,-1
 664 376 l 1,31,-1
 526 376 l 1,28,-1
678 376 m 1,32,-1
 678 514 l 1,33,-1
 816 514 l 1,34,-1
 816 376 l 1,35,-1
 678 376 l 1,32,-1
223 527 m 1,36,-1
 223 665 l 1,37,-1
 361 665 l 1,38,-1
 361 527 l 1,39,-1
 223 527 l 1,36,-1
526 527 m 1,40,-1
 526 665 l 1,41,-1
 664 665 l 1,42,-1
 664 527 l 1,43,-1
 526 527 l 1,40,-1
72 678 m 1,44,-1
 72 816 l 1,45,-1
 209 816 l 1,46,-1
 209 678 l 1,47,-1
 72 678 l 1,44,-1
223 679 m 1,48,-1
 223 816 l 1,49,-1
 361 816 l 1,50,-1
 361 679 l 1,51,-1
 223 679 l 1,48,-1
375 679 m 1,52,-1
 375 816 l 1,53,-1
 512 816 l 1,54,-1
 512 679 l 1,55,-1
 375 679 l 1,52,-1
526 679 m 1,56,-1
 526 816 l 1,57,-1
 664 816 l 1,58,-1
 664 679 l 1,59,-1
 526 679 l 1,56,-1
678 679 m 1,60,-1
 678 817 l 1,61,-1
 816 817 l 1,62,-1
 816 679 l 1,63,-1
 678 679 l 1,60,-1
223 830 m 1,64,-1
 223 968 l 1,65,-1
 361 968 l 1,66,-1
 361 830 l 1,67,-1
 223 830 l 1,64,-1
526 830 m 1,68,-1
 526 968 l 1,69,-1
 664 968 l 1,70,-1
 664 830 l 1,71,-1
 526 830 l 1,68,-1
223 981 m 1,72,-1
 223 1120 l 1,73,-1
 361 1120 l 1,74,-1
 361 981 l 1,75,-1
 223 981 l 1,72,-1
526 982 m 1,76,-1
 526 1120 l 1,77,-1
 664 1120 l 1,78,-1
 664 982 l 1,79,-1
 526 982 l 1,76,-1
EndSplineSet
Validated: 1
EndChar

StartChar: dollar
Encoding: 36 36 7
Width: 857
GlyphClass: 1
Flags: W
LayerCount: 2
Fore
SplineSet
375 73 m 1,0,-1
 375 210 l 1,1,-1
 512 210 l 1,2,-1
 512 73 l 1,3,-1
 375 73 l 1,0,-1
72 224 m 1,4,-1
 72 361 l 1,5,-1
 209 361 l 1,6,-1
 209 224 l 1,7,-1
 72 224 l 1,4,-1
223 224 m 1,8,-1
 223 362 l 1,9,-1
 361 362 l 1,10,-1
 361 224 l 1,11,-1
 223 224 l 1,8,-1
375 224 m 1,12,-1
 375 362 l 1,13,-1
 512 362 l 1,14,-1
 512 224 l 1,15,-1
 375 224 l 1,12,-1
526 224 m 1,16,-1
 526 362 l 1,17,-1
 664 362 l 1,18,-1
 664 224 l 1,19,-1
 526 224 l 1,16,-1
375 376 m 1,20,-1
 375 514 l 1,21,-1
 512 514 l 1,22,-1
 512 376 l 1,23,-1
 375 376 l 1,20,-1
678 376 m 1,24,-1
 678 514 l 1,25,-1
 816 514 l 1,26,-1
 816 376 l 1,27,-1
 678 376 l 1,24,-1
223 527 m 1,28,-1
 223 665 l 1,29,-1
 361 665 l 1,30,-1
 361 527 l 1,31,-1
 223 527 l 1,28,-1
375 527 m 1,32,-1
 375 665 l 1,33,-1
 512 665 l 1,34,-1
 512 527 l 1,35,-1
 375 527 l 1,32,-1
526 527 m 1,36,-1
 526 665 l 1,37,-1
 664 665 l 1,38,-1
 664 527 l 1,39,-1
 526 527 l 1,36,-1
72 679 m 1,40,-1
 72 816 l 1,41,-1
 209 816 l 1,42,-1
 209 679 l 1,43,-1
 72 679 l 1,40,-1
375 679 m 1,44,-1
 375 816 l 1,45,-1
 512 816 l 1,46,-1
 512 679 l 1,47,-1
 375 679 l 1,44,-1
223 830 m 1,48,-1
 223 968 l 1,49,-1
 361 968 l 1,50,-1
 361 830 l 1,51,-1
 223 830 l 1,48,-1
375 830 m 1,52,-1
 375 968 l 1,53,-1
 512 968 l 1,54,-1
 512 830 l 1,55,-1
 375 830 l 1,52,-1
526 830 m 1,56,-1
 526 968 l 1,57,-1
 664 968 l 1,58,-1
 664 830 l 1,59,-1
 526 830 l 1,56,-1
678 830 m 1,60,-1
 678 968 l 1,61,-1
 816 968 l 1,62,-1
 816 830 l 1,63,-1
 678 830 l 1,60,-1
375 982 m 1,64,-1
 375 1120 l 1,65,-1
 512 1120 l 1,66,-1
 512 982 l 1,67,-1
 375 982 l 1,64,-1
EndSplineSet
Validated: 1
EndChar

StartChar: percent
Encoding: 37 37 8
Width: 857
GlyphClass: 1
Flags: W
LayerCount: 2
Fore
SplineSet
526 73 m 1,0,-1
 526 210 l 1,1,-1
 664 210 l 1,2,-1
 664 73 l 1,3,-1
 526 73 l 1,0,-1
678 73 m 1,4,-1
 678 210 l 1,5,-1
 816 210 l 1,6,-1
 816 73 l 1,7,-1
 678 73 l 1,4,-1
72 224 m 1,8,-1
 72 362 l 1,9,-1
 209 362 l 1,10,-1
 209 224 l 1,11,-1
 72 224 l 1,8,-1
526 224 m 1,12,-1
 526 362 l 1,13,-1
 664 362 l 1,14,-1
 664 224 l 1,15,-1
 526 224 l 1,12,-1
678 224 m 1,16,-1
 678 362 l 1,17,-1
 816 362 l 1,18,-1
 816 224 l 1,19,-1
 678 224 l 1,16,-1
223 376 m 1,20,-1
 223 514 l 1,21,-1
 361 514 l 1,22,-1
 361 376 l 1,23,-1
 223 376 l 1,20,-1
375 527 m 1,24,-1
 375 665 l 1,25,-1
 512 665 l 1,26,-1
 512 527 l 1,27,-1
 375 527 l 1,24,-1
526 679 m 1,28,-1
 526 816 l 1,29,-1
 664 816 l 1,30,-1
 664 679 l 1,31,-1
 526 679 l 1,28,-1
72 830 m 1,32,-1
 72 968 l 1,33,-1
 209 968 l 1,34,-1
 209 830 l 1,35,-1
 72 830 l 1,32,-1
223 830 m 1,36,-1
 223 968 l 1,37,-1
 361 968 l 1,38,-1
 361 830 l 1,39,-1
 223 830 l 1,36,-1
678 830 m 1,40,-1
 678 968 l 1,41,-1
 816 968 l 1,42,-1
 816 830 l 1,43,-1
 678 830 l 1,40,-1
72 982 m 1,44,-1
 72 1120 l 1,45,-1
 209 1120 l 1,46,-1
 209 982 l 1,47,-1
 72 982 l 1,44,-1
223 982 m 1,48,-1
 223 1120 l 1,49,-1
 361 1120 l 1,50,-1
 361 982 l 1,51,-1
 223 982 l 1,48,-1
EndSplineSet
Validated: 1
EndChar

StartChar: ampersand
Encoding: 38 38 9
Width: 857
GlyphClass: 1
Flags: W
LayerCount: 2
Fore
SplineSet
223 73 m 1,0,-1
 223 210 l 1,1,-1
 361 210 l 1,2,-1
 361 73 l 1,3,-1
 223 73 l 1,0,-1
375 73 m 1,4,-1
 375 210 l 1,5,-1
 513 210 l 1,6,-1
 513 73 l 1,7,-1
 375 73 l 1,4,-1
678 73 m 1,8,-1
 678 210 l 1,9,-1
 816 210 l 1,10,-1
 816 73 l 1,11,-1
 678 73 l 1,8,-1
72 224 m 1,12,-1
 72 362 l 1,13,-1
 209 362 l 1,14,-1
 209 224 l 1,15,-1
 72 224 l 1,12,-1
526 224 m 1,16,-1
 526 362 l 1,17,-1
 664 362 l 1,18,-1
 664 224 l 1,19,-1
 526 224 l 1,16,-1
72 375 m 1,20,-1
 72 513 l 1,21,-1
 209 513 l 1,22,-1
 209 375 l 1,23,-1
 72 375 l 1,20,-1
375 376 m 1,24,-1
 375 514 l 1,25,-1
 512 514 l 1,26,-1
 512 376 l 1,27,-1
 375 376 l 1,24,-1
678 376 m 1,28,-1
 678 514 l 1,29,-1
 816 514 l 1,30,-1
 816 376 l 1,31,-1
 678 376 l 1,28,-1
223 527 m 1,32,-1
 223 665 l 1,33,-1
 361 665 l 1,34,-1
 361 527 l 1,35,-1
 223 527 l 1,32,-1
72 679 m 1,36,-1
 72 816 l 1,37,-1
 209 816 l 1,38,-1
 209 679 l 1,39,-1
 72 679 l 1,36,-1
375 679 m 1,40,-1
 375 816 l 1,41,-1
 512 816 l 1,42,-1
 512 679 l 1,43,-1
 375 679 l 1,40,-1
72 830 m 1,44,-1
 72 968 l 1,45,-1
 209 968 l 1,46,-1
 209 830 l 1,47,-1
 72 830 l 1,44,-1
526 830 m 1,48,-1
 526 968 l 1,49,-1
 664 968 l 1,50,-1
 664 830 l 1,51,-1
 526 830 l 1,48,-1
223 982 m 1,52,-1
 223 1120 l 1,53,-1
 361 1120 l 1,54,-1
 361 982 l 1,55,-1
 223 982 l 1,52,-1
375 982 m 1,56,-1
 375 1120 l 1,57,-1
 512 1120 l 1,58,-1
 512 982 l 1,59,-1
 375 982 l 1,56,-1
EndSplineSet
Validated: 1
EndChar

StartChar: quotesingle
Encoding: 39 39 10
Width: 857
GlyphClass: 1
Flags: W
LayerCount: 2
Fore
SplineSet
360 679 m 1,0,-1
 360 817 l 1,1,-1
 497 817 l 1,2,-1
 497 679 l 1,3,-1
 360 679 l 1,0,-1
360 830 m 1,4,-1
 360 968 l 1,5,-1
 497 968 l 1,6,-1
 497 830 l 1,7,-1
 360 830 l 1,4,-1
360 982 m 1,8,-1
 360 1120 l 1,9,-1
 497 1120 l 1,10,-1
 497 982 l 1,11,-1
 360 982 l 1,8,-1
EndSplineSet
Validated: 1
EndChar

StartChar: parenleft
Encoding: 40 40 11
Width: 857
GlyphClass: 1
Flags: W
LayerCount: 2
Fore
SplineSet
527 73 m 1,0,-1
 527 210 l 1,1,-1
 664 210 l 1,2,-1
 664 73 l 1,3,-1
 527 73 l 1,0,-1
375 224 m 1,4,-1
 375 362 l 1,5,-1
 513 362 l 1,6,-1
 513 224 l 1,7,-1
 375 224 l 1,4,-1
224 376 m 1,8,-1
 224 514 l 1,9,-1
 361 514 l 1,10,-1
 361 376 l 1,11,-1
 224 376 l 1,8,-1
224 527 m 1,12,-1
 224 665 l 1,13,-1
 361 665 l 1,14,-1
 361 527 l 1,15,-1
 224 527 l 1,12,-1
224 679 m 1,16,-1
 224 817 l 1,17,-1
 361 817 l 1,18,-1
 361 679 l 1,19,-1
 224 679 l 1,16,-1
375 830 m 1,20,-1
 375 968 l 1,21,-1
 513 968 l 1,22,-1
 513 830 l 1,23,-1
 375 830 l 1,20,-1
526 982 m 1,24,-1
 526 1120 l 1,25,-1
 664 1120 l 1,26,-1
 664 982 l 1,27,-1
 526 982 l 1,24,-1
EndSplineSet
Validated: 1
EndChar

StartChar: parenright
Encoding: 41 41 12
Width: 857
GlyphClass: 1
Flags: W
LayerCount: 2
Fore
SplineSet
224 73 m 1,0,-1
 224 210 l 1,1,-1
 361 210 l 1,2,-1
 361 73 l 1,3,-1
 224 73 l 1,0,-1
375 224 m 1,4,-1
 375 362 l 1,5,-1
 513 362 l 1,6,-1
 513 224 l 1,7,-1
 375 224 l 1,4,-1
527 376 m 1,8,-1
 527 514 l 1,9,-1
 664 514 l 1,10,-1
 664 376 l 1,11,-1
 527 376 l 1,8,-1
526 527 m 1,12,-1
 526 665 l 1,13,-1
 664 665 l 1,14,-1
 664 527 l 1,15,-1
 526 527 l 1,12,-1
526 679 m 1,16,-1
 526 817 l 1,17,-1
 664 817 l 1,18,-1
 664 679 l 1,19,-1
 526 679 l 1,16,-1
375 830 m 1,20,-1
 375 968 l 1,21,-1
 513 968 l 1,22,-1
 513 830 l 1,23,-1
 375 830 l 1,20,-1
224 982 m 1,24,-1
 224 1120 l 1,25,-1
 361 1120 l 1,26,-1
 361 982 l 1,27,-1
 224 982 l 1,24,-1
EndSplineSet
Validated: 1
EndChar

StartChar: asterisk
Encoding: 42 42 13
Width: 857
GlyphClass: 1
Flags: W
LayerCount: 2
Fore
SplineSet
375 224 m 1,0,-1
 375 362 l 1,1,-1
 513 362 l 1,2,-1
 513 224 l 1,3,-1
 375 224 l 1,0,-1
72 376 m 1,4,-1
 72 513 l 1,5,-1
 209 513 l 1,6,-1
 209 376 l 1,7,-1
 72 376 l 1,4,-1
375 376 m 1,8,-1
 375 514 l 1,9,-1
 513 514 l 1,10,-1
 513 376 l 1,11,-1
 375 376 l 1,8,-1
678 376 m 1,12,-1
 678 514 l 1,13,-1
 816 514 l 1,14,-1
 816 376 l 1,15,-1
 678 376 l 1,12,-1
223 527 m 1,16,-1
 223 665 l 1,17,-1
 361 665 l 1,18,-1
 361 527 l 1,19,-1
 223 527 l 1,16,-1
375 527 m 1,20,-1
 375 665 l 1,21,-1
 512 665 l 1,22,-1
 512 527 l 1,23,-1
 375 527 l 1,20,-1
526 527 m 1,24,-1
 526 665 l 1,25,-1
 664 665 l 1,26,-1
 664 527 l 1,27,-1
 526 527 l 1,24,-1
72 679 m 1,28,-1
 72 816 l 1,29,-1
 209 816 l 1,30,-1
 209 679 l 1,31,-1
 72 679 l 1,28,-1
375 679 m 1,32,-1
 375 816 l 1,33,-1
 512 816 l 1,34,-1
 512 679 l 1,35,-1
 375 679 l 1,32,-1
678 679 m 1,36,-1
 678 817 l 1,37,-1
 816 817 l 1,38,-1
 816 679 l 1,39,-1
 678 679 l 1,36,-1
375 830 m 1,40,-1
 375 969 l 1,41,-1
 512 969 l 1,42,-1
 512 830 l 1,43,-1
 375 830 l 1,40,-1
EndSplineSet
Validated: 1
EndChar

StartChar: plus
Encoding: 43 43 14
Width: 857
GlyphClass: 1
Flags: W
LayerCount: 2
Fore
SplineSet
375 224 m 1,0,-1
 375 362 l 1,1,-1
 513 362 l 1,2,-1
 513 224 l 1,3,-1
 375 224 l 1,0,-1
375 376 m 1,4,-1
 375 514 l 1,5,-1
 513 514 l 1,6,-1
 513 376 l 1,7,-1
 375 376 l 1,4,-1
72 527 m 1,8,-1
 72 665 l 1,9,-1
 210 665 l 1,10,-1
 210 527 l 1,11,-1
 72 527 l 1,8,-1
223 527 m 1,12,-1
 223 665 l 1,13,-1
 361 665 l 1,14,-1
 361 527 l 1,15,-1
 223 527 l 1,12,-1
375 527 m 1,16,-1
 375 665 l 1,17,-1
 513 665 l 1,18,-1
 513 527 l 1,19,-1
 375 527 l 1,16,-1
526 527 m 1,20,-1
 526 665 l 1,21,-1
 664 665 l 1,22,-1
 664 527 l 1,23,-1
 526 527 l 1,20,-1
678 527 m 1,24,-1
 678 665 l 1,25,-1
 816 665 l 1,26,-1
 816 527 l 1,27,-1
 678 527 l 1,24,-1
375 679 m 1,28,-1
 375 816 l 1,29,-1
 512 816 l 1,30,-1
 512 679 l 1,31,-1
 375 679 l 1,28,-1
375 830 m 1,32,-1
 375 969 l 1,33,-1
 512 969 l 1,34,-1
 512 830 l 1,35,-1
 375 830 l 1,32,-1
EndSplineSet
Validated: 1
EndChar

StartChar: comma
Encoding: 44 44 15
Width: 857
GlyphClass: 1
Flags: W
LayerCount: 2
Fore
SplineSet
224 73 m 1,0,-1
 224 210 l 1,1,-1
 361 210 l 1,2,-1
 361 73 l 1,3,-1
 224 73 l 1,0,-1
224 -225 m 1,4,-1
 224 -88 l 1,5,-1
 362 -88 l 1,6,-1
 362 -225 l 1,7,-1
 224 -225 l 1,4,-1
224 224 m 1,8,-1
 224 362 l 1,9,-1
 361 362 l 1,10,-1
 361 224 l 1,11,-1
 224 224 l 1,8,-1
375 224 m 1,12,-1
 375 362 l 1,13,-1
 513 362 l 1,14,-1
 513 224 l 1,15,-1
 375 224 l 1,12,-1
375 73 m 1,16,-1
 375 210 l 1,17,-1
 513 210 l 1,18,-1
 513 73 l 1,19,-1
 375 73 l 1,16,-1
375 -77 m 1,20,-1
 375 60 l 1,21,-1
 513 60 l 1,22,-1
 513 -77 l 1,23,-1
 375 -77 l 1,20,-1
EndSplineSet
Validated: 1
EndChar

StartChar: hyphen
Encoding: 45 45 16
AltUni2: 002010.ffffffff.0 002010.ffffffff.0
Width: 857
GlyphClass: 1
Flags: W
LayerCount: 2
Fore
SplineSet
72 527 m 1,0,-1
 72 665 l 1,1,-1
 210 665 l 1,2,-1
 210 527 l 1,3,-1
 72 527 l 1,0,-1
223 527 m 1,4,-1
 223 665 l 1,5,-1
 361 665 l 1,6,-1
 361 527 l 1,7,-1
 223 527 l 1,4,-1
375 527 m 1,8,-1
 375 665 l 1,9,-1
 513 665 l 1,10,-1
 513 527 l 1,11,-1
 375 527 l 1,8,-1
526 527 m 1,12,-1
 526 665 l 1,13,-1
 664 665 l 1,14,-1
 664 527 l 1,15,-1
 526 527 l 1,12,-1
678 527 m 1,16,-1
 678 665 l 1,17,-1
 816 665 l 1,18,-1
 816 527 l 1,19,-1
 678 527 l 1,16,-1
EndSplineSet
Validated: 1
EndChar

StartChar: period
Encoding: 46 46 17
Width: 857
GlyphClass: 1
Flags: W
LayerCount: 2
Fore
SplineSet
224 73 m 1,0,-1
 224 210 l 1,1,-1
 361 210 l 1,2,-1
 361 73 l 1,3,-1
 224 73 l 1,0,-1
375 73 m 1,4,-1
 375 210 l 1,5,-1
 513 210 l 1,6,-1
 513 73 l 1,7,-1
 375 73 l 1,4,-1
224 224 m 1,8,-1
 224 362 l 1,9,-1
 361 362 l 1,10,-1
 361 224 l 1,11,-1
 224 224 l 1,8,-1
375 224 m 1,12,-1
 375 362 l 1,13,-1
 513 362 l 1,14,-1
 513 224 l 1,15,-1
 375 224 l 1,12,-1
EndSplineSet
Validated: 1
EndChar

StartChar: slash
Encoding: 47 47 18
Width: 857
GlyphClass: 1
Flags: W
LayerCount: 2
Fore
SplineSet
72 224 m 1,0,-1
 72 362 l 1,1,-1
 210 362 l 1,2,-1
 210 224 l 1,3,-1
 72 224 l 1,0,-1
223 376 m 1,4,-1
 223 514 l 1,5,-1
 361 514 l 1,6,-1
 361 376 l 1,7,-1
 223 376 l 1,4,-1
375 527 m 1,8,-1
 375 665 l 1,9,-1
 513 665 l 1,10,-1
 513 527 l 1,11,-1
 375 527 l 1,8,-1
526 679 m 1,12,-1
 526 817 l 1,13,-1
 664 817 l 1,14,-1
 664 679 l 1,15,-1
 526 679 l 1,12,-1
678 831 m 1,16,-1
 678 969 l 1,17,-1
 816 969 l 1,18,-1
 816 831 l 1,19,-1
 678 831 l 1,16,-1
EndSplineSet
Validated: 1
EndChar

StartChar: zero
Encoding: 48 48 19
Width: 857
GlyphClass: 1
Flags: W
LayerCount: 2
Fore
SplineSet
223 73 m 1,0,-1
 223 210 l 1,1,-1
 361 210 l 1,2,-1
 361 73 l 1,3,-1
 223 73 l 1,0,-1
375 73 m 1,4,-1
 375 210 l 1,5,-1
 512 210 l 1,6,-1
 512 73 l 1,7,-1
 375 73 l 1,4,-1
526 73 m 1,8,-1
 526 210 l 1,9,-1
 664 210 l 1,10,-1
 664 73 l 1,11,-1
 526 73 l 1,8,-1
72 224 m 1,12,-1
 72 361 l 1,13,-1
 209 361 l 1,14,-1
 209 224 l 1,15,-1
 72 224 l 1,12,-1
678 224 m 1,16,-1
 678 362 l 1,17,-1
 816 362 l 1,18,-1
 816 224 l 1,19,-1
 678 224 l 1,16,-1
72 375 m 1,20,-1
 72 513 l 1,21,-1
 209 513 l 1,22,-1
 209 375 l 1,23,-1
 72 375 l 1,20,-1
223 375 m 1,24,-1
 223 513 l 1,25,-1
 361 513 l 1,26,-1
 361 375 l 1,27,-1
 223 375 l 1,24,-1
678 376 m 1,28,-1
 678 514 l 1,29,-1
 816 514 l 1,30,-1
 816 376 l 1,31,-1
 678 376 l 1,28,-1
72 527 m 1,32,-1
 72 665 l 1,33,-1
 209 665 l 1,34,-1
 209 527 l 1,35,-1
 72 527 l 1,32,-1
375 527 m 1,36,-1
 375 665 l 1,37,-1
 512 665 l 1,38,-1
 512 527 l 1,39,-1
 375 527 l 1,36,-1
678 527 m 1,40,-1
 678 665 l 1,41,-1
 816 665 l 1,42,-1
 816 527 l 1,43,-1
 678 527 l 1,40,-1
72 678 m 1,44,-1
 72 816 l 1,45,-1
 209 816 l 1,46,-1
 209 678 l 1,47,-1
 72 678 l 1,44,-1
526 679 m 1,48,-1
 526 816 l 1,49,-1
 664 816 l 1,50,-1
 664 679 l 1,51,-1
 526 679 l 1,48,-1
678 679 m 1,52,-1
 678 817 l 1,53,-1
 816 817 l 1,54,-1
 816 679 l 1,55,-1
 678 679 l 1,52,-1
72 830 m 1,56,-1
 72 968 l 1,57,-1
 209 968 l 1,58,-1
 209 830 l 1,59,-1
 72 830 l 1,56,-1
678 830 m 1,60,-1
 678 968 l 1,61,-1
 816 968 l 1,62,-1
 816 830 l 1,63,-1
 678 830 l 1,60,-1
223 982 m 1,64,-1
 223 1120 l 1,65,-1
 361 1120 l 1,66,-1
 361 982 l 1,67,-1
 223 982 l 1,64,-1
375 982 m 1,68,-1
 375 1120 l 1,69,-1
 512 1120 l 1,70,-1
 512 982 l 1,71,-1
 375 982 l 1,68,-1
526 982 m 1,72,-1
 526 1120 l 1,73,-1
 664 1120 l 1,74,-1
 664 982 l 1,75,-1
 526 982 l 1,72,-1
EndSplineSet
Validated: 1
EndChar

StartChar: one
Encoding: 49 49 20
Width: 857
GlyphClass: 1
Flags: W
LayerCount: 2
Fore
SplineSet
224 73 m 1,0,-1
 224 210 l 1,1,-1
 361 210 l 1,2,-1
 361 73 l 1,3,-1
 224 73 l 1,0,-1
375 73 m 1,4,-1
 375 210 l 1,5,-1
 513 210 l 1,6,-1
 513 73 l 1,7,-1
 375 73 l 1,4,-1
527 73 m 1,8,-1
 527 210 l 1,9,-1
 664 210 l 1,10,-1
 664 73 l 1,11,-1
 527 73 l 1,8,-1
375 224 m 1,12,-1
 375 362 l 1,13,-1
 513 362 l 1,14,-1
 513 224 l 1,15,-1
 375 224 l 1,12,-1
375 376 m 1,16,-1
 375 514 l 1,17,-1
 513 514 l 1,18,-1
 513 376 l 1,19,-1
 375 376 l 1,16,-1
375 527 m 1,20,-1
 375 665 l 1,21,-1
 513 665 l 1,22,-1
 513 527 l 1,23,-1
 375 527 l 1,20,-1
375 679 m 1,24,-1
 375 816 l 1,25,-1
 512 816 l 1,26,-1
 512 679 l 1,27,-1
 375 679 l 1,24,-1
224 830 m 1,28,-1
 224 968 l 1,29,-1
 361 968 l 1,30,-1
 361 830 l 1,31,-1
 224 830 l 1,28,-1
375 830 m 1,32,-1
 375 968 l 1,33,-1
 512 968 l 1,34,-1
 512 830 l 1,35,-1
 375 830 l 1,32,-1
375 982 m 1,36,-1
 375 1120 l 1,37,-1
 512 1120 l 1,38,-1
 512 982 l 1,39,-1
 375 982 l 1,36,-1
EndSplineSet
Validated: 1
EndChar

StartChar: two
Encoding: 50 50 21
Width: 857
GlyphClass: 1
Flags: W
LayerCount: 2
Fore
SplineSet
72 73 m 1,0,-1
 72 210 l 1,1,-1
 209 210 l 1,2,-1
 209 73 l 1,3,-1
 72 73 l 1,0,-1
223 73 m 1,4,-1
 223 210 l 1,5,-1
 361 210 l 1,6,-1
 361 73 l 1,7,-1
 223 73 l 1,4,-1
375 73 m 1,8,-1
 375 210 l 1,9,-1
 512 210 l 1,10,-1
 512 73 l 1,11,-1
 375 73 l 1,8,-1
526 73 m 1,12,-1
 526 210 l 1,13,-1
 664 210 l 1,14,-1
 664 73 l 1,15,-1
 526 73 l 1,12,-1
678 73 m 1,16,-1
 678 210 l 1,17,-1
 816 210 l 1,18,-1
 816 73 l 1,19,-1
 678 73 l 1,16,-1
526 527 m 1,20,-1
 526 665 l 1,21,-1
 664 665 l 1,22,-1
 664 527 l 1,23,-1
 526 527 l 1,20,-1
678 679 m 1,24,-1
 678 817 l 1,25,-1
 816 817 l 1,26,-1
 816 679 l 1,27,-1
 678 679 l 1,24,-1
72 830 m 1,28,-1
 72 968 l 1,29,-1
 209 968 l 1,30,-1
 209 830 l 1,31,-1
 72 830 l 1,28,-1
678 830 m 1,32,-1
 678 968 l 1,33,-1
 816 968 l 1,34,-1
 816 830 l 1,35,-1
 678 830 l 1,32,-1
223 982 m 1,36,-1
 223 1120 l 1,37,-1
 361 1120 l 1,38,-1
 361 982 l 1,39,-1
 223 982 l 1,36,-1
375 982 m 1,40,-1
 375 1120 l 1,41,-1
 512 1120 l 1,42,-1
 512 982 l 1,43,-1
 375 982 l 1,40,-1
526 982 m 1,44,-1
 526 1120 l 1,45,-1
 664 1120 l 1,46,-1
 664 982 l 1,47,-1
 526 982 l 1,44,-1
72 224 m 1,48,-1
 72 362 l 1,49,-1
 209 362 l 1,50,-1
 209 224 l 1,51,-1
 72 224 l 1,48,-1
375 527 m 1,52,-1
 375 665 l 1,53,-1
 512 665 l 1,54,-1
 512 527 l 1,55,-1
 375 527 l 1,52,-1
223 376 m 1,56,-1
 223 513 l 1,57,-1
 361 513 l 1,58,-1
 361 376 l 1,59,-1
 223 376 l 1,56,-1
EndSplineSet
Validated: 1
EndChar

StartChar: three
Encoding: 51 51 22
Width: 857
GlyphClass: 1
Flags: W
LayerCount: 2
Fore
SplineSet
223 73 m 1,0,-1
 223 210 l 1,1,-1
 361 210 l 1,2,-1
 361 73 l 1,3,-1
 223 73 l 1,0,-1
375 73 m 1,4,-1
 375 210 l 1,5,-1
 512 210 l 1,6,-1
 512 73 l 1,7,-1
 375 73 l 1,4,-1
526 73 m 1,8,-1
 526 210 l 1,9,-1
 664 210 l 1,10,-1
 664 73 l 1,11,-1
 526 73 l 1,8,-1
72 224 m 1,12,-1
 72 362 l 1,13,-1
 209 362 l 1,14,-1
 209 224 l 1,15,-1
 72 224 l 1,12,-1
678 224 m 1,16,-1
 678 362 l 1,17,-1
 816 362 l 1,18,-1
 816 224 l 1,19,-1
 678 224 l 1,16,-1
678 376 m 1,20,-1
 678 514 l 1,21,-1
 816 514 l 1,22,-1
 816 376 l 1,23,-1
 678 376 l 1,20,-1
375 527 m 1,24,-1
 375 665 l 1,25,-1
 512 665 l 1,26,-1
 512 527 l 1,27,-1
 375 527 l 1,24,-1
526 527 m 1,28,-1
 526 665 l 1,29,-1
 664 665 l 1,30,-1
 664 527 l 1,31,-1
 526 527 l 1,28,-1
678 679 m 1,32,-1
 678 817 l 1,33,-1
 816 817 l 1,34,-1
 816 679 l 1,35,-1
 678 679 l 1,32,-1
72 830 m 1,36,-1
 72 968 l 1,37,-1
 209 968 l 1,38,-1
 209 830 l 1,39,-1
 72 830 l 1,36,-1
678 830 m 1,40,-1
 678 968 l 1,41,-1
 816 968 l 1,42,-1
 816 830 l 1,43,-1
 678 830 l 1,40,-1
223 982 m 1,44,-1
 223 1120 l 1,45,-1
 361 1120 l 1,46,-1
 361 982 l 1,47,-1
 223 982 l 1,44,-1
375 982 m 1,48,-1
 375 1120 l 1,49,-1
 512 1120 l 1,50,-1
 512 982 l 1,51,-1
 375 982 l 1,48,-1
526 982 m 1,52,-1
 526 1120 l 1,53,-1
 664 1120 l 1,54,-1
 664 982 l 1,55,-1
 526 982 l 1,52,-1
EndSplineSet
Validated: 1
EndChar

StartChar: four
Encoding: 52 52 23
Width: 857
GlyphClass: 1
Flags: W
LayerCount: 2
Fore
SplineSet
526 73 m 1,0,-1
 526 210 l 1,1,-1
 664 210 l 1,2,-1
 664 73 l 1,3,-1
 526 73 l 1,0,-1
526 224 m 1,4,-1
 526 362 l 1,5,-1
 664 362 l 1,6,-1
 664 224 l 1,7,-1
 526 224 l 1,4,-1
72 376 m 1,8,-1
 72 513 l 1,9,-1
 209 513 l 1,10,-1
 209 376 l 1,11,-1
 72 376 l 1,8,-1
223 376 m 1,12,-1
 223 513 l 1,13,-1
 361 513 l 1,14,-1
 361 376 l 1,15,-1
 223 376 l 1,12,-1
375 376 m 1,16,-1
 375 513 l 1,17,-1
 512 513 l 1,18,-1
 512 376 l 1,19,-1
 375 376 l 1,16,-1
526 376 m 1,20,-1
 526 514 l 1,21,-1
 664 514 l 1,22,-1
 664 376 l 1,23,-1
 526 376 l 1,20,-1
678 376 m 1,24,-1
 678 514 l 1,25,-1
 816 514 l 1,26,-1
 816 376 l 1,27,-1
 678 376 l 1,24,-1
72 527 m 1,28,-1
 72 665 l 1,29,-1
 209 665 l 1,30,-1
 209 527 l 1,31,-1
 72 527 l 1,28,-1
526 527 m 1,32,-1
 526 665 l 1,33,-1
 664 665 l 1,34,-1
 664 527 l 1,35,-1
 526 527 l 1,32,-1
223 679 m 1,36,-1
 223 816 l 1,37,-1
 361 816 l 1,38,-1
 361 679 l 1,39,-1
 223 679 l 1,36,-1
526 679 m 1,40,-1
 526 816 l 1,41,-1
 664 816 l 1,42,-1
 664 679 l 1,43,-1
 526 679 l 1,40,-1
375 830 m 1,44,-1
 375 968 l 1,45,-1
 512 968 l 1,46,-1
 512 830 l 1,47,-1
 375 830 l 1,44,-1
526 830 m 1,48,-1
 526 968 l 1,49,-1
 664 968 l 1,50,-1
 664 830 l 1,51,-1
 526 830 l 1,48,-1
526 982 m 1,52,-1
 526 1120 l 1,53,-1
 664 1120 l 1,54,-1
 664 982 l 1,55,-1
 526 982 l 1,52,-1
EndSplineSet
Validated: 1
EndChar

StartChar: five
Encoding: 53 53 24
Width: 857
GlyphClass: 1
Flags: W
LayerCount: 2
Fore
SplineSet
223 73 m 1,0,-1
 223 210 l 1,1,-1
 361 210 l 1,2,-1
 361 73 l 1,3,-1
 223 73 l 1,0,-1
375 73 m 1,4,-1
 375 210 l 1,5,-1
 512 210 l 1,6,-1
 512 73 l 1,7,-1
 375 73 l 1,4,-1
526 73 m 1,8,-1
 526 210 l 1,9,-1
 664 210 l 1,10,-1
 664 73 l 1,11,-1
 526 73 l 1,8,-1
72 224 m 1,12,-1
 72 362 l 1,13,-1
 209 362 l 1,14,-1
 209 224 l 1,15,-1
 72 224 l 1,12,-1
678 224 m 1,16,-1
 678 362 l 1,17,-1
 816 362 l 1,18,-1
 816 224 l 1,19,-1
 678 224 l 1,16,-1
678 376 m 1,20,-1
 678 514 l 1,21,-1
 816 514 l 1,22,-1
 816 376 l 1,23,-1
 678 376 l 1,20,-1
678 527 m 1,24,-1
 678 665 l 1,25,-1
 816 665 l 1,26,-1
 816 527 l 1,27,-1
 678 527 l 1,24,-1
72 679 m 1,28,-1
 72 816 l 1,29,-1
 209 816 l 1,30,-1
 209 679 l 1,31,-1
 72 679 l 1,28,-1
223 679 m 1,32,-1
 223 816 l 1,33,-1
 361 816 l 1,34,-1
 361 679 l 1,35,-1
 223 679 l 1,32,-1
375 679 m 1,36,-1
 375 816 l 1,37,-1
 512 816 l 1,38,-1
 512 679 l 1,39,-1
 375 679 l 1,36,-1
526 679 m 1,40,-1
 526 816 l 1,41,-1
 664 816 l 1,42,-1
 664 679 l 1,43,-1
 526 679 l 1,40,-1
72 830 m 1,44,-1
 72 968 l 1,45,-1
 209 968 l 1,46,-1
 209 830 l 1,47,-1
 72 830 l 1,44,-1
72 981 m 1,48,-1
 72 1120 l 1,49,-1
 209 1120 l 1,50,-1
 209 981 l 1,51,-1
 72 981 l 1,48,-1
223 982 m 1,52,-1
 223 1120 l 1,53,-1
 361 1120 l 1,54,-1
 361 982 l 1,55,-1
 223 982 l 1,52,-1
375 982 m 1,56,-1
 375 1120 l 1,57,-1
 512 1120 l 1,58,-1
 512 982 l 1,59,-1
 375 982 l 1,56,-1
526 982 m 1,60,-1
 526 1120 l 1,61,-1
 664 1120 l 1,62,-1
 664 982 l 1,63,-1
 526 982 l 1,60,-1
678 982 m 1,64,-1
 678 1120 l 1,65,-1
 816 1120 l 1,66,-1
 816 982 l 1,67,-1
 678 982 l 1,64,-1
EndSplineSet
Validated: 1
EndChar

StartChar: six
Encoding: 54 54 25
Width: 857
GlyphClass: 1
Flags: W
LayerCount: 2
Fore
SplineSet
223 73 m 1,0,-1
 223 210 l 1,1,-1
 361 210 l 1,2,-1
 361 73 l 1,3,-1
 223 73 l 1,0,-1
375 73 m 1,4,-1
 375 210 l 1,5,-1
 512 210 l 1,6,-1
 512 73 l 1,7,-1
 375 73 l 1,4,-1
526 73 m 1,8,-1
 526 210 l 1,9,-1
 664 210 l 1,10,-1
 664 73 l 1,11,-1
 526 73 l 1,8,-1
72 224 m 1,12,-1
 72 362 l 1,13,-1
 209 362 l 1,14,-1
 209 224 l 1,15,-1
 72 224 l 1,12,-1
678 224 m 1,16,-1
 678 362 l 1,17,-1
 816 362 l 1,18,-1
 816 224 l 1,19,-1
 678 224 l 1,16,-1
72 375 m 1,20,-1
 72 513 l 1,21,-1
 209 513 l 1,22,-1
 209 375 l 1,23,-1
 72 375 l 1,20,-1
678 376 m 1,24,-1
 678 514 l 1,25,-1
 816 514 l 1,26,-1
 816 376 l 1,27,-1
 678 376 l 1,24,-1
72 527 m 1,28,-1
 72 665 l 1,29,-1
 209 665 l 1,30,-1
 209 527 l 1,31,-1
 72 527 l 1,28,-1
223 527 m 1,32,-1
 223 665 l 1,33,-1
 361 665 l 1,34,-1
 361 527 l 1,35,-1
 223 527 l 1,32,-1
375 527 m 1,36,-1
 375 665 l 1,37,-1
 512 665 l 1,38,-1
 512 527 l 1,39,-1
 375 527 l 1,36,-1
526 527 m 1,40,-1
 526 665 l 1,41,-1
 664 665 l 1,42,-1
 664 527 l 1,43,-1
 526 527 l 1,40,-1
72 679 m 1,44,-1
 72 816 l 1,45,-1
 209 816 l 1,46,-1
 209 679 l 1,47,-1
 72 679 l 1,44,-1
223 830 m 1,48,-1
 223 968 l 1,49,-1
 361 968 l 1,50,-1
 361 830 l 1,51,-1
 223 830 l 1,48,-1
375 982 m 1,52,-1
 375 1120 l 1,53,-1
 512 1120 l 1,54,-1
 512 982 l 1,55,-1
 375 982 l 1,52,-1
526 982 m 1,56,-1
 526 1120 l 1,57,-1
 664 1120 l 1,58,-1
 664 982 l 1,59,-1
 526 982 l 1,56,-1
EndSplineSet
Validated: 1
EndChar

StartChar: seven
Encoding: 55 55 26
Width: 857
GlyphClass: 1
Flags: W
LayerCount: 2
Fore
SplineSet
223 73 m 1,0,-1
 223 210 l 1,1,-1
 361 210 l 1,2,-1
 361 73 l 1,3,-1
 223 73 l 1,0,-1
223 224 m 1,4,-1
 223 362 l 1,5,-1
 361 362 l 1,6,-1
 361 224 l 1,7,-1
 223 224 l 1,4,-1
223 376 m 1,8,-1
 223 513 l 1,9,-1
 361 513 l 1,10,-1
 361 376 l 1,11,-1
 223 376 l 1,8,-1
375 527 m 1,12,-1
 375 665 l 1,13,-1
 513 665 l 1,14,-1
 513 527 l 1,15,-1
 375 527 l 1,12,-1
526 679 m 1,16,-1
 526 817 l 1,17,-1
 664 817 l 1,18,-1
 664 679 l 1,19,-1
 526 679 l 1,16,-1
678 831 m 1,20,-1
 678 968 l 1,21,-1
 816 968 l 1,22,-1
 816 831 l 1,23,-1
 678 831 l 1,20,-1
72 982 m 1,24,-1
 72 1120 l 1,25,-1
 209 1120 l 1,26,-1
 209 982 l 1,27,-1
 72 982 l 1,24,-1
223 982 m 1,28,-1
 223 1120 l 1,29,-1
 361 1120 l 1,30,-1
 361 982 l 1,31,-1
 223 982 l 1,28,-1
375 982 m 1,32,-1
 375 1120 l 1,33,-1
 512 1120 l 1,34,-1
 512 982 l 1,35,-1
 375 982 l 1,32,-1
526 982 m 1,36,-1
 526 1120 l 1,37,-1
 664 1120 l 1,38,-1
 664 982 l 1,39,-1
 526 982 l 1,36,-1
678 982 m 1,40,-1
 678 1120 l 1,41,-1
 816 1120 l 1,42,-1
 816 982 l 1,43,-1
 678 982 l 1,40,-1
EndSplineSet
Validated: 1
EndChar

StartChar: eight
Encoding: 56 56 27
Width: 857
GlyphClass: 1
Flags: W
LayerCount: 2
Fore
SplineSet
223 73 m 1,0,-1
 223 210 l 1,1,-1
 361 210 l 1,2,-1
 361 73 l 1,3,-1
 223 73 l 1,0,-1
375 73 m 1,4,-1
 375 210 l 1,5,-1
 512 210 l 1,6,-1
 512 73 l 1,7,-1
 375 73 l 1,4,-1
526 73 m 1,8,-1
 526 210 l 1,9,-1
 664 210 l 1,10,-1
 664 73 l 1,11,-1
 526 73 l 1,8,-1
72 224 m 1,12,-1
 72 362 l 1,13,-1
 209 362 l 1,14,-1
 209 224 l 1,15,-1
 72 224 l 1,12,-1
678 224 m 1,16,-1
 678 362 l 1,17,-1
 816 362 l 1,18,-1
 816 224 l 1,19,-1
 678 224 l 1,16,-1
72 375 m 1,20,-1
 72 513 l 1,21,-1
 209 513 l 1,22,-1
 209 375 l 1,23,-1
 72 375 l 1,20,-1
678 376 m 1,24,-1
 678 514 l 1,25,-1
 816 514 l 1,26,-1
 816 376 l 1,27,-1
 678 376 l 1,24,-1
223 527 m 1,28,-1
 223 665 l 1,29,-1
 361 665 l 1,30,-1
 361 527 l 1,31,-1
 223 527 l 1,28,-1
375 527 m 1,32,-1
 375 665 l 1,33,-1
 512 665 l 1,34,-1
 512 527 l 1,35,-1
 375 527 l 1,32,-1
526 527 m 1,36,-1
 526 665 l 1,37,-1
 664 665 l 1,38,-1
 664 527 l 1,39,-1
 526 527 l 1,36,-1
72 679 m 1,40,-1
 72 816 l 1,41,-1
 209 816 l 1,42,-1
 209 679 l 1,43,-1
 72 679 l 1,40,-1
678 679 m 1,44,-1
 678 817 l 1,45,-1
 816 817 l 1,46,-1
 816 679 l 1,47,-1
 678 679 l 1,44,-1
72 830 m 1,48,-1
 72 968 l 1,49,-1
 209 968 l 1,50,-1
 209 830 l 1,51,-1
 72 830 l 1,48,-1
678 830 m 1,52,-1
 678 968 l 1,53,-1
 816 968 l 1,54,-1
 816 830 l 1,55,-1
 678 830 l 1,52,-1
223 982 m 1,56,-1
 223 1120 l 1,57,-1
 361 1120 l 1,58,-1
 361 982 l 1,59,-1
 223 982 l 1,56,-1
375 982 m 1,60,-1
 375 1120 l 1,61,-1
 512 1120 l 1,62,-1
 512 982 l 1,63,-1
 375 982 l 1,60,-1
526 982 m 1,64,-1
 526 1120 l 1,65,-1
 664 1120 l 1,66,-1
 664 982 l 1,67,-1
 526 982 l 1,64,-1
EndSplineSet
Validated: 1
EndChar

StartChar: nine
Encoding: 57 57 28
Width: 857
GlyphClass: 1
Flags: W
LayerCount: 2
Fore
SplineSet
223 73 m 1,0,-1
 223 210 l 1,1,-1
 361 210 l 1,2,-1
 361 73 l 1,3,-1
 223 73 l 1,0,-1
375 73 m 1,4,-1
 375 210 l 1,5,-1
 513 210 l 1,6,-1
 513 73 l 1,7,-1
 375 73 l 1,4,-1
527 224 m 1,8,-1
 527 362 l 1,9,-1
 665 362 l 1,10,-1
 665 224 l 1,11,-1
 527 224 l 1,8,-1
679 376 m 1,12,-1
 679 514 l 1,13,-1
 816 514 l 1,14,-1
 816 376 l 1,15,-1
 679 376 l 1,12,-1
223 527 m 1,16,-1
 223 665 l 1,17,-1
 361 665 l 1,18,-1
 361 527 l 1,19,-1
 223 527 l 1,16,-1
375 527 m 1,20,-1
 375 665 l 1,21,-1
 513 665 l 1,22,-1
 513 527 l 1,23,-1
 375 527 l 1,20,-1
527 527 m 1,24,-1
 527 665 l 1,25,-1
 665 665 l 1,26,-1
 665 527 l 1,27,-1
 527 527 l 1,24,-1
679 527 m 1,28,-1
 679 665 l 1,29,-1
 816 665 l 1,30,-1
 816 527 l 1,31,-1
 679 527 l 1,28,-1
72 679 m 1,32,-1
 72 816 l 1,33,-1
 210 816 l 1,34,-1
 210 679 l 1,35,-1
 72 679 l 1,32,-1
678 679 m 1,36,-1
 678 817 l 1,37,-1
 816 817 l 1,38,-1
 816 679 l 1,39,-1
 678 679 l 1,36,-1
72 830 m 1,40,-1
 72 968 l 1,41,-1
 210 968 l 1,42,-1
 210 830 l 1,43,-1
 72 830 l 1,40,-1
678 830 m 1,44,-1
 678 968 l 1,45,-1
 816 968 l 1,46,-1
 816 830 l 1,47,-1
 678 830 l 1,44,-1
223 982 m 1,48,-1
 223 1120 l 1,49,-1
 361 1120 l 1,50,-1
 361 982 l 1,51,-1
 223 982 l 1,48,-1
375 982 m 1,52,-1
 375 1120 l 1,53,-1
 513 1120 l 1,54,-1
 513 982 l 1,55,-1
 375 982 l 1,52,-1
527 982 m 1,56,-1
 527 1120 l 1,57,-1
 665 1120 l 1,58,-1
 665 982 l 1,59,-1
 527 982 l 1,56,-1
EndSplineSet
Validated: 1
EndChar

StartChar: colon
Encoding: 59 59 29
Width: 857
GlyphClass: 1
Flags: W
LayerCount: 2
Fore
SplineSet
224 224 m 1,0,-1
 224 362 l 1,1,-1
 361 362 l 1,2,-1
 361 224 l 1,3,-1
 224 224 l 1,0,-1
375 224 m 1,4,-1
 375 362 l 1,5,-1
 513 362 l 1,6,-1
 513 224 l 1,7,-1
 375 224 l 1,4,-1
224 376 m 1,8,-1
 224 514 l 1,9,-1
 361 514 l 1,10,-1
 361 376 l 1,11,-1
 224 376 l 1,8,-1
375 376 m 1,12,-1
 375 514 l 1,13,-1
 513 514 l 1,14,-1
 513 376 l 1,15,-1
 375 376 l 1,12,-1
224 679 m 1,16,-1
 224 816 l 1,17,-1
 361 816 l 1,18,-1
 361 679 l 1,19,-1
 224 679 l 1,16,-1
375 679 m 1,20,-1
 375 817 l 1,21,-1
 513 817 l 1,22,-1
 513 679 l 1,23,-1
 375 679 l 1,20,-1
224 830 m 1,24,-1
 224 969 l 1,25,-1
 361 969 l 1,26,-1
 361 830 l 1,27,-1
 224 830 l 1,24,-1
375 830 m 1,28,-1
 375 969 l 1,29,-1
 513 969 l 1,30,-1
 513 830 l 1,31,-1
 375 830 l 1,28,-1
375 74 m 1,32,-1
 375 211 l 1,33,-1
 513 211 l 1,34,-1
 513 74 l 1,35,-1
 375 74 l 1,32,-1
224 -73 m 1,36,-1
 224 64 l 1,37,-1
 362 64 l 1,38,-1
 362 -73 l 1,39,-1
 224 -73 l 1,36,-1
EndSplineSet
Validated: 1
EndChar

StartChar: semicolon
Encoding: 58 58 30
Width: 857
GlyphClass: 1
Flags: W
LayerCount: 2
Fore
SplineSet
224 224 m 1,0,-1
 224 362 l 1,1,-1
 361 362 l 1,2,-1
 361 224 l 1,3,-1
 224 224 l 1,0,-1
375 224 m 1,4,-1
 375 362 l 1,5,-1
 513 362 l 1,6,-1
 513 224 l 1,7,-1
 375 224 l 1,4,-1
224 376 m 1,8,-1
 224 514 l 1,9,-1
 361 514 l 1,10,-1
 361 376 l 1,11,-1
 224 376 l 1,8,-1
375 376 m 1,12,-1
 375 514 l 1,13,-1
 513 514 l 1,14,-1
 513 376 l 1,15,-1
 375 376 l 1,12,-1
224 679 m 1,16,-1
 224 816 l 1,17,-1
 361 816 l 1,18,-1
 361 679 l 1,19,-1
 224 679 l 1,16,-1
375 679 m 1,20,-1
 375 817 l 1,21,-1
 513 817 l 1,22,-1
 513 679 l 1,23,-1
 375 679 l 1,20,-1
224 830 m 1,24,-1
 224 969 l 1,25,-1
 361 969 l 1,26,-1
 361 830 l 1,27,-1
 224 830 l 1,24,-1
375 830 m 1,28,-1
 375 969 l 1,29,-1
 513 969 l 1,30,-1
 513 830 l 1,31,-1
 375 830 l 1,28,-1
EndSplineSet
Validated: 1
EndChar

StartChar: less
Encoding: 60 60 31
Width: 857
GlyphClass: 1
Flags: W
LayerCount: 2
Fore
SplineSet
527 73 m 1,0,-1
 527 210 l 1,1,-1
 664 210 l 1,2,-1
 664 73 l 1,3,-1
 527 73 l 1,0,-1
375 224 m 1,4,-1
 375 362 l 1,5,-1
 513 362 l 1,6,-1
 513 224 l 1,7,-1
 375 224 l 1,4,-1
223 376 m 1,8,-1
 223 514 l 1,9,-1
 361 514 l 1,10,-1
 361 376 l 1,11,-1
 223 376 l 1,8,-1
72 527 m 1,12,-1
 72 665 l 1,13,-1
 210 665 l 1,14,-1
 210 527 l 1,15,-1
 72 527 l 1,12,-1
223 679 m 1,16,-1
 223 817 l 1,17,-1
 361 817 l 1,18,-1
 361 679 l 1,19,-1
 223 679 l 1,16,-1
375 830 m 1,20,-1
 375 968 l 1,21,-1
 513 968 l 1,22,-1
 513 830 l 1,23,-1
 375 830 l 1,20,-1
526 982 m 1,24,-1
 526 1120 l 1,25,-1
 664 1120 l 1,26,-1
 664 982 l 1,27,-1
 526 982 l 1,24,-1
EndSplineSet
Validated: 1
EndChar

StartChar: equal
Encoding: 61 61 32
Width: 857
GlyphClass: 1
Flags: W
LayerCount: 2
Fore
SplineSet
72 376 m 1,0,-1
 72 513 l 1,1,-1
 210 513 l 1,2,-1
 210 376 l 1,3,-1
 72 376 l 1,0,-1
223 376 m 1,4,-1
 223 514 l 1,5,-1
 361 514 l 1,6,-1
 361 376 l 1,7,-1
 223 376 l 1,4,-1
375 376 m 1,8,-1
 375 514 l 1,9,-1
 513 514 l 1,10,-1
 513 376 l 1,11,-1
 375 376 l 1,8,-1
526 376 m 1,12,-1
 526 514 l 1,13,-1
 664 514 l 1,14,-1
 664 376 l 1,15,-1
 526 376 l 1,12,-1
678 376 m 1,16,-1
 678 514 l 1,17,-1
 816 514 l 1,18,-1
 816 376 l 1,19,-1
 678 376 l 1,16,-1
72 679 m 1,20,-1
 72 817 l 1,21,-1
 210 817 l 1,22,-1
 210 679 l 1,23,-1
 72 679 l 1,20,-1
223 679 m 1,24,-1
 223 817 l 1,25,-1
 361 817 l 1,26,-1
 361 679 l 1,27,-1
 223 679 l 1,24,-1
375 679 m 1,28,-1
 375 817 l 1,29,-1
 512 817 l 1,30,-1
 512 679 l 1,31,-1
 375 679 l 1,28,-1
526 679 m 1,32,-1
 526 817 l 1,33,-1
 664 817 l 1,34,-1
 664 679 l 1,35,-1
 526 679 l 1,32,-1
678 679 m 1,36,-1
 678 817 l 1,37,-1
 816 817 l 1,38,-1
 816 679 l 1,39,-1
 678 679 l 1,36,-1
EndSplineSet
Validated: 1
EndChar

StartChar: greater
Encoding: 62 62 33
Width: 857
GlyphClass: 1
Flags: W
LayerCount: 2
Fore
SplineSet
72 73 m 1,0,-1
 72 210 l 1,1,-1
 210 210 l 1,2,-1
 210 73 l 1,3,-1
 72 73 l 1,0,-1
223 224 m 1,4,-1
 223 362 l 1,5,-1
 361 362 l 1,6,-1
 361 224 l 1,7,-1
 223 224 l 1,4,-1
375 376 m 1,8,-1
 375 514 l 1,9,-1
 513 514 l 1,10,-1
 513 376 l 1,11,-1
 375 376 l 1,8,-1
527 527 m 1,12,-1
 527 665 l 1,13,-1
 664 665 l 1,14,-1
 664 527 l 1,15,-1
 527 527 l 1,12,-1
375 679 m 1,16,-1
 375 817 l 1,17,-1
 513 817 l 1,18,-1
 513 679 l 1,19,-1
 375 679 l 1,16,-1
223 830 m 1,20,-1
 223 968 l 1,21,-1
 361 968 l 1,22,-1
 361 830 l 1,23,-1
 223 830 l 1,20,-1
72 982 m 1,24,-1
 72 1120 l 1,25,-1
 210 1120 l 1,26,-1
 210 982 l 1,27,-1
 72 982 l 1,24,-1
EndSplineSet
Validated: 1
EndChar

StartChar: question
Encoding: 63 63 34
Width: 857
GlyphClass: 1
Flags: W
LayerCount: 2
Fore
SplineSet
375 73 m 1,0,-1
 375 210 l 1,1,-1
 513 210 l 1,2,-1
 513 73 l 1,3,-1
 375 73 l 1,0,-1
375 376 m 1,4,-1
 375 514 l 1,5,-1
 512 514 l 1,6,-1
 512 376 l 1,7,-1
 375 376 l 1,4,-1
526 527 m 1,8,-1
 526 665 l 1,9,-1
 664 665 l 1,10,-1
 664 527 l 1,11,-1
 526 527 l 1,8,-1
678 679 m 1,12,-1
 678 817 l 1,13,-1
 816 817 l 1,14,-1
 816 679 l 1,15,-1
 678 679 l 1,12,-1
72 830 m 1,16,-1
 72 968 l 1,17,-1
 210 968 l 1,18,-1
 210 830 l 1,19,-1
 72 830 l 1,16,-1
678 830 m 1,20,-1
 678 968 l 1,21,-1
 816 968 l 1,22,-1
 816 830 l 1,23,-1
 678 830 l 1,20,-1
223 982 m 1,24,-1
 223 1120 l 1,25,-1
 361 1120 l 1,26,-1
 361 982 l 1,27,-1
 223 982 l 1,24,-1
375 982 m 1,28,-1
 375 1120 l 1,29,-1
 512 1120 l 1,30,-1
 512 982 l 1,31,-1
 375 982 l 1,28,-1
526 982 m 1,32,-1
 526 1120 l 1,33,-1
 664 1120 l 1,34,-1
 664 982 l 1,35,-1
 526 982 l 1,32,-1
EndSplineSet
Validated: 1
EndChar

StartChar: at
Encoding: 64 64 35
Width: 857
GlyphClass: 1
Flags: W
LayerCount: 2
Fore
SplineSet
223 73 m 1,0,-1
 223 210 l 1,1,-1
 361 210 l 1,2,-1
 361 73 l 1,3,-1
 223 73 l 1,0,-1
375 73 m 1,4,-1
 375 210 l 1,5,-1
 512 210 l 1,6,-1
 512 73 l 1,7,-1
 375 73 l 1,4,-1
526 73 m 1,8,-1
 526 210 l 1,9,-1
 664 210 l 1,10,-1
 664 73 l 1,11,-1
 526 73 l 1,8,-1
72 224 m 1,12,-1
 72 361 l 1,13,-1
 209 361 l 1,14,-1
 209 224 l 1,15,-1
 72 224 l 1,12,-1
678 224 m 1,16,-1
 678 362 l 1,17,-1
 816 362 l 1,18,-1
 816 224 l 1,19,-1
 678 224 l 1,16,-1
72 375 m 1,20,-1
 72 513 l 1,21,-1
 209 513 l 1,22,-1
 209 375 l 1,23,-1
 72 375 l 1,20,-1
375 375 m 1,24,-1
 375 513 l 1,25,-1
 512 513 l 1,26,-1
 512 375 l 1,27,-1
 375 375 l 1,24,-1
526 376 m 1,28,-1
 526 514 l 1,29,-1
 664 514 l 1,30,-1
 664 376 l 1,31,-1
 526 376 l 1,28,-1
72 527 m 1,32,-1
 72 665 l 1,33,-1
 209 665 l 1,34,-1
 209 527 l 1,35,-1
 72 527 l 1,32,-1
375 527 m 1,36,-1
 375 665 l 1,37,-1
 512 665 l 1,38,-1
 512 527 l 1,39,-1
 375 527 l 1,36,-1
678 527 m 1,40,-1
 678 665 l 1,41,-1
 816 665 l 1,42,-1
 816 527 l 1,43,-1
 678 527 l 1,40,-1
72 678 m 1,44,-1
 72 816 l 1,45,-1
 209 816 l 1,46,-1
 209 678 l 1,47,-1
 72 678 l 1,44,-1
375 679 m 1,48,-1
 375 816 l 1,49,-1
 512 816 l 1,50,-1
 512 679 l 1,51,-1
 375 679 l 1,48,-1
526 679 m 1,52,-1
 526 816 l 1,53,-1
 664 816 l 1,54,-1
 664 679 l 1,55,-1
 526 679 l 1,52,-1
678 679 m 1,56,-1
 678 817 l 1,57,-1
 816 817 l 1,58,-1
 816 679 l 1,59,-1
 678 679 l 1,56,-1
72 830 m 1,60,-1
 72 968 l 1,61,-1
 209 968 l 1,62,-1
 209 830 l 1,63,-1
 72 830 l 1,60,-1
678 830 m 1,64,-1
 678 968 l 1,65,-1
 816 968 l 1,66,-1
 816 830 l 1,67,-1
 678 830 l 1,64,-1
223 981 m 1,68,-1
 223 1120 l 1,69,-1
 361 1120 l 1,70,-1
 361 981 l 1,71,-1
 223 981 l 1,68,-1
375 982 m 1,72,-1
 375 1120 l 1,73,-1
 512 1120 l 1,74,-1
 512 982 l 1,75,-1
 375 982 l 1,72,-1
526 982 m 1,76,-1
 526 1120 l 1,77,-1
 664 1120 l 1,78,-1
 664 982 l 1,79,-1
 526 982 l 1,76,-1
EndSplineSet
Validated: 1
EndChar

StartChar: A
Encoding: 65 65 36
Width: 857
GlyphClass: 1
Flags: W
LayerCount: 2
Fore
SplineSet
806 1112 m 5,0,-1
 954 1112 l 1,1,-1
 954 996 l 1,2,-1
 806 996 l 1,3,-1
 806 1112 l 5,0,-1
766 1208 m 1,4,-1
 857 1208 l 1,5,-1
 857 1124 l 1,6,-1
 766 1124 l 1,7,-1
 766 1208 l 1,4,-1
702 80 m 1,8,-1
 834 80 l 1,9,-1
 834 -28 l 1,10,-1
 702 -28 l 1,11,-1
 702 80 l 1,8,-1
-62 136 m 1,12,-1
 114 136 l 1,13,-1
 114 0 l 1,14,-1
 -62 0 l 1,15,-1
 -62 136 l 1,12,-1
22 1056 m 1,16,-1
 150 1056 l 1,17,-1
 150 944 l 1,18,-1
 22 944 l 1,19,-1
 22 1056 l 1,16,-1
-118 1180 m 1,20,-1
 22 1180 l 1,21,-1
 22 1056 l 1,22,-1
 -118 1056 l 1,23,-1
 -118 1180 l 1,20,-1
774 368 m 1,24,-1
 857 368 l 1,25,-1
 857 292 l 1,26,-1
 774 292 l 1,27,-1
 774 368 l 1,24,-1
638 540 m 1,28,-1
 782 540 l 1,29,-1
 782 428 l 1,30,-1
 638 428 l 1,31,-1
 638 540 l 1,28,-1
486 668 m 1,32,-1
 618 668 l 1,33,-1
 618 584 l 1,34,-1
 486 584 l 1,35,-1
 486 668 l 1,32,-1
370 860 m 1,36,-1
 502 860 l 1,37,-1
 502 700 l 1,38,-1
 370 700 l 1,39,-1
 370 860 l 1,36,-1
250 1044 m 1,40,-1
 390 1044 l 1,41,-1
 390 928 l 1,42,-1
 250 928 l 1,43,-1
 250 1044 l 1,40,-1
670 908 m 1,44,-1
 670 832 l 1,45,-1
 610 832 l 1,46,-1
 610 908 l 1,47,-1
 670 908 l 1,44,-1
650 776 m 1,48,-1
 650 696 l 1,49,-1
 566 696 l 1,50,-1
 566 776 l 1,51,-1
 650 776 l 1,48,-1
554 640 m 1,52,-1
 554 536 l 1,53,-1
 442 536 l 1,54,-1
 442 640 l 1,55,-1
 554 640 l 1,52,-1
194 848 m 1,56,-1
 98 848 l 1,57,-1
 98 960 l 1,58,-1
 194 960 l 1,59,-1
 194 848 l 1,56,-1
730 1112 m 1,60,-1
 806 1112 l 1,61,-1
 806 1004 l 1,62,-1
 730 1004 l 1,63,-1
 730 1112 l 1,60,-1
670 992 m 1,64,-1
 750 992 l 1,65,-1
 750 908 l 1,66,-1
 670 908 l 1,67,-1
 670 992 l 1,64,-1
570 840 m 1,68,-1
 670 840 l 1,69,-1
 670 720 l 1,70,-1
 570 720 l 1,71,-1
 570 840 l 1,68,-1
502 700 m 1,72,-1
 594 700 l 1,73,-1
 594 612 l 1,74,-1
 502 612 l 1,75,-1
 502 700 l 1,72,-1
430 560 m 1,76,-1
 542 560 l 1,77,-1
 542 436 l 1,78,-1
 430 436 l 1,79,-1
 430 560 l 1,76,-1
298 432 m 1,80,-1
 394 432 l 1,81,-1
 394 296 l 1,82,-1
 298 296 l 1,83,-1
 298 432 l 1,80,-1
206 320 m 1,84,-1
 302 320 l 1,85,-1
 302 232 l 1,86,-1
 206 232 l 1,87,-1
 206 320 l 1,84,-1
106 216 m 1,88,-1
 238 216 l 1,89,-1
 238 100 l 1,90,-1
 106 100 l 1,91,-1
 106 216 l 1,88,-1
554 172 m 1,92,-1
 674 172 l 1,93,-1
 674 20 l 1,94,-1
 554 20 l 1,95,-1
 554 172 l 1,92,-1
430 368 m 1,96,-1
 534 368 l 1,97,-1
 534 220 l 1,98,-1
 430 220 l 1,99,-1
 430 368 l 1,96,-1
346 560 m 1,100,-1
 430 560 l 1,101,-1
 430 444 l 1,102,-1
 346 444 l 1,103,-1
 346 560 l 1,100,-1
234 736 m 1,104,-1
 338 736 l 1,105,-1
 338 600 l 1,106,-1
 234 600 l 1,107,-1
 234 736 l 1,104,-1
122 876 m 1,108,-1
 234 876 l 1,109,-1
 234 736 l 1,110,-1
 122 736 l 1,111,-1
 122 876 l 1,108,-1
70 1008 m 1,112,-1
 150 1008 l 1,113,-1
 150 912 l 1,114,-1
 70 912 l 1,115,-1
 70 1008 l 1,112,-1
72 73 m 1,116,-1
 72 210 l 1,117,-1
 209 210 l 1,118,-1
 209 73 l 1,119,-1
 72 73 l 1,116,-1
678 73 m 1,120,-1
 678 210 l 1,121,-1
 816 210 l 1,122,-1
 816 73 l 1,123,-1
 678 73 l 1,120,-1
72 224 m 1,124,-1
 72 362 l 1,125,-1
 209 362 l 1,126,-1
 209 224 l 1,127,-1
 72 224 l 1,124,-1
678 224 m 1,128,-1
 678 362 l 1,129,-1
 816 362 l 1,130,-1
 816 224 l 1,131,-1
 678 224 l 1,128,-1
72 375 m 1,132,-1
 72 513 l 1,133,-1
 209 513 l 1,134,-1
 209 375 l 1,135,-1
 72 375 l 1,132,-1
223 375 m 1,136,-1
 223 513 l 1,137,-1
 361 513 l 1,138,-1
 361 375 l 1,139,-1
 223 375 l 1,136,-1
375 376 m 1,140,-1
 375 513 l 1,141,-1
 512 513 l 1,142,-1
 512 376 l 1,143,-1
 375 376 l 1,140,-1
526 376 m 1,144,-1
 526 514 l 1,145,-1
 664 514 l 1,146,-1
 664 376 l 1,147,-1
 526 376 l 1,144,-1
678 376 m 1,148,-1
 678 514 l 1,149,-1
 816 514 l 1,150,-1
 816 376 l 1,151,-1
 678 376 l 1,148,-1
72 527 m 1,152,-1
 72 665 l 1,153,-1
 209 665 l 1,154,-1
 209 527 l 1,155,-1
 72 527 l 1,152,-1
678 527 m 1,156,-1
 678 665 l 1,157,-1
 816 665 l 1,158,-1
 816 527 l 1,159,-1
 678 527 l 1,156,-1
72 679 m 1,160,-1
 72 816 l 1,161,-1
 209 816 l 1,162,-1
 209 679 l 1,163,-1
 72 679 l 1,160,-1
678 679 m 1,164,-1
 678 817 l 1,165,-1
 816 817 l 1,166,-1
 816 679 l 1,167,-1
 678 679 l 1,164,-1
223 830 m 1,168,-1
 223 968 l 1,169,-1
 360 968 l 1,170,-1
 360 830 l 1,171,-1
 223 830 l 1,168,-1
526 832 m 1,172,-1
 526 970 l 1,173,-1
 664 970 l 1,174,-1
 664 832 l 1,175,-1
 526 832 l 1,172,-1
375 982 m 1,176,-1
 375 1120 l 1,177,-1
 512 1120 l 1,178,-1
 512 982 l 1,179,-1
 375 982 l 1,176,-1
EndSplineSet
Validated: 3077
EndChar

StartChar: B
Encoding: 66 66 37
Width: 857
GlyphClass: 1
Flags: W
LayerCount: 2
Fore
SplineSet
802 1160 m 5,0,-1
 950 1160 l 1,1,-1
 950 1112 l 1,2,-1
 802 1112 l 1,3,-1
 802 1160 l 5,0,-1
730 1064 m 1,4,-1
 857 1064 l 1,5,-1
 857 944 l 1,6,-1
 730 944 l 1,7,-1
 730 1064 l 1,4,-1
126 224 m 1,8,-1
 222 224 l 1,9,-1
 222 148 l 1,10,-1
 126 148 l 1,11,-1
 126 224 l 1,8,-1
22 136 m 1,12,-1
 138 136 l 1,13,-1
 138 64 l 1,14,-1
 22 64 l 1,15,-1
 22 136 l 1,12,-1
-138 88 m 1,16,-1
 54 88 l 1,17,-1
 54 -20 l 1,18,-1
 -138 -20 l 1,19,-1
 -138 88 l 1,16,-1
786 40 m 1,20,-1
 922 40 l 1,21,-1
 922 -48 l 1,22,-1
 786 -48 l 1,23,-1
 786 40 l 1,20,-1
674 180 m 1,24,-1
 826 180 l 1,25,-1
 826 40 l 1,26,-1
 674 40 l 1,27,-1
 674 180 l 1,24,-1
0 1108 m 1,28,-1
 154 1108 l 1,29,-1
 154 1016 l 1,30,-1
 0 1016 l 1,31,-1
 0 1108 l 1,28,-1
-54 1196 m 1,32,-1
 78 1196 l 1,33,-1
 78 1080 l 1,34,-1
 -54 1080 l 1,35,-1
 -54 1196 l 1,32,-1
806 332 m 1,36,-1
 882 332 l 1,37,-1
 882 228 l 1,38,-1
 806 228 l 1,39,-1
 806 332 l 1,36,-1
726 456 m 1,40,-1
 816 456 l 1,41,-1
 816 362 l 1,42,-1
 726 362 l 1,43,-1
 726 456 l 1,40,-1
638 644 m 1,44,-1
 690 644 l 1,45,-1
 690 552 l 1,46,-1
 638 552 l 1,47,-1
 638 644 l 1,44,-1
534 816 m 1,48,-1
 622 816 l 1,49,-1
 622 700 l 1,50,-1
 534 700 l 1,51,-1
 534 816 l 1,48,-1
446 964 m 1,52,-1
 522 964 l 1,53,-1
 522 876 l 1,54,-1
 446 876 l 1,55,-1
 446 964 l 1,52,-1
318 1144 m 1,56,-1
 442 1144 l 1,57,-1
 442 1000 l 1,58,-1
 318 1000 l 1,59,-1
 318 1144 l 1,56,-1
223 982 m 1,60,-1
 146 982 l 1,61,-1
 146 1116 l 1,62,-1
 223 1116 l 1,63,-1
 223 982 l 1,60,-1
386 764 m 1,64,-1
 258 764 l 1,65,-1
 258 928 l 1,66,-1
 386 928 l 1,67,-1
 386 764 l 1,64,-1
530 480 m 1,68,-1
 382 480 l 1,69,-1
 382 628 l 1,70,-1
 530 628 l 1,71,-1
 530 480 l 1,68,-1
658 264 m 1,72,-1
 498 264 l 1,73,-1
 498 416 l 1,74,-1
 658 416 l 1,75,-1
 658 264 l 1,72,-1
674 24 m 1,76,-1
 514 24 l 1,77,-1
 514 180 l 1,78,-1
 674 180 l 1,79,-1
 674 24 l 1,76,-1
330 216 m 1,80,-1
 466 216 l 1,81,-1
 466 76 l 1,82,-1
 330 76 l 1,83,-1
 330 216 l 1,80,-1
178 440 m 1,84,-1
 318 440 l 1,85,-1
 318 276 l 1,86,-1
 178 276 l 1,87,-1
 178 440 l 1,84,-1
42 628 m 1,88,-1
 174 628 l 1,89,-1
 174 496 l 1,90,-1
 42 496 l 1,91,-1
 42 628 l 1,88,-1
-90 788 m 1,92,-1
 46 788 l 1,93,-1
 46 668 l 1,94,-1
 -90 668 l 1,95,-1
 -90 788 l 1,92,-1
72 73 m 1,96,-1
 72 210 l 1,97,-1
 209 210 l 1,98,-1
 209 73 l 1,99,-1
 72 73 l 1,96,-1
223 73 m 1,100,-1
 223 210 l 1,101,-1
 361 210 l 1,102,-1
 361 73 l 1,103,-1
 223 73 l 1,100,-1
375 73 m 1,104,-1
 375 210 l 1,105,-1
 512 210 l 1,106,-1
 512 73 l 1,107,-1
 375 73 l 1,104,-1
526 73 m 1,108,-1
 526 210 l 1,109,-1
 664 210 l 1,110,-1
 664 73 l 1,111,-1
 526 73 l 1,108,-1
72 224 m 1,112,-1
 72 361 l 1,113,-1
 209 361 l 1,114,-1
 209 224 l 1,115,-1
 72 224 l 1,112,-1
678 224 m 1,116,-1
 678 362 l 1,117,-1
 816 362 l 1,118,-1
 816 224 l 1,119,-1
 678 224 l 1,116,-1
72 375 m 1,120,-1
 72 513 l 1,121,-1
 209 513 l 1,122,-1
 209 375 l 1,123,-1
 72 375 l 1,120,-1
678 376 m 1,124,-1
 678 514 l 1,125,-1
 816 514 l 1,126,-1
 816 376 l 1,127,-1
 678 376 l 1,124,-1
72 527 m 1,128,-1
 72 665 l 1,129,-1
 209 665 l 1,130,-1
 209 527 l 1,131,-1
 72 527 l 1,128,-1
223 527 m 1,132,-1
 223 665 l 1,133,-1
 361 665 l 1,134,-1
 361 527 l 1,135,-1
 223 527 l 1,132,-1
375 527 m 1,136,-1
 375 665 l 1,137,-1
 512 665 l 1,138,-1
 512 527 l 1,139,-1
 375 527 l 1,136,-1
526 527 m 1,140,-1
 526 665 l 1,141,-1
 664 665 l 1,142,-1
 664 527 l 1,143,-1
 526 527 l 1,140,-1
72 678 m 1,144,-1
 72 816 l 1,145,-1
 209 816 l 1,146,-1
 209 678 l 1,147,-1
 72 678 l 1,144,-1
678 679 m 1,148,-1
 678 817 l 1,149,-1
 816 817 l 1,150,-1
 816 679 l 1,151,-1
 678 679 l 1,148,-1
72 830 m 1,152,-1
 72 968 l 1,153,-1
 209 968 l 1,154,-1
 209 830 l 1,155,-1
 72 830 l 1,152,-1
678 830 m 1,156,-1
 678 968 l 1,157,-1
 816 968 l 1,158,-1
 816 830 l 1,159,-1
 678 830 l 1,156,-1
72 981 m 1,160,-1
 72 1120 l 1,161,-1
 209 1120 l 1,162,-1
 209 981 l 1,163,-1
 72 981 l 1,160,-1
223 982 m 1,164,-1
 223 1120 l 1,165,-1
 361 1120 l 1,166,-1
 361 982 l 1,167,-1
 223 982 l 1,164,-1
375 982 m 1,168,-1
 375 1120 l 1,169,-1
 512 1120 l 1,170,-1
 512 982 l 1,171,-1
 375 982 l 1,168,-1
526 982 m 1,172,-1
 526 1120 l 1,173,-1
 664 1120 l 1,174,-1
 664 982 l 1,175,-1
 526 982 l 1,172,-1
EndSplineSet
Validated: 3077
EndChar

StartChar: C
Encoding: 67 67 38
Width: 857
GlyphClass: 1
Flags: W
LayerCount: 2
Fore
SplineSet
857 1120 m 5,0,-1
 1034 1120 l 1,1,-1
 1034 1004 l 1,2,-1
 857 1004 l 1,3,-1
 857 1120 l 5,0,-1
770 1032 m 1,4,-1
 946 1032 l 1,5,-1
 946 912 l 1,6,-1
 770 912 l 1,7,-1
 770 1032 l 1,4,-1
582 820 m 1,8,-1
 742 820 l 1,9,-1
 742 704 l 1,10,-1
 582 704 l 1,11,-1
 582 820 l 1,8,-1
-86 820 m 1,12,-1
 50 820 l 1,13,-1
 50 704 l 1,14,-1
 -86 704 l 1,15,-1
 -86 820 l 1,12,-1
30 748 m 1,16,-1
 218 748 l 1,17,-1
 218 604 l 1,18,-1
 30 604 l 1,19,-1
 30 748 l 1,16,-1
-178 920 m 1,20,-1
 -34 920 l 1,21,-1
 -34 816 l 1,22,-1
 -178 816 l 1,23,-1
 -178 920 l 1,20,-1
22 80 m 1,24,-1
 22 64 l 1,25,-1
 -14 64 l 1,26,-1
 -14 80 l 1,27,-1
 22 80 l 1,24,-1
138 180 m 1,28,-1
 138 156 l 1,29,-1
 0 156 l 1,30,-1
 0 180 l 1,31,-1
 138 180 l 1,28,-1
210 224 m 1,32,-1
 210 220 l 1,33,-1
 134 220 l 1,34,-1
 134 224 l 1,35,-1
 210 224 l 1,32,-1
198 316 m 1,36,-1
 198 296 l 1,37,-1
 114 296 l 1,38,-1
 114 316 l 1,39,-1
 198 316 l 1,36,-1
214 400 m 1,40,-1
 214 364 l 1,41,-1
 114 364 l 1,42,-1
 114 400 l 1,43,-1
 214 400 l 1,40,-1
266 488 m 1,44,-1
 266 460 l 1,45,-1
 210 460 l 1,46,-1
 210 488 l 1,47,-1
 266 488 l 1,44,-1
318 576 m 1,48,-1
 318 536 l 1,49,-1
 238 536 l 1,50,-1
 238 576 l 1,51,-1
 318 576 l 1,48,-1
394 708 m 1,52,-1
 394 664 l 1,53,-1
 290 664 l 1,54,-1
 290 708 l 1,55,-1
 394 708 l 1,52,-1
394 772 m 1,56,-1
 394 736 l 1,57,-1
 326 736 l 1,58,-1
 326 772 l 1,59,-1
 394 772 l 1,56,-1
602 1012 m 1,60,-1
 602 884 l 1,61,-1
 374 884 l 1,62,-1
 374 1012 l 1,63,-1
 602 1012 l 1,60,-1
574 148 m 1,64,-1
 574 73 l 1,65,-1
 513 73 l 1,66,-1
 513 148 l 1,67,-1
 574 148 l 1,64,-1
574 192 m 1,68,-1
 574 148 l 1,69,-1
 470 148 l 1,70,-1
 470 192 l 1,71,-1
 574 192 l 1,68,-1
450 276 m 1,72,-1
 450 210 l 1,73,-1
 361 210 l 1,74,-1
 361 276 l 1,75,-1
 450 276 l 1,72,-1
378 364 m 1,76,-1
 378 324 l 1,77,-1
 318 324 l 1,78,-1
 318 364 l 1,79,-1
 378 364 l 1,76,-1
330 444 m 1,80,-1
 330 384 l 1,81,-1
 242 384 l 1,82,-1
 242 444 l 1,83,-1
 330 444 l 1,80,-1
238 536 m 1,84,-1
 238 484 l 1,85,-1
 174 484 l 1,86,-1
 174 536 l 1,87,-1
 238 536 l 1,84,-1
222 644 m 1,88,-1
 222 572 l 1,89,-1
 138 572 l 1,90,-1
 138 644 l 1,91,-1
 222 644 l 1,88,-1
138 704 m 1,92,-1
 138 644 l 1,93,-1
 50 644 l 1,94,-1
 50 704 l 1,95,-1
 138 704 l 1,92,-1
34 816 m 1,96,-1
 34 712 l 1,97,-1
 -34 712 l 1,98,-1
 -34 816 l 1,99,-1
 34 816 l 1,96,-1
816 224 m 1,100,-1
 816 140 l 1,101,-1
 706 140 l 1,102,-1
 706 224 l 1,103,-1
 816 224 l 1,100,-1
742 304 m 1,104,-1
 742 224 l 1,105,-1
 622 224 l 1,106,-1
 622 304 l 1,107,-1
 742 304 l 1,104,-1
654 428 m 1,108,-1
 654 348 l 1,109,-1
 566 348 l 1,110,-1
 566 428 l 1,111,-1
 654 428 l 1,108,-1
614 540 m 1,112,-1
 614 464 l 1,113,-1
 526 464 l 1,114,-1
 526 540 l 1,115,-1
 614 540 l 1,112,-1
522 676 m 1,116,-1
 522 540 l 1,117,-1
 458 540 l 1,118,-1
 458 676 l 1,119,-1
 522 676 l 1,116,-1
522 740 m 1,120,-1
 522 676 l 1,121,-1
 434 676 l 1,122,-1
 434 740 l 1,123,-1
 522 740 l 1,120,-1
430 812 m 1,124,-1
 430 732 l 1,125,-1
 370 732 l 1,126,-1
 370 812 l 1,127,-1
 430 812 l 1,124,-1
374 884 m 1,128,-1
 374 812 l 1,129,-1
 290 812 l 1,130,-1
 290 884 l 1,131,-1
 374 884 l 1,128,-1
338 988 m 1,132,-1
 338 924 l 1,133,-1
 270 924 l 1,134,-1
 270 988 l 1,135,-1
 338 988 l 1,132,-1
278 1096 m 1,136,-1
 278 984 l 1,137,-1
 162 984 l 1,138,-1
 162 1096 l 1,139,-1
 278 1096 l 1,136,-1
738 992 m 1,140,-1
 738 904 l 1,141,-1
 674 904 l 1,142,-1
 674 992 l 1,143,-1
 738 992 l 1,140,-1
714 872 m 1,144,-1
 714 776 l 1,145,-1
 626 776 l 1,146,-1
 626 872 l 1,147,-1
 714 872 l 1,144,-1
642 740 m 1,148,-1
 642 632 l 1,149,-1
 522 632 l 1,150,-1
 522 740 l 1,151,-1
 642 740 l 1,148,-1
578 696 m 1,152,-1
 578 588 l 1,153,-1
 494 588 l 1,154,-1
 494 696 l 1,155,-1
 578 696 l 1,152,-1
494 588 m 1,156,-1
 494 492 l 1,157,-1
 422 492 l 1,158,-1
 422 588 l 1,159,-1
 494 588 l 1,156,-1
422 492 m 1,160,-1
 422 400 l 1,161,-1
 334 400 l 1,162,-1
 334 492 l 1,163,-1
 422 492 l 1,160,-1
358 396 m 1,164,-1
 358 280 l 1,165,-1
 270 280 l 1,166,-1
 270 396 l 1,167,-1
 358 396 l 1,164,-1
294 276 m 1,168,-1
 294 188 l 1,169,-1
 202 188 l 1,170,-1
 202 276 l 1,171,-1
 294 276 l 1,168,-1
223 210 m 1,172,-1
 223 140 l 1,173,-1
 98 140 l 1,174,-1
 98 210 l 1,175,-1
 223 210 l 1,172,-1
98 140 m 1,176,-1
 98 20 l 1,177,-1
 -34 20 l 1,178,-1
 -34 140 l 1,179,-1
 98 140 l 1,176,-1
223 73 m 1,180,-1
 223 210 l 1,181,-1
 361 210 l 1,182,-1
 361 73 l 1,183,-1
 223 73 l 1,180,-1
375 73 m 1,184,-1
 375 210 l 1,185,-1
 513 210 l 1,186,-1
 513 73 l 1,187,-1
 375 73 l 1,184,-1
526 73 m 1,188,-1
 526 210 l 1,189,-1
 664 210 l 1,190,-1
 664 73 l 1,191,-1
 526 73 l 1,188,-1
72 224 m 1,192,-1
 72 362 l 1,193,-1
 210 362 l 1,194,-1
 210 224 l 1,195,-1
 72 224 l 1,192,-1
678 224 m 1,196,-1
 678 362 l 1,197,-1
 816 362 l 1,198,-1
 816 224 l 1,199,-1
 678 224 l 1,196,-1
72 376 m 1,200,-1
 72 513 l 1,201,-1
 209 513 l 1,202,-1
 209 376 l 1,203,-1
 72 376 l 1,200,-1
72 527 m 1,204,-1
 72 665 l 1,205,-1
 209 665 l 1,206,-1
 209 527 l 1,207,-1
 72 527 l 1,204,-1
72 679 m 1,208,-1
 72 816 l 1,209,-1
 209 816 l 1,210,-1
 209 679 l 1,211,-1
 72 679 l 1,208,-1
72 830 m 1,212,-1
 72 968 l 1,213,-1
 209 968 l 1,214,-1
 209 830 l 1,215,-1
 72 830 l 1,212,-1
678 830 m 1,216,-1
 678 968 l 1,217,-1
 816 968 l 1,218,-1
 816 830 l 1,219,-1
 678 830 l 1,216,-1
223 982 m 1,220,-1
 223 1120 l 1,221,-1
 361 1120 l 1,222,-1
 361 982 l 1,223,-1
 223 982 l 1,220,-1
375 982 m 1,224,-1
 375 1120 l 1,225,-1
 512 1120 l 1,226,-1
 512 982 l 1,227,-1
 375 982 l 1,224,-1
526 982 m 1,228,-1
 526 1120 l 1,229,-1
 664 1120 l 1,230,-1
 664 982 l 1,231,-1
 526 982 l 1,228,-1
EndSplineSet
Validated: 3077
EndChar

StartChar: D
Encoding: 68 68 39
Width: 857
GlyphClass: 1
Flags: W
LayerCount: 2
Fore
SplineSet
-158 44 m 5,0,-1
 -62 44 l 1,1,-1
 -62 -64 l 1,2,-1
 -158 -64 l 1,3,-1
 -158 44 l 5,0,-1
-50 124 m 1,4,-1
 58 124 l 1,5,-1
 58 0 l 1,6,-1
 -50 0 l 1,7,-1
 -50 124 l 1,4,-1
742 1132 m 1,8,-1
 857 1132 l 1,9,-1
 857 1056 l 1,10,-1
 742 1056 l 1,11,-1
 742 1132 l 1,8,-1
682 1012 m 1,12,-1
 818 1012 l 1,13,-1
 818 884 l 1,14,-1
 682 884 l 1,15,-1
 682 1012 l 1,12,-1
682 1048 m 1,16,-1
 786 1048 l 1,17,-1
 786 1012 l 1,18,-1
 682 1012 l 1,19,-1
 682 1048 l 1,16,-1
598 888 m 1,20,-1
 762 888 l 1,21,-1
 762 816 l 1,22,-1
 598 816 l 1,23,-1
 598 888 l 1,20,-1
434 752 m 1,24,-1
 678 752 l 1,25,-1
 678 665 l 1,26,-1
 434 665 l 1,27,-1
 434 752 l 1,24,-1
458 604 m 1,28,-1
 570 604 l 1,29,-1
 570 560 l 1,30,-1
 458 560 l 1,31,-1
 458 604 l 1,28,-1
374 536 m 1,32,-1
 510 536 l 1,33,-1
 510 440 l 1,34,-1
 374 440 l 1,35,-1
 374 536 l 1,32,-1
278 432 m 1,36,-1
 402 432 l 1,37,-1
 402 352 l 1,38,-1
 278 352 l 1,39,-1
 278 432 l 1,36,-1
198 340 m 1,40,-1
 314 340 l 1,41,-1
 314 280 l 1,42,-1
 198 280 l 1,43,-1
 198 340 l 1,40,-1
58 252 m 1,44,-1
 190 252 l 1,45,-1
 190 140 l 1,46,-1
 58 140 l 1,47,-1
 58 252 l 1,44,-1
326 1148 m 1,48,-1
 430 1148 l 1,49,-1
 430 1060 l 1,50,-1
 326 1060 l 1,51,-1
 326 1148 l 1,48,-1
361 982 m 1,52,-1
 514 982 l 1,53,-1
 514 872 l 1,54,-1
 361 872 l 1,55,-1
 361 982 l 1,52,-1
434 844 m 1,56,-1
 590 844 l 1,57,-1
 590 752 l 1,58,-1
 434 752 l 1,59,-1
 434 844 l 1,56,-1
498 732 m 1,60,-1
 690 732 l 1,61,-1
 690 620 l 1,62,-1
 498 620 l 1,63,-1
 498 732 l 1,60,-1
610 596 m 1,64,-1
 714 596 l 1,65,-1
 714 540 l 1,66,-1
 610 540 l 1,67,-1
 610 596 l 1,64,-1
614 496 m 1,68,-1
 714 496 l 1,69,-1
 714 392 l 1,70,-1
 614 392 l 1,71,-1
 614 496 l 1,68,-1
602 336 m 1,72,-1
 754 336 l 1,73,-1
 754 260 l 1,74,-1
 602 260 l 1,75,-1
 602 336 l 1,72,-1
638 228 m 1,76,-1
 718 228 l 1,77,-1
 718 148 l 1,78,-1
 638 148 l 1,79,-1
 638 228 l 1,76,-1
546 124 m 1,80,-1
 738 124 l 1,81,-1
 738 44 l 1,82,-1
 546 44 l 1,83,-1
 546 124 l 1,80,-1
390 252 m 1,84,-1
 506 252 l 1,85,-1
 506 52 l 1,86,-1
 390 52 l 1,87,-1
 390 252 l 1,84,-1
354 428 m 1,88,-1
 486 428 l 1,89,-1
 486 280 l 1,90,-1
 354 280 l 1,91,-1
 354 428 l 1,88,-1
274 640 m 1,92,-1
 430 640 l 1,93,-1
 430 468 l 1,94,-1
 274 468 l 1,95,-1
 274 640 l 1,92,-1
186 816 m 1,96,-1
 322 816 l 1,97,-1
 322 664 l 1,98,-1
 186 664 l 1,99,-1
 186 816 l 1,96,-1
94 956 m 1,100,-1
 209 956 l 1,101,-1
 209 830 l 1,102,-1
 94 830 l 1,103,-1
 94 956 l 1,100,-1
72 968 m 1,104,-1
 209 968 l 1,105,-1
 209 816 l 1,106,-1
 72 816 l 1,107,-1
 72 968 l 1,104,-1
-34 1132 m 1,108,-1
 86 1132 l 1,109,-1
 86 1004 l 1,110,-1
 -34 1004 l 1,111,-1
 -34 1132 l 1,108,-1
72 73 m 1,112,-1
 72 210 l 1,113,-1
 209 210 l 1,114,-1
 209 73 l 1,115,-1
 72 73 l 1,112,-1
223 73 m 1,116,-1
 223 210 l 1,117,-1
 361 210 l 1,118,-1
 361 73 l 1,119,-1
 223 73 l 1,116,-1
375 73 m 1,120,-1
 375 210 l 1,121,-1
 512 210 l 1,122,-1
 512 73 l 1,123,-1
 375 73 l 1,120,-1
72 224 m 1,124,-1
 72 362 l 1,125,-1
 209 362 l 1,126,-1
 209 224 l 1,127,-1
 72 224 l 1,124,-1
526 224 m 1,128,-1
 526 362 l 1,129,-1
 664 362 l 1,130,-1
 664 224 l 1,131,-1
 526 224 l 1,128,-1
72 375 m 1,132,-1
 72 513 l 1,133,-1
 209 513 l 1,134,-1
 209 375 l 1,135,-1
 72 375 l 1,132,-1
678 376 m 1,136,-1
 678 514 l 1,137,-1
 816 514 l 1,138,-1
 816 376 l 1,139,-1
 678 376 l 1,136,-1
72 527 m 1,140,-1
 72 665 l 1,141,-1
 209 665 l 1,142,-1
 209 527 l 1,143,-1
 72 527 l 1,140,-1
678 527 m 1,144,-1
 678 665 l 1,145,-1
 816 665 l 1,146,-1
 816 527 l 1,147,-1
 678 527 l 1,144,-1
72 679 m 1,148,-1
 72 816 l 1,149,-1
 209 816 l 1,150,-1
 209 679 l 1,151,-1
 72 679 l 1,148,-1
678 679 m 1,152,-1
 678 817 l 1,153,-1
 816 817 l 1,154,-1
 816 679 l 1,155,-1
 678 679 l 1,152,-1
72 830 m 1,156,-1
 72 968 l 1,157,-1
 209 968 l 1,158,-1
 209 830 l 1,159,-1
 72 830 l 1,156,-1
526 830 m 1,160,-1
 526 968 l 1,161,-1
 664 968 l 1,162,-1
 664 830 l 1,163,-1
 526 830 l 1,160,-1
72 981 m 1,164,-1
 72 1120 l 1,165,-1
 209 1120 l 1,166,-1
 209 981 l 1,167,-1
 72 981 l 1,164,-1
223 982 m 1,168,-1
 223 1120 l 1,169,-1
 361 1120 l 1,170,-1
 361 982 l 1,171,-1
 223 982 l 1,168,-1
375 982 m 1,172,-1
 375 1120 l 1,173,-1
 512 1120 l 1,174,-1
 512 982 l 1,175,-1
 375 982 l 1,172,-1
EndSplineSet
Validated: 3077
EndChar

StartChar: E
Encoding: 69 69 40
Width: 857
GlyphClass: 1
Flags: W
LayerCount: 2
Fore
SplineSet
422 280 m 5,0,-1
 482 280 l 1,1,-1
 482 232 l 1,2,-1
 422 232 l 1,3,-1
 422 280 l 5,0,-1
258 476 m 1,4,-1
 398 476 l 1,5,-1
 398 400 l 1,6,-1
 258 400 l 1,7,-1
 258 476 l 1,4,-1
66 644 m 1,8,-1
 218 644 l 1,9,-1
 218 548 l 1,10,-1
 66 548 l 1,11,-1
 66 644 l 1,8,-1
-74 788 m 1,12,-1
 66 788 l 1,13,-1
 66 644 l 1,14,-1
 -74 644 l 1,15,-1
 -74 788 l 1,12,-1
50 276 m 1,16,-1
 150 276 l 1,17,-1
 150 168 l 1,18,-1
 50 168 l 1,19,-1
 50 276 l 1,16,-1
182 264 m 1,20,-1
 274 264 l 1,21,-1
 274 152 l 1,22,-1
 182 152 l 1,23,-1
 182 264 l 1,20,-1
274 288 m 1,24,-1
 362 288 l 1,25,-1
 362 152 l 1,26,-1
 274 152 l 1,27,-1
 274 288 l 1,24,-1
446 264 m 1,28,-1
 446 168 l 1,29,-1
 446 264 l 1,28,-1
526 248 m 1,30,-1
 590 248 l 1,31,-1
 590 168 l 1,32,-1
 526 168 l 1,33,-1
 526 248 l 1,30,-1
770 248 m 1,34,-1
 814 248 l 1,35,-1
 814 188 l 1,36,-1
 770 188 l 1,37,-1
 770 248 l 1,34,-1
742 388 m 1,38,-1
 806 388 l 1,39,-1
 806 288 l 1,40,-1
 742 288 l 1,41,-1
 742 388 l 1,38,-1
698 508 m 1,42,-1
 798 508 l 1,43,-1
 798 404 l 1,44,-1
 698 404 l 1,45,-1
 698 508 l 1,42,-1
634 644 m 1,46,-1
 754 644 l 1,47,-1
 754 544 l 1,48,-1
 634 544 l 1,49,-1
 634 644 l 1,46,-1
546 724 m 1,50,-1
 690 724 l 1,51,-1
 690 692 l 1,52,-1
 546 692 l 1,53,-1
 546 724 l 1,50,-1
422 856 m 1,54,-1
 582 856 l 1,55,-1
 582 776 l 1,56,-1
 422 776 l 1,57,-1
 422 856 l 1,54,-1
282 1020 m 1,58,-1
 506 1020 l 1,59,-1
 506 892 l 1,60,-1
 282 892 l 1,61,-1
 282 1020 l 1,58,-1
62 1196 m 1,62,-1
 209 1196 l 1,63,-1
 209 1120 l 1,64,-1
 62 1120 l 1,65,-1
 62 1196 l 1,62,-1
818 1144 m 1,66,-1
 1070 1144 l 1,67,-1
 1070 1052 l 1,68,-1
 818 1052 l 1,69,-1
 818 1144 l 1,66,-1
730 1020 m 1,70,-1
 946 1020 l 1,71,-1
 946 900 l 1,72,-1
 730 900 l 1,73,-1
 730 1020 l 1,70,-1
638 872 m 1,74,-1
 890 872 l 1,75,-1
 890 768 l 1,76,-1
 638 768 l 1,77,-1
 638 872 l 1,74,-1
606 736 m 1,78,-1
 742 736 l 1,79,-1
 742 676 l 1,80,-1
 606 676 l 1,81,-1
 606 736 l 1,78,-1
518 692 m 1,82,-1
 690 692 l 1,83,-1
 690 620 l 1,84,-1
 518 620 l 1,85,-1
 518 692 l 1,82,-1
402 564 m 1,86,-1
 554 564 l 1,87,-1
 554 484 l 1,88,-1
 402 484 l 1,89,-1
 402 564 l 1,86,-1
306 408 m 1,90,-1
 434 408 l 1,91,-1
 434 364 l 1,92,-1
 306 364 l 1,93,-1
 306 408 l 1,90,-1
182 360 m 1,94,-1
 318 360 l 1,95,-1
 318 264 l 1,96,-1
 182 264 l 1,97,-1
 182 360 l 1,94,-1
86 248 m 1,98,-1
 214 248 l 1,99,-1
 214 172 l 1,100,-1
 86 172 l 1,101,-1
 86 248 l 1,98,-1
0 144 m 1,102,-1
 106 144 l 1,103,-1
 106 72 l 1,104,-1
 0 72 l 1,105,-1
 0 144 l 1,102,-1
-94 100 m 1,106,-1
 22 100 l 1,107,-1
 22 0 l 1,108,-1
 -94 0 l 1,109,-1
 -94 100 l 1,106,-1
-118 1232 m 1,110,-1
 -34 1232 l 1,111,-1
 -34 1136 l 1,112,-1
 -118 1136 l 1,113,-1
 -118 1232 l 1,110,-1
710 0 m 1,114,-1
 806 0 l 1,115,-1
 806 -80 l 1,116,-1
 710 -80 l 1,117,-1
 710 0 l 1,114,-1
622 144 m 1,118,-1
 738 144 l 1,119,-1
 738 24 l 1,120,-1
 622 24 l 1,121,-1
 622 144 l 1,118,-1
550 260 m 1,122,-1
 658 260 l 1,123,-1
 658 160 l 1,124,-1
 550 160 l 1,125,-1
 550 260 l 1,122,-1
458 368 m 1,126,-1
 558 368 l 1,127,-1
 558 292 l 1,128,-1
 458 292 l 1,129,-1
 458 368 l 1,126,-1
366 500 m 1,130,-1
 486 500 l 1,131,-1
 486 408 l 1,132,-1
 366 408 l 1,133,-1
 366 500 l 1,130,-1
278 660 m 1,134,-1
 414 660 l 1,135,-1
 414 528 l 1,136,-1
 278 528 l 1,137,-1
 278 660 l 1,134,-1
130 832 m 1,138,-1
 286 832 l 1,139,-1
 286 712 l 1,140,-1
 130 712 l 1,141,-1
 130 832 l 1,138,-1
72 968 m 1,142,-1
 210 968 l 1,143,-1
 210 860 l 1,144,-1
 72 860 l 1,145,-1
 72 968 l 1,142,-1
-34 1136 m 1,146,-1
 78 1136 l 1,147,-1
 78 1048 l 1,148,-1
 -34 1048 l 1,149,-1
 -34 1136 l 1,146,-1
72 73 m 1,150,-1
 72 210 l 1,151,-1
 209 210 l 1,152,-1
 209 73 l 1,153,-1
 72 73 l 1,150,-1
223 73 m 1,154,-1
 223 210 l 1,155,-1
 361 210 l 1,156,-1
 361 73 l 1,157,-1
 223 73 l 1,154,-1
375 73 m 1,158,-1
 375 210 l 1,159,-1
 512 210 l 1,160,-1
 512 73 l 1,161,-1
 375 73 l 1,158,-1
526 73 m 1,162,-1
 526 210 l 1,163,-1
 664 210 l 1,164,-1
 664 73 l 1,165,-1
 526 73 l 1,162,-1
678 73 m 1,166,-1
 678 210 l 1,167,-1
 816 210 l 1,168,-1
 816 73 l 1,169,-1
 678 73 l 1,166,-1
72 224 m 1,170,-1
 72 362 l 1,171,-1
 209 362 l 1,172,-1
 209 224 l 1,173,-1
 72 224 l 1,170,-1
72 375 m 1,174,-1
 72 513 l 1,175,-1
 209 513 l 1,176,-1
 209 375 l 1,177,-1
 72 375 l 1,174,-1
72 527 m 1,178,-1
 72 665 l 1,179,-1
 209 665 l 1,180,-1
 209 527 l 1,181,-1
 72 527 l 1,178,-1
223 527 m 1,182,-1
 223 665 l 1,183,-1
 361 665 l 1,184,-1
 361 527 l 1,185,-1
 223 527 l 1,182,-1
375 527 m 1,186,-1
 375 665 l 1,187,-1
 512 665 l 1,188,-1
 512 527 l 1,189,-1
 375 527 l 1,186,-1
526 527 m 1,190,-1
 526 665 l 1,191,-1
 664 665 l 1,192,-1
 664 527 l 1,193,-1
 526 527 l 1,190,-1
72 679 m 1,194,-1
 72 816 l 1,195,-1
 209 816 l 1,196,-1
 209 679 l 1,197,-1
 72 679 l 1,194,-1
72 830 m 1,198,-1
 72 968 l 1,199,-1
 209 968 l 1,200,-1
 209 830 l 1,201,-1
 72 830 l 1,198,-1
72 981 m 1,202,-1
 72 1120 l 1,203,-1
 209 1120 l 1,204,-1
 209 981 l 1,205,-1
 72 981 l 1,202,-1
223 982 m 1,206,-1
 223 1120 l 1,207,-1
 361 1120 l 1,208,-1
 361 982 l 1,209,-1
 223 982 l 1,206,-1
375 982 m 1,210,-1
 375 1120 l 1,211,-1
 512 1120 l 1,212,-1
 512 982 l 1,213,-1
 375 982 l 1,210,-1
526 982 m 1,214,-1
 526 1120 l 1,215,-1
 664 1120 l 1,216,-1
 664 982 l 1,217,-1
 526 982 l 1,214,-1
678 982 m 1,218,-1
 678 1120 l 1,219,-1
 816 1120 l 1,220,-1
 816 982 l 1,221,-1
 678 982 l 1,218,-1
EndSplineSet
Validated: 3077
EndChar

StartChar: F
Encoding: 70 70 41
Width: 857
GlyphClass: 1
Flags: W
LayerCount: 2
Fore
SplineSet
118 1092 m 5,0,-1
 -38 1092 l 1,1,-1
 -38 1188 l 1,2,-1
 118 1188 l 1,3,-1
 118 1092 l 5,0,-1
314 940 m 1,4,-1
 214 940 l 1,5,-1
 214 1024 l 1,6,-1
 314 1024 l 1,7,-1
 314 940 l 1,4,-1
494 812 m 1,8,-1
 374 812 l 1,9,-1
 374 884 l 1,10,-1
 494 884 l 1,11,-1
 494 812 l 1,8,-1
678 624 m 1,12,-1
 538 624 l 1,13,-1
 538 744 l 1,14,-1
 678 744 l 1,15,-1
 678 624 l 1,12,-1
718 404 m 1,16,-1
 634 404 l 1,17,-1
 634 516 l 1,18,-1
 718 516 l 1,19,-1
 718 404 l 1,16,-1
830 148 m 1,20,-1
 666 148 l 1,21,-1
 666 308 l 1,22,-1
 830 308 l 1,23,-1
 830 148 l 1,20,-1
694 84 m 1,24,-1
 774 84 l 1,25,-1
 774 36 l 1,26,-1
 694 36 l 1,27,-1
 694 84 l 1,24,-1
342 212 m 1,28,-1
 514 212 l 1,29,-1
 514 104 l 1,30,-1
 342 104 l 1,31,-1
 342 212 l 1,28,-1
238 324 m 1,32,-1
 342 324 l 1,33,-1
 342 212 l 1,34,-1
 238 212 l 1,35,-1
 238 324 l 1,32,-1
66 464 m 1,36,-1
 210 464 l 1,37,-1
 210 362 l 1,38,-1
 66 362 l 1,39,-1
 66 464 l 1,36,-1
-70 632 m 1,40,-1
 74 632 l 1,41,-1
 74 488 l 1,42,-1
 -70 488 l 1,43,-1
 -70 632 l 1,40,-1
857 1268 m 1,44,-1
 906 1268 l 1,45,-1
 906 1236 l 1,46,-1
 857 1236 l 1,47,-1
 857 1268 l 1,44,-1
738 1224 m 1,48,-1
 857 1224 l 1,49,-1
 857 1132 l 1,50,-1
 738 1132 l 1,51,-1
 738 1224 l 1,48,-1
706 1112 m 1,52,-1
 810 1112 l 1,53,-1
 810 1036 l 1,54,-1
 706 1036 l 1,55,-1
 706 1112 l 1,52,-1
664 982 m 1,56,-1
 782 982 l 1,57,-1
 782 892 l 1,58,-1
 664 892 l 1,59,-1
 664 982 l 1,56,-1
622 832 m 1,60,-1
 750 832 l 1,61,-1
 750 760 l 1,62,-1
 622 760 l 1,63,-1
 622 832 l 1,60,-1
582 680 m 1,64,-1
 686 680 l 1,65,-1
 686 596 l 1,66,-1
 582 596 l 1,67,-1
 582 680 l 1,64,-1
554 560 m 1,68,-1
 638 560 l 1,69,-1
 638 492 l 1,70,-1
 554 492 l 1,71,-1
 554 560 l 1,68,-1
514 432 m 1,72,-1
 638 432 l 1,73,-1
 638 356 l 1,74,-1
 514 356 l 1,75,-1
 514 432 l 1,72,-1
494 312 m 1,76,-1
 610 312 l 1,77,-1
 610 208 l 1,78,-1
 494 208 l 1,79,-1
 494 312 l 1,76,-1
474 220 m 1,80,-1
 582 220 l 1,81,-1
 582 168 l 1,82,-1
 474 168 l 1,83,-1
 474 220 l 1,80,-1
450 124 m 1,84,-1
 482 124 l 1,85,-1
 482 120 l 1,86,-1
 450 120 l 1,87,-1
 450 124 l 1,84,-1
350 108 m 1,88,-1
 426 108 l 1,89,-1
 426 60 l 1,90,-1
 350 60 l 1,91,-1
 350 108 l 1,88,-1
350 176 m 1,92,-1
 418 176 l 1,93,-1
 418 108 l 1,94,-1
 350 108 l 1,95,-1
 350 176 l 1,92,-1
342 248 m 1,96,-1
 406 248 l 1,97,-1
 406 212 l 1,98,-1
 342 212 l 1,99,-1
 342 248 l 1,96,-1
378 328 m 1,100,-1
 434 328 l 1,101,-1
 434 276 l 1,102,-1
 378 276 l 1,103,-1
 378 328 l 1,100,-1
346 428 m 1,104,-1
 434 428 l 1,105,-1
 434 360 l 1,106,-1
 346 360 l 1,107,-1
 346 428 l 1,104,-1
310 540 m 1,108,-1
 418 540 l 1,109,-1
 418 472 l 1,110,-1
 310 472 l 1,111,-1
 310 540 l 1,108,-1
350 688 m 1,112,-1
 434 688 l 1,113,-1
 434 576 l 1,114,-1
 350 576 l 1,115,-1
 350 688 l 1,112,-1
350 784 m 1,116,-1
 446 784 l 1,117,-1
 446 688 l 1,118,-1
 350 688 l 1,119,-1
 350 784 l 1,116,-1
374 884 m 1,120,-1
 470 884 l 1,121,-1
 470 792 l 1,122,-1
 374 792 l 1,123,-1
 374 884 l 1,120,-1
370 1008 m 1,124,-1
 474 1008 l 1,125,-1
 474 908 l 1,126,-1
 370 908 l 1,127,-1
 370 1008 l 1,124,-1
426 1116 m 1,128,-1
 490 1116 l 1,129,-1
 490 1016 l 1,130,-1
 426 1016 l 1,131,-1
 426 1116 l 1,128,-1
346 1292 m 1,132,-1
 434 1292 l 1,133,-1
 434 1208 l 1,134,-1
 346 1208 l 1,135,-1
 346 1292 l 1,132,-1
290 1204 m 1,136,-1
 390 1204 l 1,137,-1
 390 1096 l 1,138,-1
 290 1096 l 1,139,-1
 290 1204 l 1,136,-1
246 1076 m 1,140,-1
 361 1076 l 1,141,-1
 361 982 l 1,142,-1
 246 982 l 1,143,-1
 246 1076 l 1,140,-1
209 968 m 1,144,-1
 310 968 l 1,145,-1
 310 876 l 1,146,-1
 209 876 l 1,147,-1
 209 968 l 1,144,-1
166 840 m 1,148,-1
 274 840 l 1,149,-1
 274 796 l 1,150,-1
 166 796 l 1,151,-1
 166 840 l 1,148,-1
142 760 m 1,152,-1
 223 760 l 1,153,-1
 223 665 l 1,154,-1
 142 665 l 1,155,-1
 142 760 l 1,152,-1
146 604 m 1,156,-1
 223 604 l 1,157,-1
 223 527 l 1,158,-1
 146 527 l 1,159,-1
 146 604 l 1,156,-1
110 512 m 1,160,-1
 190 512 l 1,161,-1
 190 428 l 1,162,-1
 110 428 l 1,163,-1
 110 512 l 1,160,-1
58 420 m 1,164,-1
 158 420 l 1,165,-1
 158 328 l 1,166,-1
 58 328 l 1,167,-1
 58 420 l 1,164,-1
50 260 m 1,168,-1
 122 260 l 1,169,-1
 122 184 l 1,170,-1
 50 184 l 1,171,-1
 50 260 l 1,168,-1
0 156 m 1,172,-1
 98 156 l 1,173,-1
 98 48 l 1,174,-1
 0 48 l 1,175,-1
 0 156 l 1,172,-1
72 73 m 1,176,-1
 72 210 l 1,177,-1
 210 210 l 1,178,-1
 210 73 l 1,179,-1
 72 73 l 1,176,-1
72 224 m 1,180,-1
 72 362 l 1,181,-1
 210 362 l 1,182,-1
 210 224 l 1,183,-1
 72 224 l 1,180,-1
72 376 m 1,184,-1
 72 513 l 1,185,-1
 209 513 l 1,186,-1
 209 376 l 1,187,-1
 72 376 l 1,184,-1
72 527 m 1,188,-1
 72 665 l 1,189,-1
 209 665 l 1,190,-1
 209 527 l 1,191,-1
 72 527 l 1,188,-1
223 527 m 1,192,-1
 223 665 l 1,193,-1
 361 665 l 1,194,-1
 361 527 l 1,195,-1
 223 527 l 1,192,-1
375 527 m 1,196,-1
 375 665 l 1,197,-1
 513 665 l 1,198,-1
 513 527 l 1,199,-1
 375 527 l 1,196,-1
526 527 m 1,200,-1
 526 665 l 1,201,-1
 664 665 l 1,202,-1
 664 527 l 1,203,-1
 526 527 l 1,200,-1
72 679 m 1,204,-1
 72 816 l 1,205,-1
 209 816 l 1,206,-1
 209 679 l 1,207,-1
 72 679 l 1,204,-1
72 830 m 1,208,-1
 72 968 l 1,209,-1
 209 968 l 1,210,-1
 209 830 l 1,211,-1
 72 830 l 1,208,-1
72 982 m 1,212,-1
 72 1120 l 1,213,-1
 209 1120 l 1,214,-1
 209 982 l 1,215,-1
 72 982 l 1,212,-1
223 982 m 1,216,-1
 223 1120 l 1,217,-1
 361 1120 l 1,218,-1
 361 982 l 1,219,-1
 223 982 l 1,216,-1
375 982 m 1,220,-1
 375 1120 l 1,221,-1
 513 1120 l 1,222,-1
 513 982 l 1,223,-1
 375 982 l 1,220,-1
526 982 m 1,224,-1
 526 1120 l 1,225,-1
 664 1120 l 1,226,-1
 664 982 l 1,227,-1
 526 982 l 1,224,-1
678 982 m 1,228,-1
 678 1120 l 1,229,-1
 816 1120 l 1,230,-1
 816 982 l 1,231,-1
 678 982 l 1,228,-1
EndSplineSet
Validated: 3077
EndChar

StartChar: G
Encoding: 71 71 42
Width: 857
GlyphClass: 1
Flags: W
LayerCount: 2
Fore
SplineSet
857 32 m 5,0,-1
 857 0 l 1,1,-1
 802 0 l 1,2,-1
 802 32 l 1,3,-1
 857 32 l 5,0,-1
857 140 m 1,4,-1
 857 64 l 1,5,-1
 710 64 l 1,6,-1
 710 140 l 1,7,-1
 857 140 l 1,4,-1
770 284 m 1,8,-1
 770 220 l 1,9,-1
 630 220 l 1,10,-1
 630 284 l 1,11,-1
 770 284 l 1,8,-1
730 456 m 1,12,-1
 730 348 l 1,13,-1
 574 348 l 1,14,-1
 574 456 l 1,15,-1
 730 456 l 1,12,-1
630 572 m 1,16,-1
 630 484 l 1,17,-1
 498 484 l 1,18,-1
 498 572 l 1,19,-1
 630 572 l 1,16,-1
558 680 m 1,20,-1
 558 620 l 1,21,-1
 466 620 l 1,22,-1
 466 680 l 1,23,-1
 558 680 l 1,20,-1
518 832 m 1,24,-1
 518 740 l 1,25,-1
 434 740 l 1,26,-1
 434 832 l 1,27,-1
 518 832 l 1,24,-1
518 908 m 1,28,-1
 518 832 l 1,29,-1
 406 832 l 1,30,-1
 406 908 l 1,31,-1
 518 908 l 1,28,-1
450 984 m 1,32,-1
 450 924 l 1,33,-1
 370 924 l 1,34,-1
 370 984 l 1,35,-1
 450 984 l 1,32,-1
402 1080 m 1,36,-1
 402 972 l 1,37,-1
 298 972 l 1,38,-1
 298 1080 l 1,39,-1
 402 1080 l 1,36,-1
354 1160 m 1,40,-1
 354 1088 l 1,41,-1
 238 1088 l 1,42,-1
 238 1160 l 1,43,-1
 354 1160 l 1,40,-1
834 1064 m 1,44,-1
 958 1064 l 1,45,-1
 958 956 l 1,46,-1
 834 956 l 1,47,-1
 834 1064 l 1,44,-1
778 920 m 1,48,-1
 902 920 l 1,49,-1
 902 848 l 1,50,-1
 778 848 l 1,51,-1
 778 920 l 1,48,-1
638 880 m 1,52,-1
 778 880 l 1,53,-1
 778 780 l 1,54,-1
 638 780 l 1,55,-1
 638 880 l 1,52,-1
542 804 m 1,56,-1
 658 804 l 1,57,-1
 658 720 l 1,58,-1
 542 720 l 1,59,-1
 542 804 l 1,56,-1
434 740 m 1,60,-1
 526 740 l 1,61,-1
 526 665 l 1,62,-1
 434 665 l 1,63,-1
 434 740 l 1,60,-1
350 656 m 1,64,-1
 442 656 l 1,65,-1
 442 576 l 1,66,-1
 350 576 l 1,67,-1
 350 656 l 1,64,-1
278 564 m 1,68,-1
 338 564 l 1,69,-1
 338 480 l 1,70,-1
 278 480 l 1,71,-1
 278 564 l 1,68,-1
174 504 m 1,72,-1
 310 504 l 1,73,-1
 310 400 l 1,74,-1
 174 400 l 1,75,-1
 174 504 l 1,72,-1
209 362 m 1,76,-1
 209 348 l 1,77,-1
 50 348 l 1,78,-1
 50 362 l 1,79,-1
 209 362 l 1,76,-1
250 248 m 1,80,-1
 250 220 l 1,81,-1
 158 220 l 1,82,-1
 158 248 l 1,83,-1
 250 248 l 1,80,-1
322 184 m 1,84,-1
 322 136 l 1,85,-1
 238 136 l 1,86,-1
 238 184 l 1,87,-1
 322 184 l 1,84,-1
410 108 m 1,88,-1
 482 108 l 1,89,-1
 482 0 l 1,90,-1
 410 0 l 1,91,-1
 410 108 l 1,88,-1
398 300 m 1,92,-1
 502 300 l 1,93,-1
 502 184 l 1,94,-1
 398 184 l 1,95,-1
 398 300 l 1,92,-1
418 432 m 1,96,-1
 486 432 l 1,97,-1
 486 348 l 1,98,-1
 418 348 l 1,99,-1
 418 432 l 1,96,-1
338 576 m 1,100,-1
 442 576 l 1,101,-1
 442 480 l 1,102,-1
 338 480 l 1,103,-1
 338 576 l 1,100,-1
198 760 m 1,104,-1
 350 760 l 1,105,-1
 350 656 l 1,106,-1
 198 656 l 1,107,-1
 198 760 l 1,104,-1
126 884 m 1,108,-1
 230 884 l 1,109,-1
 230 800 l 1,110,-1
 126 800 l 1,111,-1
 126 884 l 1,108,-1
26 1012 m 1,112,-1
 170 1012 l 1,113,-1
 170 892 l 1,114,-1
 26 892 l 1,115,-1
 26 1012 l 1,112,-1
-54 1144 m 1,116,-1
 50 1144 l 1,117,-1
 50 1048 l 1,118,-1
 -54 1048 l 1,119,-1
 -54 1144 l 1,116,-1
223 73 m 1,120,-1
 223 210 l 1,121,-1
 361 210 l 1,122,-1
 361 73 l 1,123,-1
 223 73 l 1,120,-1
375 73 m 1,124,-1
 375 210 l 1,125,-1
 512 210 l 1,126,-1
 512 73 l 1,127,-1
 375 73 l 1,124,-1
526 73 m 1,128,-1
 526 210 l 1,129,-1
 664 210 l 1,130,-1
 664 73 l 1,131,-1
 526 73 l 1,128,-1
678 73 m 1,132,-1
 678 210 l 1,133,-1
 816 210 l 1,134,-1
 816 73 l 1,135,-1
 678 73 l 1,132,-1
72 224 m 1,136,-1
 72 362 l 1,137,-1
 209 362 l 1,138,-1
 209 224 l 1,139,-1
 72 224 l 1,136,-1
678 224 m 1,140,-1
 678 362 l 1,141,-1
 816 362 l 1,142,-1
 816 224 l 1,143,-1
 678 224 l 1,140,-1
72 375 m 1,144,-1
 72 513 l 1,145,-1
 209 513 l 1,146,-1
 209 375 l 1,147,-1
 72 375 l 1,144,-1
678 376 m 1,148,-1
 678 514 l 1,149,-1
 816 514 l 1,150,-1
 816 376 l 1,151,-1
 678 376 l 1,148,-1
72 527 m 1,152,-1
 72 665 l 1,153,-1
 209 665 l 1,154,-1
 209 527 l 1,155,-1
 72 527 l 1,152,-1
375 527 m 1,156,-1
 375 665 l 1,157,-1
 512 665 l 1,158,-1
 512 527 l 1,159,-1
 375 527 l 1,156,-1
526 527 m 1,160,-1
 526 665 l 1,161,-1
 664 665 l 1,162,-1
 664 527 l 1,163,-1
 526 527 l 1,160,-1
678 527 m 1,164,-1
 678 665 l 1,165,-1
 816 665 l 1,166,-1
 816 527 l 1,167,-1
 678 527 l 1,164,-1
72 679 m 1,168,-1
 72 816 l 1,169,-1
 209 816 l 1,170,-1
 209 679 l 1,171,-1
 72 679 l 1,168,-1
72 830 m 1,172,-1
 72 968 l 1,173,-1
 209 968 l 1,174,-1
 209 830 l 1,175,-1
 72 830 l 1,172,-1
678 830 m 1,176,-1
 678 968 l 1,177,-1
 816 968 l 1,178,-1
 816 830 l 1,179,-1
 678 830 l 1,176,-1
223 982 m 1,180,-1
 223 1120 l 1,181,-1
 361 1120 l 1,182,-1
 361 982 l 1,183,-1
 223 982 l 1,180,-1
375 982 m 1,184,-1
 375 1120 l 1,185,-1
 512 1120 l 1,186,-1
 512 982 l 1,187,-1
 375 982 l 1,184,-1
526 982 m 1,188,-1
 526 1120 l 1,189,-1
 664 1120 l 1,190,-1
 664 982 l 1,191,-1
 526 982 l 1,188,-1
EndSplineSet
Validated: 3077
EndChar

StartChar: H
Encoding: 72 72 43
Width: 857
GlyphClass: 1
Flags: W
LayerCount: 2
Fore
SplineSet
550 1028 m 5,0,-1
 710 1028 l 1,1,-1
 710 864 l 1,2,-1
 550 864 l 1,3,-1
 550 1028 l 5,0,-1
238 396 m 1,4,-1
 178 396 l 1,5,-1
 178 440 l 1,6,-1
 238 440 l 1,7,-1
 238 396 l 1,4,-1
386 268 m 1,8,-1
 250 268 l 1,9,-1
 250 312 l 1,10,-1
 386 312 l 1,11,-1
 386 268 l 1,8,-1
510 132 m 1,12,-1
 346 132 l 1,13,-1
 346 220 l 1,14,-1
 510 220 l 1,15,-1
 510 132 l 1,12,-1
190 760 m 1,16,-1
 190 679 l 1,17,-1
 72 679 l 1,18,-1
 72 760 l 1,19,-1
 190 760 l 1,16,-1
382 936 m 1,20,-1
 382 820 l 1,21,-1
 234 820 l 1,22,-1
 234 936 l 1,23,-1
 382 936 l 1,20,-1
118 596 m 1,24,-1
 118 500 l 1,25,-1
 0 500 l 1,26,-1
 0 596 l 1,27,-1
 118 596 l 1,24,-1
318 812 m 1,28,-1
 318 665 l 1,29,-1
 72 665 l 1,30,-1
 72 812 l 1,31,-1
 318 812 l 1,28,-1
286 900 m 1,32,-1
 286 780 l 1,33,-1
 166 780 l 1,34,-1
 166 900 l 1,35,-1
 286 900 l 1,32,-1
502 1148 m 1,36,-1
 502 988 l 1,37,-1
 342 988 l 1,38,-1
 342 1148 l 1,39,-1
 502 1148 l 1,36,-1
802 1152 m 1,40,-1
 857 1152 l 1,41,-1
 857 1120 l 1,42,-1
 802 1120 l 1,43,-1
 802 1152 l 1,40,-1
730 1008 m 1,44,-1
 930 1008 l 1,45,-1
 930 928 l 1,46,-1
 730 928 l 1,47,-1
 730 1008 l 1,44,-1
654 848 m 1,48,-1
 857 848 l 1,49,-1
 857 748 l 1,50,-1
 654 748 l 1,51,-1
 654 848 l 1,48,-1
502 704 m 1,52,-1
 690 704 l 1,53,-1
 690 632 l 1,54,-1
 502 632 l 1,55,-1
 502 704 l 1,52,-1
362 620 m 1,56,-1
 526 620 l 1,57,-1
 526 552 l 1,58,-1
 362 552 l 1,59,-1
 362 620 l 1,56,-1
306 444 m 1,60,-1
 422 444 l 1,61,-1
 422 384 l 1,62,-1
 306 384 l 1,63,-1
 306 444 l 1,60,-1
209 362 m 1,64,-1
 386 362 l 1,65,-1
 386 268 l 1,66,-1
 209 268 l 1,67,-1
 209 362 l 1,64,-1
106 264 m 1,68,-1
 214 264 l 1,69,-1
 214 184 l 1,70,-1
 106 184 l 1,71,-1
 106 264 l 1,68,-1
0 168 m 1,72,-1
 110 168 l 1,73,-1
 110 96 l 1,74,-1
 0 96 l 1,75,-1
 0 168 l 1,72,-1
650 196 m 1,76,-1
 726 196 l 1,77,-1
 726 104 l 1,78,-1
 650 104 l 1,79,-1
 650 196 l 1,76,-1
534 372 m 1,80,-1
 650 372 l 1,81,-1
 650 240 l 1,82,-1
 534 240 l 1,83,-1
 534 372 l 1,80,-1
426 516 m 1,84,-1
 534 516 l 1,85,-1
 534 408 l 1,86,-1
 426 408 l 1,87,-1
 426 516 l 1,84,-1
334 648 m 1,88,-1
 446 648 l 1,89,-1
 446 540 l 1,90,-1
 334 540 l 1,91,-1
 334 648 l 1,88,-1
230 780 m 1,92,-1
 361 780 l 1,93,-1
 361 665 l 1,94,-1
 230 665 l 1,95,-1
 230 780 l 1,92,-1
174 900 m 1,96,-1
 234 900 l 1,97,-1
 234 820 l 1,98,-1
 174 820 l 1,99,-1
 174 900 l 1,96,-1
78 1020 m 1,100,-1
 174 1020 l 1,101,-1
 174 900 l 1,102,-1
 78 900 l 1,103,-1
 78 1020 l 1,100,-1
-22 1180 m 1,104,-1
 66 1180 l 1,105,-1
 66 1044 l 1,106,-1
 -22 1044 l 1,107,-1
 -22 1180 l 1,104,-1
72 73 m 1,108,-1
 72 210 l 1,109,-1
 209 210 l 1,110,-1
 209 73 l 1,111,-1
 72 73 l 1,108,-1
678 73 m 1,112,-1
 678 210 l 1,113,-1
 816 210 l 1,114,-1
 816 73 l 1,115,-1
 678 73 l 1,112,-1
72 224 m 1,116,-1
 72 362 l 1,117,-1
 209 362 l 1,118,-1
 209 224 l 1,119,-1
 72 224 l 1,116,-1
678 224 m 1,120,-1
 678 362 l 1,121,-1
 816 362 l 1,122,-1
 816 224 l 1,123,-1
 678 224 l 1,120,-1
72 375 m 1,124,-1
 72 513 l 1,125,-1
 209 513 l 1,126,-1
 209 375 l 1,127,-1
 72 375 l 1,124,-1
678 376 m 1,128,-1
 678 514 l 1,129,-1
 816 514 l 1,130,-1
 816 376 l 1,131,-1
 678 376 l 1,128,-1
72 527 m 1,132,-1
 72 665 l 1,133,-1
 209 665 l 1,134,-1
 209 527 l 1,135,-1
 72 527 l 1,132,-1
223 527 m 1,136,-1
 223 665 l 1,137,-1
 361 665 l 1,138,-1
 361 527 l 1,139,-1
 223 527 l 1,136,-1
375 527 m 1,140,-1
 375 665 l 1,141,-1
 512 665 l 1,142,-1
 512 527 l 1,143,-1
 375 527 l 1,140,-1
526 527 m 1,144,-1
 526 665 l 1,145,-1
 664 665 l 1,146,-1
 664 527 l 1,147,-1
 526 527 l 1,144,-1
678 527 m 1,148,-1
 678 665 l 1,149,-1
 816 665 l 1,150,-1
 816 527 l 1,151,-1
 678 527 l 1,148,-1
72 679 m 1,152,-1
 72 816 l 1,153,-1
 209 816 l 1,154,-1
 209 679 l 1,155,-1
 72 679 l 1,152,-1
678 679 m 1,156,-1
 678 817 l 1,157,-1
 816 817 l 1,158,-1
 816 679 l 1,159,-1
 678 679 l 1,156,-1
72 830 m 1,160,-1
 72 968 l 1,161,-1
 209 968 l 1,162,-1
 209 830 l 1,163,-1
 72 830 l 1,160,-1
678 830 m 1,164,-1
 678 968 l 1,165,-1
 816 968 l 1,166,-1
 816 830 l 1,167,-1
 678 830 l 1,164,-1
72 981 m 1,168,-1
 72 1120 l 1,169,-1
 209 1120 l 1,170,-1
 209 981 l 1,171,-1
 72 981 l 1,168,-1
678 982 m 1,172,-1
 678 1120 l 1,173,-1
 816 1120 l 1,174,-1
 816 982 l 1,175,-1
 678 982 l 1,172,-1
EndSplineSet
Validated: 3077
EndChar

StartChar: I
Encoding: 73 73 44
Width: 857
GlyphClass: 1
Flags: W
LayerCount: 2
Fore
SplineSet
810 1152 m 5,0,-1
 918 1152 l 1,1,-1
 918 1052 l 1,2,-1
 810 1052 l 1,3,-1
 810 1152 l 5,0,-1
0 248 m 1,4,-1
 162 248 l 1,5,-1
 162 120 l 1,6,-1
 0 120 l 1,7,-1
 0 248 l 1,4,-1
450 700 m 1,8,-1
 662 700 l 1,9,-1
 662 584 l 1,10,-1
 450 584 l 1,11,-1
 450 700 l 1,8,-1
210 744 m 1,12,-1
 282 744 l 1,13,-1
 282 556 l 1,14,-1
 210 556 l 1,15,-1
 210 744 l 1,12,-1
626 364 m 1,16,-1
 742 364 l 1,17,-1
 742 260 l 1,18,-1
 626 260 l 1,19,-1
 626 364 l 1,16,-1
694 1076 m 1,20,-1
 806 1076 l 1,21,-1
 806 1004 l 1,22,-1
 694 1004 l 1,23,-1
 694 1076 l 1,20,-1
138 832 m 1,24,-1
 234 832 l 1,25,-1
 234 764 l 1,26,-1
 138 764 l 1,27,-1
 138 832 l 1,24,-1
106 308 m 1,28,-1
 224 308 l 1,29,-1
 224 210 l 1,30,-1
 106 210 l 1,31,-1
 106 308 l 1,28,-1
190 408 m 1,32,-1
 218 408 l 1,33,-1
 218 280 l 1,34,-1
 190 280 l 1,35,-1
 190 408 l 1,32,-1
742 32 m 1025,36,-1
718 52 m 1,37,-1
 742 52 l 1,38,-1
 742 32 l 1,39,-1
 718 32 l 1,40,-1
 718 52 l 1,37,-1
614 120 m 1,41,-1
 690 120 l 1,42,-1
 690 72 l 1,43,-1
 614 72 l 1,44,-1
 614 120 l 1,41,-1
434 236 m 1,45,-1
 550 236 l 1,46,-1
 550 164 l 1,47,-1
 434 164 l 1,48,-1
 434 236 l 1,45,-1
262 376 m 1,49,-1
 354 376 l 1,50,-1
 354 308 l 1,51,-1
 262 308 l 1,52,-1
 262 376 l 1,49,-1
118 484 m 1,53,-1
 190 484 l 1,54,-1
 190 408 l 1,55,-1
 118 408 l 1,56,-1
 118 484 l 1,53,-1
218 556 m 1,57,-1
 218 484 l 1,58,-1
 118 484 l 1,59,-1
 118 556 l 1,60,-1
 218 556 l 1,57,-1
346 660 m 1,61,-1
 346 600 l 1,62,-1
 274 600 l 1,63,-1
 274 660 l 1,64,-1
 346 660 l 1,61,-1
512 816 m 1,65,-1
 512 736 l 1,66,-1
 430 736 l 1,67,-1
 430 816 l 1,68,-1
 512 816 l 1,65,-1
714 960 m 1,69,-1
 714 860 l 1,70,-1
 570 860 l 1,71,-1
 570 960 l 1,72,-1
 714 960 l 1,69,-1
90 48 m 1,73,-1
 90 20 l 1,74,-1
 42 20 l 1,75,-1
 42 48 l 1,76,-1
 90 48 l 1,73,-1
238 120 m 1,77,-1
 238 76 l 1,78,-1
 162 76 l 1,79,-1
 162 120 l 1,80,-1
 238 120 l 1,77,-1
361 210 m 1,81,-1
 361 152 l 1,82,-1
 302 152 l 1,83,-1
 302 210 l 1,84,-1
 361 210 l 1,81,-1
510 292 m 1,85,-1
 510 228 l 1,86,-1
 410 228 l 1,87,-1
 410 292 l 1,88,-1
 510 292 l 1,85,-1
742 388 m 1,89,-1
 742 304 l 1,90,-1
 550 304 l 1,91,-1
 550 388 l 1,92,-1
 742 388 l 1,89,-1
686 432 m 1,93,-1
 742 432 l 1,94,-1
 742 388 l 1,95,-1
 686 388 l 1,96,-1
 686 432 l 1,93,-1
534 556 m 1,97,-1
 658 556 l 1,98,-1
 658 452 l 1,99,-1
 534 452 l 1,100,-1
 534 556 l 1,97,-1
438 636 m 1,101,-1
 534 636 l 1,102,-1
 534 556 l 1,103,-1
 438 556 l 1,104,-1
 438 636 l 1,101,-1
274 780 m 1,105,-1
 422 780 l 1,106,-1
 422 660 l 1,107,-1
 274 660 l 1,108,-1
 274 780 l 1,105,-1
182 856 m 1,109,-1
 274 856 l 1,110,-1
 274 780 l 1,111,-1
 182 780 l 1,112,-1
 182 856 l 1,109,-1
98 976 m 1,113,-1
 182 976 l 1,114,-1
 182 856 l 1,115,-1
 98 856 l 1,116,-1
 98 976 l 1,113,-1
0 1104 m 1,117,-1
 102 1104 l 1,118,-1
 102 1004 l 1,119,-1
 0 1004 l 1,120,-1
 0 1104 l 1,117,-1
224 73 m 1,121,-1
 224 210 l 1,122,-1
 361 210 l 1,123,-1
 361 73 l 1,124,-1
 224 73 l 1,121,-1
375 73 m 1,125,-1
 375 210 l 1,126,-1
 513 210 l 1,127,-1
 513 73 l 1,128,-1
 375 73 l 1,125,-1
527 73 m 1,129,-1
 527 210 l 1,130,-1
 664 210 l 1,131,-1
 664 73 l 1,132,-1
 527 73 l 1,129,-1
375 224 m 1,133,-1
 375 362 l 1,134,-1
 513 362 l 1,135,-1
 513 224 l 1,136,-1
 375 224 l 1,133,-1
375 376 m 1,137,-1
 375 514 l 1,138,-1
 513 514 l 1,139,-1
 513 376 l 1,140,-1
 375 376 l 1,137,-1
375 527 m 1,141,-1
 375 665 l 1,142,-1
 512 665 l 1,143,-1
 512 527 l 1,144,-1
 375 527 l 1,141,-1
375 679 m 1,145,-1
 375 816 l 1,146,-1
 512 816 l 1,147,-1
 512 679 l 1,148,-1
 375 679 l 1,145,-1
375 830 m 1,149,-1
 375 968 l 1,150,-1
 512 968 l 1,151,-1
 512 830 l 1,152,-1
 375 830 l 1,149,-1
224 982 m 1,153,-1
 224 1120 l 1,154,-1
 361 1120 l 1,155,-1
 361 982 l 1,156,-1
 224 982 l 1,153,-1
375 982 m 1,157,-1
 375 1120 l 1,158,-1
 512 1120 l 1,159,-1
 512 982 l 1,160,-1
 375 982 l 1,157,-1
526 982 m 1,161,-1
 526 1120 l 1,162,-1
 664 1120 l 1,163,-1
 664 982 l 1,164,-1
 526 982 l 1,161,-1
EndSplineSet
Validated: 3077
EndChar

StartChar: J
Encoding: 74 74 45
Width: 857
GlyphClass: 1
Flags: W
LayerCount: 2
Fore
SplineSet
634 1116 m 5,0,-1
 554 1116 l 1,1,-1
 554 1220 l 1,2,-1
 634 1220 l 1,3,-1
 634 1116 l 5,0,-1
666 940 m 1,4,-1
 590 940 l 1,5,-1
 590 1060 l 1,6,-1
 666 1060 l 1,7,-1
 666 940 l 1,4,-1
694 748 m 1,8,-1
 610 748 l 1,9,-1
 610 876 l 1,10,-1
 694 876 l 1,11,-1
 694 748 l 1,8,-1
714 600 m 1,12,-1
 606 600 l 1,13,-1
 606 724 l 1,14,-1
 714 724 l 1,15,-1
 714 600 l 1,12,-1
674 340 m 1,16,-1
 598 340 l 1,17,-1
 598 524 l 1,18,-1
 674 524 l 1,19,-1
 674 340 l 1,16,-1
702 144 m 1,20,-1
 598 144 l 1,21,-1
 598 300 l 1,22,-1
 702 300 l 1,23,-1
 702 144 l 1,20,-1
118 288 m 1,24,-1
 146 288 l 1,25,-1
 146 220 l 1,26,-1
 118 220 l 1,27,-1
 118 288 l 1,24,-1
94 440 m 1,28,-1
 186 440 l 1,29,-1
 186 348 l 1,30,-1
 94 348 l 1,31,-1
 94 440 l 1,28,-1
130 544 m 1,32,-1
 238 544 l 1,33,-1
 238 456 l 1,34,-1
 130 456 l 1,35,-1
 130 544 l 1,32,-1
166 680 m 1,36,-1
 246 680 l 1,37,-1
 246 592 l 1,38,-1
 166 592 l 1,39,-1
 166 680 l 1,36,-1
194 852 m 1,40,-1
 294 852 l 1,41,-1
 294 736 l 1,42,-1
 194 736 l 1,43,-1
 194 852 l 1,40,-1
226 952 m 1,44,-1
 310 952 l 1,45,-1
 310 856 l 1,46,-1
 226 856 l 1,47,-1
 226 952 l 1,44,-1
310 1076 m 1,48,-1
 382 1076 l 1,49,-1
 382 956 l 1,50,-1
 310 956 l 1,51,-1
 310 1076 l 1,48,-1
114 152 m 1,52,-1
 182 152 l 1,53,-1
 182 20 l 1,54,-1
 114 20 l 1,55,-1
 114 152 l 1,52,-1
150 272 m 1,56,-1
 282 272 l 1,57,-1
 282 132 l 1,58,-1
 150 132 l 1,59,-1
 150 272 l 1,56,-1
274 356 m 1,60,-1
 386 356 l 1,61,-1
 386 252 l 1,62,-1
 274 252 l 1,63,-1
 274 356 l 1,60,-1
354 476 m 1,64,-1
 470 476 l 1,65,-1
 470 360 l 1,66,-1
 354 360 l 1,67,-1
 354 476 l 1,64,-1
434 616 m 1,68,-1
 526 616 l 1,69,-1
 526 500 l 1,70,-1
 434 500 l 1,71,-1
 434 616 l 1,68,-1
450 724 m 1,72,-1
 606 724 l 1,73,-1
 606 644 l 1,74,-1
 450 644 l 1,75,-1
 450 724 l 1,72,-1
590 812 m 1,76,-1
 618 812 l 1,77,-1
 618 724 l 1,78,-1
 590 724 l 1,79,-1
 590 812 l 1,76,-1
590 984 m 1,80,-1
 726 984 l 1,81,-1
 726 812 l 1,82,-1
 590 812 l 1,83,-1
 590 984 l 1,80,-1
598 116 m 1,84,-1
 686 116 l 1,85,-1
 686 56 l 1,86,-1
 598 56 l 1,87,-1
 598 116 l 1,84,-1
514 260 m 1,88,-1
 654 260 l 1,89,-1
 654 140 l 1,90,-1
 514 140 l 1,91,-1
 514 260 l 1,88,-1
446 372 m 1,92,-1
 574 372 l 1,93,-1
 574 284 l 1,94,-1
 446 284 l 1,95,-1
 446 372 l 1,92,-1
398 500 m 1,96,-1
 526 500 l 1,97,-1
 526 416 l 1,98,-1
 398 416 l 1,99,-1
 398 500 l 1,96,-1
342 616 m 1,100,-1
 434 616 l 1,101,-1
 434 536 l 1,102,-1
 342 536 l 1,103,-1
 342 616 l 1,100,-1
262 772 m 1,104,-1
 394 772 l 1,105,-1
 394 644 l 1,106,-1
 262 644 l 1,107,-1
 262 772 l 1,104,-1
186 900 m 1,108,-1
 326 900 l 1,109,-1
 326 788 l 1,110,-1
 186 788 l 1,111,-1
 186 900 l 1,108,-1
150 1088 m 1,112,-1
 254 1088 l 1,113,-1
 254 936 l 1,114,-1
 150 936 l 1,115,-1
 150 1088 l 1,112,-1
250 168 m 1,116,-1
 402 168 l 1,117,-1
 402 64 l 1,118,-1
 250 64 l 1,119,-1
 250 168 l 1,116,-1
114 320 m 1,120,-1
 223 320 l 1,121,-1
 223 210 l 1,122,-1
 114 210 l 1,123,-1
 114 320 l 1,120,-1
-22 440 m 1,124,-1
 94 440 l 1,125,-1
 94 364 l 1,126,-1
 -22 364 l 1,127,-1
 -22 440 l 1,124,-1
223 73 m 1,128,-1
 223 210 l 1,129,-1
 361 210 l 1,130,-1
 361 73 l 1,131,-1
 223 73 l 1,128,-1
375 73 m 1,132,-1
 375 210 l 1,133,-1
 512 210 l 1,134,-1
 512 73 l 1,135,-1
 375 73 l 1,132,-1
72 224 m 1,136,-1
 72 362 l 1,137,-1
 209 362 l 1,138,-1
 209 224 l 1,139,-1
 72 224 l 1,136,-1
526 224 m 1,140,-1
 526 362 l 1,141,-1
 664 362 l 1,142,-1
 664 224 l 1,143,-1
 526 224 l 1,140,-1
526 376 m 1,144,-1
 526 514 l 1,145,-1
 664 514 l 1,146,-1
 664 376 l 1,147,-1
 526 376 l 1,144,-1
526 527 m 1,148,-1
 526 665 l 1,149,-1
 664 665 l 1,150,-1
 664 527 l 1,151,-1
 526 527 l 1,148,-1
526 679 m 1,152,-1
 526 817 l 1,153,-1
 664 817 l 1,154,-1
 664 679 l 1,155,-1
 526 679 l 1,152,-1
526 830 m 1,156,-1
 526 968 l 1,157,-1
 664 968 l 1,158,-1
 664 830 l 1,159,-1
 526 830 l 1,156,-1
375 982 m 1,160,-1
 375 1120 l 1,161,-1
 512 1120 l 1,162,-1
 512 982 l 1,163,-1
 375 982 l 1,160,-1
526 982 m 1,164,-1
 526 1120 l 1,165,-1
 664 1120 l 1,166,-1
 664 982 l 1,167,-1
 526 982 l 1,164,-1
678 982 m 1,168,-1
 678 1120 l 1,169,-1
 816 1120 l 1,170,-1
 816 982 l 1,171,-1
 678 982 l 1,168,-1
EndSplineSet
Validated: 3077
EndChar

StartChar: K
Encoding: 75 75 46
Width: 857
GlyphClass: 1
Flags: W
LayerCount: 2
Fore
SplineSet
150 612 m 5,0,-1
 254 612 l 1,1,-1
 254 514 l 1,2,-1
 150 514 l 1,3,-1
 150 612 l 5,0,-1
-34 800 m 1,4,-1
 150 800 l 1,5,-1
 150 612 l 1,6,-1
 -34 612 l 1,7,-1
 -34 800 l 1,4,-1
606 116 m 1,8,-1
 606 100 l 1,9,-1
 538 100 l 1,10,-1
 538 116 l 1,11,-1
 606 116 l 1,8,-1
594 224 m 1,12,-1
 594 172 l 1,13,-1
 466 172 l 1,14,-1
 466 224 l 1,15,-1
 594 224 l 1,12,-1
598 340 m 1,16,-1
 598 280 l 1,17,-1
 502 280 l 1,18,-1
 502 340 l 1,19,-1
 598 340 l 1,16,-1
586 456 m 1,20,-1
 586 412 l 1,21,-1
 474 412 l 1,22,-1
 474 456 l 1,23,-1
 586 456 l 1,20,-1
558 572 m 1,24,-1
 558 552 l 1,25,-1
 478 552 l 1,26,-1
 478 572 l 1,27,-1
 558 572 l 1,24,-1
578 724 m 1,28,-1
 578 672 l 1,29,-1
 454 672 l 1,30,-1
 454 724 l 1,31,-1
 578 724 l 1,28,-1
502 848 m 1,32,-1
 502 796 l 1,33,-1
 422 796 l 1,34,-1
 422 848 l 1,35,-1
 502 848 l 1,32,-1
494 952 m 1,36,-1
 494 900 l 1,37,-1
 414 900 l 1,38,-1
 414 952 l 1,39,-1
 494 952 l 1,36,-1
458 1112 m 1,40,-1
 458 976 l 1,41,-1
 414 976 l 1,42,-1
 414 1112 l 1,43,-1
 458 1112 l 1,40,-1
802 616 m 1,44,-1
 950 616 l 1,45,-1
 950 524 l 1,46,-1
 802 524 l 1,47,-1
 802 616 l 1,44,-1
678 580 m 1,48,-1
 786 580 l 1,49,-1
 786 520 l 1,50,-1
 678 520 l 1,51,-1
 678 580 l 1,48,-1
522 580 m 1,52,-1
 678 580 l 1,53,-1
 678 484 l 1,54,-1
 522 484 l 1,55,-1
 522 580 l 1,52,-1
375 588 m 1,56,-1
 486 588 l 1,57,-1
 486 472 l 1,58,-1
 375 472 l 1,59,-1
 375 588 l 1,56,-1
254 588 m 1,60,-1
 375 588 l 1,61,-1
 375 514 l 1,62,-1
 254 514 l 1,63,-1
 254 588 l 1,60,-1
150 612 m 1,64,-1
 223 612 l 1,65,-1
 223 527 l 1,66,-1
 150 527 l 1,67,-1
 150 612 l 1,64,-1
22 608 m 1,68,-1
 122 608 l 1,69,-1
 122 548 l 1,70,-1
 22 548 l 1,71,-1
 22 608 l 1,68,-1
102 152 m 1,72,-1
 150 152 l 1,73,-1
 150 104 l 1,74,-1
 102 104 l 1,75,-1
 102 152 l 1,72,-1
206 188 m 1,76,-1
 274 188 l 1,77,-1
 274 148 l 1,78,-1
 206 148 l 1,79,-1
 206 188 l 1,76,-1
318 248 m 1,80,-1
 394 248 l 1,81,-1
 394 184 l 1,82,-1
 318 184 l 1,83,-1
 318 248 l 1,80,-1
370 308 m 1,84,-1
 466 308 l 1,85,-1
 466 236 l 1,86,-1
 370 236 l 1,87,-1
 370 308 l 1,84,-1
470 368 m 1,88,-1
 542 368 l 1,89,-1
 542 260 l 1,90,-1
 470 260 l 1,91,-1
 470 368 l 1,88,-1
542 444 m 1,92,-1
 618 444 l 1,93,-1
 618 372 l 1,94,-1
 542 372 l 1,95,-1
 542 444 l 1,92,-1
778 400 m 1025,96,-1
654 496 m 1,97,-1
 778 496 l 1,98,-1
 778 400 l 1,99,-1
 654 400 l 1,100,-1
 654 496 l 1,97,-1
558 572 m 1,101,-1
 654 572 l 1,102,-1
 654 496 l 1,103,-1
 558 496 l 1,104,-1
 558 572 l 1,101,-1
414 672 m 1,105,-1
 558 672 l 1,106,-1
 558 572 l 1,107,-1
 414 572 l 1,108,-1
 414 672 l 1,105,-1
294 796 m 1,109,-1
 378 796 l 1,110,-1
 378 708 l 1,111,-1
 294 708 l 1,112,-1
 294 796 l 1,109,-1
178 892 m 1,113,-1
 294 892 l 1,114,-1
 294 796 l 1,115,-1
 178 796 l 1,116,-1
 178 892 l 1,113,-1
58 1004 m 1,117,-1
 178 1004 l 1,118,-1
 178 892 l 1,119,-1
 58 892 l 1,120,-1
 58 1004 l 1,117,-1
-38 1124 m 1,121,-1
 66 1124 l 1,122,-1
 66 1036 l 1,123,-1
 -38 1036 l 1,124,-1
 -38 1124 l 1,121,-1
72 73 m 1,125,-1
 72 210 l 1,126,-1
 210 210 l 1,127,-1
 210 73 l 1,128,-1
 72 73 l 1,125,-1
678 73 m 1,129,-1
 678 210 l 1,130,-1
 816 210 l 1,131,-1
 816 73 l 1,132,-1
 678 73 l 1,129,-1
72 224 m 1,133,-1
 72 362 l 1,134,-1
 210 362 l 1,135,-1
 210 224 l 1,136,-1
 72 224 l 1,133,-1
526 224 m 1,137,-1
 526 362 l 1,138,-1
 664 362 l 1,139,-1
 664 224 l 1,140,-1
 526 224 l 1,137,-1
72 376 m 1,141,-1
 72 513 l 1,142,-1
 209 513 l 1,143,-1
 209 376 l 1,144,-1
 72 376 l 1,141,-1
375 376 m 1,145,-1
 375 514 l 1,146,-1
 513 514 l 1,147,-1
 513 376 l 1,148,-1
 375 376 l 1,145,-1
72 527 m 1,149,-1
 72 665 l 1,150,-1
 209 665 l 1,151,-1
 209 527 l 1,152,-1
 72 527 l 1,149,-1
223 527 m 1,153,-1
 223 665 l 1,154,-1
 361 665 l 1,155,-1
 361 527 l 1,156,-1
 223 527 l 1,153,-1
72 679 m 1,157,-1
 72 816 l 1,158,-1
 209 816 l 1,159,-1
 209 679 l 1,160,-1
 72 679 l 1,157,-1
375 679 m 1,161,-1
 375 816 l 1,162,-1
 512 816 l 1,163,-1
 512 679 l 1,164,-1
 375 679 l 1,161,-1
72 830 m 1,165,-1
 72 968 l 1,166,-1
 209 968 l 1,167,-1
 209 830 l 1,168,-1
 72 830 l 1,165,-1
526 830 m 1,169,-1
 526 968 l 1,170,-1
 664 968 l 1,171,-1
 664 830 l 1,172,-1
 526 830 l 1,169,-1
72 982 m 1,173,-1
 72 1120 l 1,174,-1
 209 1120 l 1,175,-1
 209 982 l 1,176,-1
 72 982 l 1,173,-1
678 982 m 1,177,-1
 678 1120 l 1,178,-1
 816 1120 l 1,179,-1
 816 982 l 1,180,-1
 678 982 l 1,177,-1
EndSplineSet
Validated: 3077
EndChar

StartChar: L
Encoding: 76 76 47
Width: 857
GlyphClass: 1
Flags: W
LayerCount: 2
Fore
SplineSet
426 560 m 5,0,-1
 474 560 l 1,1,-1
 474 540 l 1,2,-1
 426 540 l 1,3,-1
 426 560 l 5,0,-1
206 592 m 1,4,-1
 370 592 l 1,5,-1
 370 528 l 1,6,-1
 206 528 l 1,7,-1
 206 592 l 1,4,-1
82 616 m 1,8,-1
 170 616 l 1,9,-1
 170 548 l 1,10,-1
 82 548 l 1,11,-1
 82 616 l 1,8,-1
-74 708 m 1,12,-1
 54 708 l 1,13,-1
 54 596 l 1,14,-1
 -74 596 l 1,15,-1
 -74 708 l 1,12,-1
798 1000 m 1,16,-1
 857 1000 l 1,17,-1
 798 1000 l 1,16,-1
774 820 m 1,18,-1
 878 820 l 1,19,-1
 878 816 l 1,20,-1
 774 816 l 1,21,-1
 774 820 l 1,18,-1
746 612 m 1,22,-1
 857 612 l 1,23,-1
 857 592 l 1,24,-1
 746 592 l 1,25,-1
 746 612 l 1,22,-1
710 480 m 1,26,-1
 794 480 l 1,27,-1
 794 444 l 1,28,-1
 710 444 l 1,29,-1
 710 480 l 1,26,-1
734 372 m 1,30,-1
 798 372 l 1,31,-1
 798 340 l 1,32,-1
 734 340 l 1,33,-1
 734 372 l 1,30,-1
606 296 m 1,34,-1
 778 296 l 1,35,-1
 778 240 l 1,36,-1
 606 240 l 1,37,-1
 606 296 l 1,34,-1
562 220 m 1,38,-1
 686 220 l 1,39,-1
 686 184 l 1,40,-1
 562 184 l 1,41,-1
 562 220 l 1,38,-1
518 132 m 1,42,-1
 574 132 l 1,43,-1
 574 112 l 1,44,-1
 518 112 l 1,45,-1
 518 132 l 1,42,-1
426 72 m 1,46,-1
 538 72 l 1,47,-1
 538 0 l 1,48,-1
 426 0 l 1,49,-1
 426 72 l 1,46,-1
330 40 m 1,50,-1
 406 40 l 1,51,-1
 406 0 l 1,52,-1
 330 0 l 1,53,-1
 330 40 l 1,50,-1
314 244 m 1,54,-1
 422 244 l 1,55,-1
 422 124 l 1,56,-1
 314 124 l 1,57,-1
 314 244 l 1,54,-1
370 364 m 1,58,-1
 482 364 l 1,59,-1
 482 260 l 1,60,-1
 370 260 l 1,61,-1
 370 364 l 1,58,-1
346 540 m 1,62,-1
 474 540 l 1,63,-1
 474 388 l 1,64,-1
 346 388 l 1,65,-1
 346 540 l 1,62,-1
398 648 m 1,66,-1
 506 648 l 1,67,-1
 506 548 l 1,68,-1
 398 548 l 1,69,-1
 398 648 l 1,66,-1
486 744 m 1,70,-1
 598 744 l 1,71,-1
 598 632 l 1,72,-1
 486 632 l 1,73,-1
 486 744 l 1,70,-1
530 852 m 1,74,-1
 642 852 l 1,75,-1
 642 780 l 1,76,-1
 530 780 l 1,77,-1
 530 852 l 1,74,-1
530 964 m 1,78,-1
 714 964 l 1,79,-1
 714 852 l 1,80,-1
 530 852 l 1,81,-1
 530 964 l 1,78,-1
662 1072 m 1,82,-1
 730 1072 l 1,83,-1
 730 900 l 1,84,-1
 662 900 l 1,85,-1
 662 1072 l 1,82,-1
-34 1212 m 1,86,-1
 -34 1156 l 1,87,-1
 -182 1156 l 1,88,-1
 -182 1212 l 1,89,-1
 -34 1212 l 1,86,-1
-102 0 m 1,90,-1
 -46 0 l 1,91,-1
 -102 0 l 1,90,-1
-102 156 m 1,92,-1
 30 156 l 1,93,-1
 30 0 l 1,94,-1
 -102 0 l 1,95,-1
 -102 156 l 1,92,-1
30 120 m 1,96,-1
 78 120 l 1,97,-1
 78 52 l 1,98,-1
 30 52 l 1,99,-1
 30 120 l 1,96,-1
72 210 m 1,100,-1
 146 210 l 1,101,-1
 146 96 l 1,102,-1
 72 96 l 1,103,-1
 72 210 l 1,100,-1
134 324 m 1,104,-1
 223 324 l 1,105,-1
 223 210 l 1,106,-1
 134 210 l 1,107,-1
 134 324 l 1,104,-1
234 388 m 1,108,-1
 354 388 l 1,109,-1
 354 252 l 1,110,-1
 234 252 l 1,111,-1
 234 388 l 1,108,-1
350 412 m 1,112,-1
 434 412 l 1,113,-1
 434 336 l 1,114,-1
 350 336 l 1,115,-1
 350 412 l 1,112,-1
446 460 m 1,116,-1
 558 460 l 1,117,-1
 558 368 l 1,118,-1
 446 368 l 1,119,-1
 446 460 l 1,116,-1
550 512 m 1,120,-1
 654 512 l 1,121,-1
 654 428 l 1,122,-1
 550 428 l 1,123,-1
 550 512 l 1,120,-1
638 560 m 1,124,-1
 738 560 l 1,125,-1
 738 468 l 1,126,-1
 638 468 l 1,127,-1
 638 560 l 1,124,-1
722 580 m 1,128,-1
 802 580 l 1,129,-1
 802 508 l 1,130,-1
 722 508 l 1,131,-1
 722 580 l 1,128,-1
606 656 m 1,132,-1
 694 656 l 1,133,-1
 694 596 l 1,134,-1
 606 596 l 1,135,-1
 606 656 l 1,132,-1
422 760 m 1,136,-1
 606 760 l 1,137,-1
 606 656 l 1,138,-1
 422 656 l 1,139,-1
 422 760 l 1,136,-1
298 836 m 1,140,-1
 422 836 l 1,141,-1
 422 760 l 1,142,-1
 298 760 l 1,143,-1
 298 836 l 1,140,-1
146 972 m 1,144,-1
 298 972 l 1,145,-1
 298 836 l 1,146,-1
 146 836 l 1,147,-1
 146 972 l 1,144,-1
0 1116 m 1,148,-1
 146 1116 l 1,149,-1
 146 972 l 1,150,-1
 0 972 l 1,151,-1
 0 1116 l 1,148,-1
72 73 m 1,152,-1
 72 210 l 1,153,-1
 210 210 l 1,154,-1
 210 73 l 1,155,-1
 72 73 l 1,152,-1
223 73 m 1,156,-1
 223 210 l 1,157,-1
 361 210 l 1,158,-1
 361 73 l 1,159,-1
 223 73 l 1,156,-1
375 73 m 1,160,-1
 375 210 l 1,161,-1
 513 210 l 1,162,-1
 513 73 l 1,163,-1
 375 73 l 1,160,-1
526 73 m 1,164,-1
 526 210 l 1,165,-1
 664 210 l 1,166,-1
 664 73 l 1,167,-1
 526 73 l 1,164,-1
678 73 m 1,168,-1
 678 210 l 1,169,-1
 816 210 l 1,170,-1
 816 73 l 1,171,-1
 678 73 l 1,168,-1
72 224 m 1,172,-1
 72 362 l 1,173,-1
 210 362 l 1,174,-1
 210 224 l 1,175,-1
 72 224 l 1,172,-1
72 376 m 1,176,-1
 72 514 l 1,177,-1
 210 514 l 1,178,-1
 210 376 l 1,179,-1
 72 376 l 1,176,-1
72 527 m 1,180,-1
 72 665 l 1,181,-1
 210 665 l 1,182,-1
 210 527 l 1,183,-1
 72 527 l 1,180,-1
72 679 m 1,184,-1
 72 816 l 1,185,-1
 210 816 l 1,186,-1
 210 679 l 1,187,-1
 72 679 l 1,184,-1
72 830 m 1,188,-1
 72 968 l 1,189,-1
 209 968 l 1,190,-1
 209 830 l 1,191,-1
 72 830 l 1,188,-1
72 982 m 1,192,-1
 72 1120 l 1,193,-1
 209 1120 l 1,194,-1
 209 982 l 1,195,-1
 72 982 l 1,192,-1
EndSplineSet
Validated: 3077
EndChar

StartChar: M
Encoding: 77 77 48
Width: 857
GlyphClass: 1
Flags: W
LayerCount: 2
Fore
SplineSet
0 540 m 5,0,-1
 138 540 l 1,1,-1
 138 404 l 1,2,-1
 0 404 l 1,3,-1
 0 540 l 5,0,-1
334 148 m 1,4,-1
 238 148 l 1,5,-1
 238 264 l 1,6,-1
 334 264 l 1,7,-1
 334 148 l 1,4,-1
522 412 m 1,8,-1
 410 412 l 1,9,-1
 410 500 l 1,10,-1
 522 500 l 1,11,-1
 522 412 l 1,8,-1
702 888 m 1,12,-1
 822 888 l 1,13,-1
 822 796 l 1,14,-1
 702 796 l 1,15,-1
 702 888 l 1,12,-1
570 944 m 1,16,-1
 678 944 l 1,17,-1
 678 817 l 1,18,-1
 570 817 l 1,19,-1
 570 944 l 1,16,-1
466 1068 m 1,20,-1
 570 1068 l 1,21,-1
 570 944 l 1,22,-1
 466 944 l 1,23,-1
 466 1068 l 1,20,-1
306 1124 m 1,24,-1
 390 1124 l 1,25,-1
 390 1036 l 1,26,-1
 306 1036 l 1,27,-1
 306 1124 l 1,24,-1
102 76 m 1,28,-1
 254 76 l 1,29,-1
 254 0 l 1,30,-1
 102 0 l 1,31,-1
 102 76 l 1,28,-1
314 124 m 1,32,-1
 418 124 l 1,33,-1
 418 28 l 1,34,-1
 314 28 l 1,35,-1
 314 124 l 1,32,-1
502 188 m 1,36,-1
 598 188 l 1,37,-1
 598 116 l 1,38,-1
 502 116 l 1,39,-1
 502 188 l 1,36,-1
562 288 m 1,40,-1
 746 288 l 1,41,-1
 746 176 l 1,42,-1
 562 176 l 1,43,-1
 562 288 l 1,40,-1
678 376 m 1,44,-1
 774 376 l 1,45,-1
 774 272 l 1,46,-1
 678 272 l 1,47,-1
 678 376 l 1,44,-1
794 444 m 1,48,-1
 882 444 l 1,49,-1
 882 344 l 1,50,-1
 794 344 l 1,51,-1
 794 444 l 1,48,-1
678 564 m 1,52,-1
 794 564 l 1,53,-1
 794 444 l 1,54,-1
 678 444 l 1,55,-1
 678 564 l 1,52,-1
554 600 m 1,56,-1
 646 600 l 1,57,-1
 646 520 l 1,58,-1
 554 520 l 1,59,-1
 554 600 l 1,56,-1
418 672 m 1,60,-1
 554 672 l 1,61,-1
 554 564 l 1,62,-1
 418 564 l 1,63,-1
 418 672 l 1,60,-1
298 696 m 1,64,-1
 330 696 l 1,65,-1
 330 616 l 1,66,-1
 298 616 l 1,67,-1
 298 696 l 1,64,-1
209 724 m 1,68,-1
 209 644 l 1,69,-1
 209 724 l 1,68,-1
94 724 m 1,70,-1
 209 724 l 1,71,-1
 209 665 l 1,72,-1
 94 665 l 1,73,-1
 94 724 l 1,70,-1
-38 780 m 1,74,-1
 58 780 l 1,75,-1
 58 640 l 1,76,-1
 -38 640 l 1,77,-1
 -38 780 l 1,74,-1
22 1148 m 1,78,-1
 22 1100 l 1,79,-1
 -66 1100 l 1,80,-1
 -66 1148 l 1,81,-1
 22 1148 l 1,78,-1
130 1080 m 1,82,-1
 130 1056 l 1,83,-1
 42 1056 l 1,84,-1
 42 1080 l 1,85,-1
 130 1080 l 1,82,-1
286 1008 m 1,86,-1
 286 988 l 1,87,-1
 134 988 l 1,88,-1
 134 1008 l 1,89,-1
 286 1008 l 1,86,-1
394 968 m 1,90,-1
 394 908 l 1,91,-1
 270 908 l 1,92,-1
 270 968 l 1,93,-1
 394 968 l 1,90,-1
506 912 m 1,94,-1
 506 816 l 1,95,-1
 375 816 l 1,96,-1
 375 912 l 1,97,-1
 506 912 l 1,94,-1
570 884 m 1,98,-1
 570 812 l 1,99,-1
 430 812 l 1,100,-1
 430 884 l 1,101,-1
 570 884 l 1,98,-1
678 817 m 1,102,-1
 678 740 l 1,103,-1
 562 740 l 1,104,-1
 562 817 l 1,105,-1
 678 817 l 1,102,-1
798 780 m 1,106,-1
 798 736 l 1,107,-1
 666 736 l 1,108,-1
 666 780 l 1,109,-1
 798 780 l 1,106,-1
790 684 m 1,110,-1
 890 684 l 1,111,-1
 890 628 l 1,112,-1
 790 628 l 1,113,-1
 790 684 l 1,110,-1
666 632 m 1,114,-1
 806 632 l 1,115,-1
 806 592 l 1,116,-1
 666 592 l 1,117,-1
 666 632 l 1,114,-1
554 564 m 1,118,-1
 678 564 l 1,119,-1
 678 514 l 1,120,-1
 554 514 l 1,121,-1
 554 564 l 1,118,-1
438 504 m 1,122,-1
 582 504 l 1,123,-1
 582 448 l 1,124,-1
 438 448 l 1,125,-1
 438 504 l 1,122,-1
342 412 m 1,126,-1
 442 412 l 1,127,-1
 442 368 l 1,128,-1
 342 368 l 1,129,-1
 342 412 l 1,126,-1
258 344 m 1,130,-1
 366 344 l 1,131,-1
 366 300 l 1,132,-1
 258 300 l 1,133,-1
 258 344 l 1,130,-1
142 304 m 1,134,-1
 294 304 l 1,135,-1
 294 244 l 1,136,-1
 142 244 l 1,137,-1
 142 304 l 1,134,-1
42 224 m 1,138,-1
 166 224 l 1,139,-1
 166 160 l 1,140,-1
 42 160 l 1,141,-1
 42 224 l 1,138,-1
-58 160 m 1,142,-1
 26 160 l 1,143,-1
 26 96 l 1,144,-1
 -58 96 l 1,145,-1
 -58 160 l 1,142,-1
72 73 m 1,146,-1
 72 210 l 1,147,-1
 209 210 l 1,148,-1
 209 73 l 1,149,-1
 72 73 l 1,146,-1
678 73 m 1,150,-1
 678 210 l 1,151,-1
 816 210 l 1,152,-1
 816 73 l 1,153,-1
 678 73 l 1,150,-1
72 224 m 1,154,-1
 72 362 l 1,155,-1
 209 362 l 1,156,-1
 209 224 l 1,157,-1
 72 224 l 1,154,-1
678 224 m 1,158,-1
 678 362 l 1,159,-1
 816 362 l 1,160,-1
 816 224 l 1,161,-1
 678 224 l 1,158,-1
72 375 m 1,162,-1
 72 513 l 1,163,-1
 209 513 l 1,164,-1
 209 375 l 1,165,-1
 72 375 l 1,162,-1
678 376 m 1,166,-1
 678 514 l 1,167,-1
 816 514 l 1,168,-1
 816 376 l 1,169,-1
 678 376 l 1,166,-1
72 527 m 1,170,-1
 72 665 l 1,171,-1
 209 665 l 1,172,-1
 209 527 l 1,173,-1
 72 527 l 1,170,-1
375 527 m 1,174,-1
 375 665 l 1,175,-1
 512 665 l 1,176,-1
 512 527 l 1,177,-1
 375 527 l 1,174,-1
678 527 m 1,178,-1
 678 665 l 1,179,-1
 816 665 l 1,180,-1
 816 527 l 1,181,-1
 678 527 l 1,178,-1
72 679 m 1,182,-1
 72 816 l 1,183,-1
 209 816 l 1,184,-1
 209 679 l 1,185,-1
 72 679 l 1,182,-1
375 679 m 1,186,-1
 375 816 l 1,187,-1
 512 816 l 1,188,-1
 512 679 l 1,189,-1
 375 679 l 1,186,-1
678 679 m 1,190,-1
 678 817 l 1,191,-1
 816 817 l 1,192,-1
 816 679 l 1,193,-1
 678 679 l 1,190,-1
72 830 m 1,194,-1
 72 968 l 1,195,-1
 209 968 l 1,196,-1
 209 830 l 1,197,-1
 72 830 l 1,194,-1
223 830 m 1,198,-1
 223 968 l 1,199,-1
 361 968 l 1,200,-1
 361 830 l 1,201,-1
 223 830 l 1,198,-1
526 830 m 1,202,-1
 526 968 l 1,203,-1
 664 968 l 1,204,-1
 664 830 l 1,205,-1
 526 830 l 1,202,-1
678 830 m 1,206,-1
 678 968 l 1,207,-1
 816 968 l 1,208,-1
 816 830 l 1,209,-1
 678 830 l 1,206,-1
72 981 m 1,210,-1
 72 1120 l 1,211,-1
 209 1120 l 1,212,-1
 209 981 l 1,213,-1
 72 981 l 1,210,-1
678 982 m 1,214,-1
 678 1120 l 1,215,-1
 816 1120 l 1,216,-1
 816 982 l 1,217,-1
 678 982 l 1,214,-1
EndSplineSet
Validated: 3077
EndChar

StartChar: N
Encoding: 78 78 49
Width: 857
GlyphClass: 1
Flags: W
LayerCount: 2
Fore
SplineSet
334 1148 m 5,0,-1
 334 1172 l 1,1,-1
 370 1172 l 1,2,-1
 370 1148 l 1,3,-1
 334 1148 l 5,0,-1
314 940 m 1,4,-1
 314 1084 l 1,5,-1
 442 1084 l 1,6,-1
 442 940 l 1,7,-1
 314 940 l 1,4,-1
318 772 m 1,8,-1
 318 864 l 1,9,-1
 510 864 l 1,10,-1
 510 772 l 1,11,-1
 318 772 l 1,8,-1
470 240 m 1,12,-1
 470 376 l 1,13,-1
 610 376 l 1,14,-1
 610 240 l 1,15,-1
 470 240 l 1,12,-1
718 232 m 1025,16,-1
582 68 m 1,17,-1
 582 210 l 1,18,-1
 678 210 l 1,19,-1
 678 68 l 1,20,-1
 582 68 l 1,17,-1
110 240 m 1,21,-1
 -22 240 l 1,22,-1
 -22 300 l 1,23,-1
 110 300 l 1,24,-1
 110 240 l 1,21,-1
326 260 m 1,25,-1
 178 260 l 1,26,-1
 178 388 l 1,27,-1
 326 388 l 1,28,-1
 326 260 l 1,25,-1
406 356 m 1,29,-1
 330 356 l 1,30,-1
 330 428 l 1,31,-1
 406 428 l 1,32,-1
 406 356 l 1,29,-1
518 464 m 1,33,-1
 406 464 l 1,34,-1
 406 536 l 1,35,-1
 518 536 l 1,36,-1
 518 464 l 1,33,-1
638 524 m 1,37,-1
 498 524 l 1,38,-1
 498 628 l 1,39,-1
 638 628 l 1,40,-1
 638 524 l 1,37,-1
738 620 m 1,41,-1
 574 620 l 1,42,-1
 574 740 l 1,43,-1
 738 740 l 1,44,-1
 738 620 l 1,41,-1
770 720 m 1,45,-1
 654 720 l 1,46,-1
 654 824 l 1,47,-1
 770 824 l 1,48,-1
 770 720 l 1,45,-1
857 780 m 1,49,-1
 778 780 l 1,50,-1
 778 872 l 1,51,-1
 857 872 l 1,52,-1
 857 780 l 1,49,-1
922 868 m 1,53,-1
 816 868 l 1,54,-1
 816 968 l 1,55,-1
 922 968 l 1,56,-1
 922 868 l 1,53,-1
-82 1132 m 1,57,-1
 30 1132 l 1,58,-1
 30 1028 l 1,59,-1
 -82 1028 l 1,60,-1
 -82 1132 l 1,57,-1
-82 968 m 1,61,-1
 54 968 l 1,62,-1
 54 872 l 1,63,-1
 -82 872 l 1,64,-1
 -82 968 l 1,61,-1
-46 852 m 1,65,-1
 94 852 l 1,66,-1
 94 760 l 1,67,-1
 -46 760 l 1,68,-1
 -46 852 l 1,65,-1
-22 692 m 1,69,-1
 110 692 l 1,70,-1
 110 572 l 1,71,-1
 -22 572 l 1,72,-1
 -22 692 l 1,69,-1
0 560 m 1,73,-1
 142 560 l 1,74,-1
 142 488 l 1,75,-1
 0 488 l 1,76,-1
 0 560 l 1,73,-1
94 424 m 1,77,-1
 198 424 l 1,78,-1
 198 304 l 1,79,-1
 94 304 l 1,80,-1
 94 424 l 1,77,-1
146 272 m 1,81,-1
 270 272 l 1,82,-1
 270 140 l 1,83,-1
 146 140 l 1,84,-1
 146 272 l 1,81,-1
234 152 m 1,85,-1
 342 152 l 1,86,-1
 342 48 l 1,87,-1
 234 48 l 1,88,-1
 234 152 l 1,85,-1
326 260 m 1,89,-1
 414 260 l 1,90,-1
 414 152 l 1,91,-1
 326 152 l 1,92,-1
 326 260 l 1,89,-1
314 404 m 1,93,-1
 454 404 l 1,94,-1
 454 296 l 1,95,-1
 314 296 l 1,96,-1
 314 404 l 1,93,-1
350 532 m 1,97,-1
 522 532 l 1,98,-1
 522 400 l 1,99,-1
 350 400 l 1,100,-1
 350 532 l 1,97,-1
382 636 m 1,101,-1
 554 636 l 1,102,-1
 554 532 l 1,103,-1
 382 532 l 1,104,-1
 382 636 l 1,101,-1
446 760 m 1,105,-1
 538 760 l 1,106,-1
 538 664 l 1,107,-1
 446 664 l 1,108,-1
 446 760 l 1,105,-1
458 856 m 1,109,-1
 598 856 l 1,110,-1
 598 736 l 1,111,-1
 458 736 l 1,112,-1
 458 856 l 1,109,-1
510 956 m 1,113,-1
 590 956 l 1,114,-1
 590 864 l 1,115,-1
 510 864 l 1,116,-1
 510 956 l 1,113,-1
534 1032 m 1,117,-1
 654 1032 l 1,118,-1
 654 956 l 1,119,-1
 534 956 l 1,120,-1
 534 1032 l 1,117,-1
586 1164 m 1,121,-1
 698 1164 l 1,122,-1
 698 1052 l 1,123,-1
 586 1052 l 1,124,-1
 586 1164 l 1,121,-1
0 1140 m 1025,125,-1
72 73 m 1,126,-1
 72 210 l 1,127,-1
 209 210 l 1,128,-1
 209 73 l 1,129,-1
 72 73 l 1,126,-1
678 73 m 1,130,-1
 678 210 l 1,131,-1
 816 210 l 1,132,-1
 816 73 l 1,133,-1
 678 73 l 1,130,-1
72 224 m 1,134,-1
 72 362 l 1,135,-1
 209 362 l 1,136,-1
 209 224 l 1,137,-1
 72 224 l 1,134,-1
678 224 m 1,138,-1
 678 362 l 1,139,-1
 816 362 l 1,140,-1
 816 224 l 1,141,-1
 678 224 l 1,138,-1
72 375 m 1,142,-1
 72 513 l 1,143,-1
 209 513 l 1,144,-1
 209 375 l 1,145,-1
 72 375 l 1,142,-1
526 376 m 1,146,-1
 526 514 l 1,147,-1
 664 514 l 1,148,-1
 664 376 l 1,149,-1
 526 376 l 1,146,-1
678 376 m 1,150,-1
 678 514 l 1,151,-1
 816 514 l 1,152,-1
 816 376 l 1,153,-1
 678 376 l 1,150,-1
72 527 m 1,154,-1
 72 665 l 1,155,-1
 209 665 l 1,156,-1
 209 527 l 1,157,-1
 72 527 l 1,154,-1
375 527 m 1,158,-1
 375 665 l 1,159,-1
 512 665 l 1,160,-1
 512 527 l 1,161,-1
 375 527 l 1,158,-1
678 527 m 1,162,-1
 678 665 l 1,163,-1
 816 665 l 1,164,-1
 816 527 l 1,165,-1
 678 527 l 1,162,-1
72 679 m 1,166,-1
 72 816 l 1,167,-1
 209 816 l 1,168,-1
 209 679 l 1,169,-1
 72 679 l 1,166,-1
223 679 m 1,170,-1
 223 816 l 1,171,-1
 361 816 l 1,172,-1
 361 679 l 1,173,-1
 223 679 l 1,170,-1
678 679 m 1,174,-1
 678 817 l 1,175,-1
 816 817 l 1,176,-1
 816 679 l 1,177,-1
 678 679 l 1,174,-1
72 830 m 1,178,-1
 72 968 l 1,179,-1
 209 968 l 1,180,-1
 209 830 l 1,181,-1
 72 830 l 1,178,-1
678 830 m 1,182,-1
 678 968 l 1,183,-1
 816 968 l 1,184,-1
 816 830 l 1,185,-1
 678 830 l 1,182,-1
72 981 m 1,186,-1
 72 1120 l 1,187,-1
 209 1120 l 1,188,-1
 209 981 l 1,189,-1
 72 981 l 1,186,-1
678 982 m 1,190,-1
 678 1120 l 1,191,-1
 816 1120 l 1,192,-1
 816 982 l 1,193,-1
 678 982 l 1,190,-1
EndSplineSet
Validated: 3077
EndChar

StartChar: O
Encoding: 79 79 50
Width: 857
GlyphClass: 1
Flags: W
LayerCount: 2
Fore
SplineSet
857 176 m 5,0,-1
 857 44 l 1,1,-1
 746 44 l 1,2,-1
 746 176 l 1,3,-1
 857 176 l 5,0,-1
158 1108 m 1,4,-1
 158 1056 l 1,5,-1
 78 1056 l 1,6,-1
 78 1108 l 1,7,-1
 158 1108 l 1,4,-1
882 1064 m 1,8,-1
 882 968 l 1,9,-1
 816 968 l 1,10,-1
 816 1064 l 1,11,-1
 882 1064 l 1,8,-1
150 184 m 1,12,-1
 150 132 l 1,13,-1
 38 132 l 1,14,-1
 38 184 l 1,15,-1
 150 184 l 1,12,-1
0 84 m 1,16,-1
 0 0 l 1,17,-1
 -118 0 l 1,18,-1
 -118 84 l 1,19,-1
 0 84 l 1,16,-1
86 124 m 1,20,-1
 86 60 l 1,21,-1
 0 60 l 1,22,-1
 0 124 l 1,23,-1
 86 124 l 1,20,-1
230 232 m 1,24,-1
 230 136 l 1,25,-1
 114 136 l 1,26,-1
 114 232 l 1,27,-1
 230 232 l 1,24,-1
386 340 m 1,28,-1
 386 248 l 1,29,-1
 258 248 l 1,30,-1
 258 340 l 1,31,-1
 386 340 l 1,28,-1
518 424 m 1,32,-1
 518 356 l 1,33,-1
 410 356 l 1,34,-1
 410 424 l 1,35,-1
 518 424 l 1,32,-1
610 512 m 1,36,-1
 610 424 l 1,37,-1
 518 424 l 1,38,-1
 518 512 l 1,39,-1
 610 512 l 1,36,-1
794 616 m 1,40,-1
 794 516 l 1,41,-1
 650 516 l 1,42,-1
 650 616 l 1,43,-1
 794 616 l 1,40,-1
798 144 m 1,44,-1
 822 144 l 1,45,-1
 822 104 l 1,46,-1
 798 104 l 1,47,-1
 798 144 l 1,44,-1
670 256 m 1,48,-1
 798 256 l 1,49,-1
 798 144 l 1,50,-1
 670 144 l 1,51,-1
 670 256 l 1,48,-1
570 340 m 1,52,-1
 670 340 l 1,53,-1
 670 256 l 1,54,-1
 570 256 l 1,55,-1
 570 340 l 1,52,-1
494 424 m 1,56,-1
 546 424 l 1,57,-1
 546 340 l 1,58,-1
 494 340 l 1,59,-1
 494 424 l 1,56,-1
358 504 m 1,60,-1
 458 504 l 1,61,-1
 458 440 l 1,62,-1
 358 440 l 1,63,-1
 358 504 l 1,60,-1
254 624 m 1,64,-1
 358 624 l 1,65,-1
 358 504 l 1,66,-1
 254 504 l 1,67,-1
 254 624 l 1,64,-1
70 768 m 1,68,-1
 174 768 l 1,69,-1
 174 648 l 1,70,-1
 70 648 l 1,71,-1
 70 768 l 1,68,-1
22 604 m 1,72,-1
 138 604 l 1,73,-1
 138 488 l 1,74,-1
 22 488 l 1,75,-1
 22 604 l 1,72,-1
110 652 m 1,76,-1
 214 652 l 1,77,-1
 214 564 l 1,78,-1
 110 564 l 1,79,-1
 110 652 l 1,76,-1
186 712 m 1,80,-1
 298 712 l 1,81,-1
 298 620 l 1,82,-1
 186 620 l 1,83,-1
 186 712 l 1,80,-1
326 740 m 1,84,-1
 422 740 l 1,85,-1
 422 656 l 1,86,-1
 326 656 l 1,87,-1
 326 740 l 1,84,-1
410 772 m 1,88,-1
 518 772 l 1,89,-1
 518 680 l 1,90,-1
 410 680 l 1,91,-1
 410 772 l 1,88,-1
530 820 m 1,92,-1
 650 820 l 1,93,-1
 650 704 l 1,94,-1
 530 704 l 1,95,-1
 530 820 l 1,92,-1
638 864 m 1,96,-1
 718 864 l 1,97,-1
 718 820 l 1,98,-1
 638 820 l 1,99,-1
 638 864 l 1,96,-1
714 952 m 1,100,-1
 806 952 l 1,101,-1
 806 864 l 1,102,-1
 714 864 l 1,103,-1
 714 952 l 1,100,-1
778 800 m 1,104,-1
 834 800 l 1,105,-1
 834 748 l 1,106,-1
 778 748 l 1,107,-1
 778 800 l 1,104,-1
678 817 m 1,108,-1
 746 817 l 1,109,-1
 746 780 l 1,110,-1
 678 780 l 1,111,-1
 678 817 l 1,108,-1
518 864 m 1,112,-1
 638 864 l 1,113,-1
 638 788 l 1,114,-1
 518 788 l 1,115,-1
 518 864 l 1,112,-1
406 916 m 1,116,-1
 498 916 l 1,117,-1
 498 832 l 1,118,-1
 406 832 l 1,119,-1
 406 916 l 1,116,-1
294 940 m 1,120,-1
 366 940 l 1,121,-1
 366 900 l 1,122,-1
 294 900 l 1,123,-1
 294 940 l 1,120,-1
174 1012 m 1,124,-1
 270 1012 l 1,125,-1
 270 940 l 1,126,-1
 174 940 l 1,127,-1
 174 1012 l 1,124,-1
114 1040 m 1,128,-1
 178 1040 l 1,129,-1
 178 956 l 1,130,-1
 106 956 l 1,131,-1
 114 1040 l 1,128,-1
0 1136 m 1,132,-1
 78 1136 l 1,133,-1
 78 1056 l 1,134,-1
 0 1056 l 1,135,-1
 0 1136 l 1,132,-1
223 73 m 1,136,-1
 223 210 l 1,137,-1
 361 210 l 1,138,-1
 361 73 l 1,139,-1
 223 73 l 1,136,-1
375 73 m 1,140,-1
 375 210 l 1,141,-1
 512 210 l 1,142,-1
 512 73 l 1,143,-1
 375 73 l 1,140,-1
526 73 m 1,144,-1
 526 210 l 1,145,-1
 664 210 l 1,146,-1
 664 73 l 1,147,-1
 526 73 l 1,144,-1
72 224 m 1,148,-1
 72 362 l 1,149,-1
 209 362 l 1,150,-1
 209 224 l 1,151,-1
 72 224 l 1,148,-1
678 224 m 1,152,-1
 678 362 l 1,153,-1
 816 362 l 1,154,-1
 816 224 l 1,155,-1
 678 224 l 1,152,-1
72 375 m 1,156,-1
 72 513 l 1,157,-1
 209 513 l 1,158,-1
 209 375 l 1,159,-1
 72 375 l 1,156,-1
678 376 m 1,160,-1
 678 514 l 1,161,-1
 816 514 l 1,162,-1
 816 376 l 1,163,-1
 678 376 l 1,160,-1
72 527 m 1,164,-1
 72 665 l 1,165,-1
 209 665 l 1,166,-1
 209 527 l 1,167,-1
 72 527 l 1,164,-1
678 527 m 1,168,-1
 678 665 l 1,169,-1
 816 665 l 1,170,-1
 816 527 l 1,171,-1
 678 527 l 1,168,-1
72 679 m 1,172,-1
 72 816 l 1,173,-1
 209 816 l 1,174,-1
 209 679 l 1,175,-1
 72 679 l 1,172,-1
678 679 m 1,176,-1
 678 817 l 1,177,-1
 816 817 l 1,178,-1
 816 679 l 1,179,-1
 678 679 l 1,176,-1
72 830 m 1,180,-1
 72 968 l 1,181,-1
 209 968 l 1,182,-1
 209 830 l 1,183,-1
 72 830 l 1,180,-1
678 830 m 1,184,-1
 678 968 l 1,185,-1
 816 968 l 1,186,-1
 816 830 l 1,187,-1
 678 830 l 1,184,-1
223 982 m 1,188,-1
 223 1120 l 1,189,-1
 361 1120 l 1,190,-1
 361 982 l 1,191,-1
 223 982 l 1,188,-1
375 982 m 1,192,-1
 375 1120 l 1,193,-1
 512 1120 l 1,194,-1
 512 982 l 1,195,-1
 375 982 l 1,192,-1
526 982 m 1,196,-1
 526 1120 l 1,197,-1
 664 1120 l 1,198,-1
 664 982 l 1,199,-1
 526 982 l 1,196,-1
EndSplineSet
Validated: 3077
EndChar

StartChar: P
Encoding: 80 80 51
Width: 857
GlyphClass: 1
Flags: W
LayerCount: 2
Fore
SplineSet
-170 648 m 5,0,-1
 -42 648 l 1,1,-1
 -42 556 l 1,2,-1
 -170 556 l 1,3,-1
 -170 648 l 5,0,-1
-118 556 m 1,4,-1
 58 556 l 1,5,-1
 58 428 l 1,6,-1
 -118 428 l 1,7,-1
 -118 556 l 1,4,-1
922 840 m 1,8,-1
 1038 840 l 1,9,-1
 1038 744 l 1,10,-1
 922 744 l 1,11,-1
 922 840 l 1,8,-1
786 712 m 1,12,-1
 922 712 l 1,13,-1
 922 624 l 1,14,-1
 786 624 l 1,15,-1
 786 712 l 1,12,-1
857 520 m 1,16,-1
 966 520 l 1,17,-1
 966 412 l 1,18,-1
 857 412 l 1,19,-1
 857 520 l 1,16,-1
746 264 m 1,20,-1
 914 264 l 1,21,-1
 914 124 l 1,22,-1
 746 124 l 1,23,-1
 746 264 l 1,20,-1
610 348 m 1,24,-1
 726 348 l 1,25,-1
 726 232 l 1,26,-1
 610 232 l 1,27,-1
 610 348 l 1,24,-1
450 432 m 1,28,-1
 574 432 l 1,29,-1
 574 312 l 1,30,-1
 450 312 l 1,31,-1
 450 432 l 1,28,-1
250 540 m 1,32,-1
 410 540 l 1,33,-1
 410 424 l 1,34,-1
 250 424 l 1,35,-1
 250 540 l 1,32,-1
114 692 m 1,36,-1
 202 692 l 1,37,-1
 202 572 l 1,38,-1
 114 572 l 1,39,-1
 114 692 l 1,36,-1
-74 848 m 1,40,-1
 62 848 l 1,41,-1
 62 704 l 1,42,-1
 -74 704 l 1,43,-1
 -74 848 l 1,40,-1
-54 84 m 1,44,-1
 -22 84 l 1,45,-1
 -22 -24 l 1,46,-1
 -54 -24 l 1,47,-1
 -54 84 l 1,44,-1
-54 252 m 1,48,-1
 130 252 l 1,49,-1
 130 84 l 1,50,-1
 -54 84 l 1,51,-1
 -54 252 l 1,48,-1
38 356 m 1,52,-1
 134 356 l 1,53,-1
 134 244 l 1,54,-1
 38 244 l 1,55,-1
 38 356 l 1,52,-1
134 480 m 1,56,-1
 294 480 l 1,57,-1
 294 380 l 1,58,-1
 134 380 l 1,59,-1
 134 480 l 1,56,-1
214 600 m 1,60,-1
 358 600 l 1,61,-1
 358 472 l 1,62,-1
 214 472 l 1,63,-1
 214 600 l 1,60,-1
274 740 m 1,64,-1
 422 740 l 1,65,-1
 422 596 l 1,66,-1
 274 596 l 1,67,-1
 274 740 l 1,64,-1
382 864 m 1,68,-1
 518 864 l 1,69,-1
 518 748 l 1,70,-1
 382 748 l 1,71,-1
 382 864 l 1,68,-1
422 952 m 1,72,-1
 538 952 l 1,73,-1
 538 840 l 1,74,-1
 422 840 l 1,75,-1
 422 952 l 1,72,-1
502 1056 m 1,76,-1
 634 1056 l 1,77,-1
 634 924 l 1,78,-1
 502 924 l 1,79,-1
 502 1056 l 1,76,-1
570 1192 m 1,80,-1
 694 1192 l 1,81,-1
 694 1052 l 1,82,-1
 570 1052 l 1,83,-1
 570 1192 l 1,80,-1
642 92 m 1,84,-1
 710 92 l 1,85,-1
 710 0 l 1,86,-1
 642 0 l 1,87,-1
 642 92 l 1,84,-1
538 252 m 1,88,-1
 690 252 l 1,89,-1
 690 104 l 1,90,-1
 538 104 l 1,91,-1
 538 252 l 1,88,-1
478 400 m 1,92,-1
 618 400 l 1,93,-1
 618 268 l 1,94,-1
 478 268 l 1,95,-1
 478 400 l 1,92,-1
438 516 m 1,96,-1
 566 516 l 1,97,-1
 566 400 l 1,98,-1
 438 400 l 1,99,-1
 438 516 l 1,96,-1
374 636 m 1,100,-1
 478 636 l 1,101,-1
 478 532 l 1,102,-1
 374 532 l 1,103,-1
 374 636 l 1,100,-1
286 776 m 1,104,-1
 398 776 l 1,105,-1
 398 664 l 1,106,-1
 286 664 l 1,107,-1
 286 776 l 1,104,-1
194 900 m 1,108,-1
 306 900 l 1,109,-1
 306 808 l 1,110,-1
 194 808 l 1,111,-1
 194 900 l 1,108,-1
150 1024 m 1,112,-1
 234 1024 l 1,113,-1
 234 932 l 1,114,-1
 150 932 l 1,115,-1
 150 1024 l 1,112,-1
0 1172 m 1,116,-1
 150 1172 l 1,117,-1
 150 1052 l 1,118,-1
 0 1052 l 1,119,-1
 0 1172 l 1,116,-1
72 73 m 1,120,-1
 72 210 l 1,121,-1
 210 210 l 1,122,-1
 210 73 l 1,123,-1
 72 73 l 1,120,-1
72 224 m 1,124,-1
 72 362 l 1,125,-1
 209 362 l 1,126,-1
 209 224 l 1,127,-1
 72 224 l 1,124,-1
72 375 m 1,128,-1
 72 513 l 1,129,-1
 209 513 l 1,130,-1
 209 375 l 1,131,-1
 72 375 l 1,128,-1
72 527 m 1,132,-1
 72 665 l 1,133,-1
 209 665 l 1,134,-1
 209 527 l 1,135,-1
 72 527 l 1,132,-1
223 527 m 1,136,-1
 223 665 l 1,137,-1
 361 665 l 1,138,-1
 361 527 l 1,139,-1
 223 527 l 1,136,-1
375 527 m 1,140,-1
 375 665 l 1,141,-1
 513 665 l 1,142,-1
 513 527 l 1,143,-1
 375 527 l 1,140,-1
526 527 m 1,144,-1
 526 665 l 1,145,-1
 664 665 l 1,146,-1
 664 527 l 1,147,-1
 526 527 l 1,144,-1
72 679 m 1,148,-1
 72 816 l 1,149,-1
 209 816 l 1,150,-1
 209 679 l 1,151,-1
 72 679 l 1,148,-1
678 679 m 1,152,-1
 678 817 l 1,153,-1
 816 817 l 1,154,-1
 816 679 l 1,155,-1
 678 679 l 1,152,-1
72 830 m 1,156,-1
 72 968 l 1,157,-1
 209 968 l 1,158,-1
 209 830 l 1,159,-1
 72 830 l 1,156,-1
678 830 m 1,160,-1
 678 968 l 1,161,-1
 816 968 l 1,162,-1
 816 830 l 1,163,-1
 678 830 l 1,160,-1
72 982 m 1,164,-1
 72 1120 l 1,165,-1
 209 1120 l 1,166,-1
 209 982 l 1,167,-1
 72 982 l 1,164,-1
223 982 m 1,168,-1
 223 1120 l 1,169,-1
 361 1120 l 1,170,-1
 361 982 l 1,171,-1
 223 982 l 1,168,-1
375 982 m 1,172,-1
 375 1120 l 1,173,-1
 512 1120 l 1,174,-1
 512 982 l 1,175,-1
 375 982 l 1,172,-1
526 982 m 1,176,-1
 526 1120 l 1,177,-1
 664 1120 l 1,178,-1
 664 982 l 1,179,-1
 526 982 l 1,176,-1
EndSplineSet
Validated: 3077
EndChar

StartChar: Q
Encoding: 81 81 52
Width: 857
GlyphClass: 1
Flags: W
LayerCount: 2
Fore
SplineSet
-94 988 m 5,0,-1
 86 988 l 1,1,-1
 86 856 l 1,2,-1
 -94 856 l 1,3,-1
 -94 988 l 5,0,-1
-102 160 m 1,4,-1
 0 160 l 1,5,-1
 0 28 l 1,6,-1
 -102 28 l 1,7,-1
 -102 160 l 1,4,-1
-66 248 m 1,8,-1
 54 248 l 1,9,-1
 54 116 l 1,10,-1
 -66 116 l 1,11,-1
 -66 248 l 1,8,-1
94 360 m 1,12,-1
 178 360 l 1,13,-1
 178 228 l 1,14,-1
 94 228 l 1,15,-1
 94 360 l 1,12,-1
126 472 m 1,16,-1
 262 472 l 1,17,-1
 262 344 l 1,18,-1
 126 344 l 1,19,-1
 126 472 l 1,16,-1
218 624 m 1,20,-1
 346 624 l 1,21,-1
 346 460 l 1,22,-1
 218 460 l 1,23,-1
 218 624 l 1,20,-1
350 640 m 1,24,-1
 482 640 l 1,25,-1
 482 532 l 1,26,-1
 350 532 l 1,27,-1
 350 640 l 1,24,-1
478 704 m 1,28,-1
 574 704 l 1,29,-1
 574 616 l 1,30,-1
 478 616 l 1,31,-1
 478 704 l 1,28,-1
582 792 m 1,32,-1
 710 792 l 1,33,-1
 710 680 l 1,34,-1
 582 680 l 1,35,-1
 582 792 l 1,32,-1
638 860 m 1,36,-1
 794 860 l 1,37,-1
 794 744 l 1,38,-1
 638 744 l 1,39,-1
 638 860 l 1,36,-1
726 928 m 1,40,-1
 857 928 l 1,41,-1
 857 820 l 1,42,-1
 726 820 l 1,43,-1
 726 928 l 1,40,-1
794 1036 m 1,44,-1
 886 1036 l 1,45,-1
 886 924 l 1,46,-1
 794 924 l 1,47,-1
 794 1036 l 1,44,-1
918 972 m 1,48,-1
 918 956 l 1,49,-1
 722 956 l 1,50,-1
 722 972 l 1,51,-1
 918 972 l 1,48,-1
570 1152 m 1,52,-1
 702 1152 l 1,53,-1
 702 1036 l 1,54,-1
 570 1036 l 1,55,-1
 570 1152 l 1,52,-1
542 1028 m 1,56,-1
 646 1028 l 1,57,-1
 646 916 l 1,58,-1
 542 916 l 1,59,-1
 542 1028 l 1,56,-1
534 860 m 1,60,-1
 638 860 l 1,61,-1
 638 764 l 1,62,-1
 534 764 l 1,63,-1
 534 860 l 1,60,-1
522 712 m 1,64,-1
 606 712 l 1,65,-1
 606 620 l 1,66,-1
 522 620 l 1,67,-1
 522 712 l 1,64,-1
482 576 m 1,68,-1
 610 576 l 1,69,-1
 610 532 l 1,70,-1
 482 532 l 1,71,-1
 482 576 l 1,68,-1
466 468 m 1,72,-1
 578 468 l 1,73,-1
 578 424 l 1,74,-1
 466 424 l 1,75,-1
 466 468 l 1,72,-1
478 348 m 1,76,-1
 574 348 l 1,77,-1
 574 284 l 1,78,-1
 478 284 l 1,79,-1
 478 348 l 1,76,-1
375 210 m 1,80,-1
 538 210 l 1,81,-1
 538 144 l 1,82,-1
 375 144 l 1,83,-1
 375 210 l 1,80,-1
326 140 m 1,84,-1
 418 140 l 1,85,-1
 418 28 l 1,86,-1
 326 28 l 1,87,-1
 326 140 l 1,84,-1
270 296 m 1,88,-1
 382 296 l 1,89,-1
 382 188 l 1,90,-1
 270 188 l 1,91,-1
 270 296 l 1,88,-1
222 488 m 1,92,-1
 374 488 l 1,93,-1
 374 320 l 1,94,-1
 222 320 l 1,95,-1
 222 488 l 1,92,-1
186 640 m 1,96,-1
 350 640 l 1,97,-1
 350 524 l 1,98,-1
 186 524 l 1,99,-1
 186 640 l 1,96,-1
182 800 m 1,100,-1
 258 800 l 1,101,-1
 258 704 l 1,102,-1
 182 704 l 1,103,-1
 182 800 l 1,100,-1
86 1012 m 1,104,-1
 298 1012 l 1,105,-1
 298 856 l 1,106,-1
 86 856 l 1,107,-1
 86 1012 l 1,104,-1
-22 1152 m 1,108,-1
 90 1152 l 1,109,-1
 90 1044 l 1,110,-1
 -22 1044 l 1,111,-1
 -22 1152 l 1,108,-1
223 73 m 1,112,-1
 223 210 l 1,113,-1
 361 210 l 1,114,-1
 361 73 l 1,115,-1
 223 73 l 1,112,-1
375 73 m 1,116,-1
 375 210 l 1,117,-1
 512 210 l 1,118,-1
 512 73 l 1,119,-1
 375 73 l 1,116,-1
678 73 m 1,120,-1
 678 210 l 1,121,-1
 816 210 l 1,122,-1
 816 73 l 1,123,-1
 678 73 l 1,120,-1
72 224 m 1,124,-1
 72 362 l 1,125,-1
 209 362 l 1,126,-1
 209 224 l 1,127,-1
 72 224 l 1,124,-1
526 224 m 1,128,-1
 526 362 l 1,129,-1
 664 362 l 1,130,-1
 664 224 l 1,131,-1
 526 224 l 1,128,-1
72 375 m 1,132,-1
 72 513 l 1,133,-1
 209 513 l 1,134,-1
 209 375 l 1,135,-1
 72 375 l 1,132,-1
375 376 m 1,136,-1
 375 513 l 1,137,-1
 512 513 l 1,138,-1
 512 376 l 1,139,-1
 375 376 l 1,136,-1
678 376 m 1,140,-1
 678 514 l 1,141,-1
 816 514 l 1,142,-1
 816 376 l 1,143,-1
 678 376 l 1,140,-1
72 527 m 1,144,-1
 72 665 l 1,145,-1
 209 665 l 1,146,-1
 209 527 l 1,147,-1
 72 527 l 1,144,-1
678 527 m 1,148,-1
 678 665 l 1,149,-1
 816 665 l 1,150,-1
 816 527 l 1,151,-1
 678 527 l 1,148,-1
72 679 m 1,152,-1
 72 816 l 1,153,-1
 209 816 l 1,154,-1
 209 679 l 1,155,-1
 72 679 l 1,152,-1
678 679 m 1,156,-1
 678 817 l 1,157,-1
 816 817 l 1,158,-1
 816 679 l 1,159,-1
 678 679 l 1,156,-1
72 830 m 1,160,-1
 72 968 l 1,161,-1
 209 968 l 1,162,-1
 209 830 l 1,163,-1
 72 830 l 1,160,-1
678 830 m 1,164,-1
 678 968 l 1,165,-1
 816 968 l 1,166,-1
 816 830 l 1,167,-1
 678 830 l 1,164,-1
223 982 m 1,168,-1
 223 1120 l 1,169,-1
 361 1120 l 1,170,-1
 361 982 l 1,171,-1
 223 982 l 1,168,-1
375 982 m 1,172,-1
 375 1120 l 1,173,-1
 512 1120 l 1,174,-1
 512 982 l 1,175,-1
 375 982 l 1,172,-1
526 982 m 1,176,-1
 526 1120 l 1,177,-1
 664 1120 l 1,178,-1
 664 982 l 1,179,-1
 526 982 l 1,176,-1
EndSplineSet
Validated: 3077
EndChar

StartChar: R
Encoding: 82 82 53
Width: 857
GlyphClass: 1
Flags: W
LayerCount: 2
Fore
SplineSet
810 156 m 5,0,-1
 974 156 l 1,1,-1
 974 28 l 1,2,-1
 810 28 l 1,3,-1
 810 156 l 5,0,-1
794 268 m 1,4,-1
 882 268 l 1,5,-1
 882 200 l 1,6,-1
 794 200 l 1,7,-1
 794 268 l 1,4,-1
790 448 m 1,8,-1
 938 448 l 1,9,-1
 938 324 l 1,10,-1
 790 324 l 1,11,-1
 790 448 l 1,8,-1
816 679 m 1,12,-1
 926 679 l 1,13,-1
 926 508 l 1,14,-1
 816 508 l 1,15,-1
 816 679 l 1,12,-1
774 832 m 1,16,-1
 882 832 l 1,17,-1
 882 692 l 1,18,-1
 774 692 l 1,19,-1
 774 832 l 1,16,-1
774 944 m 1,20,-1
 857 944 l 1,21,-1
 857 832 l 1,22,-1
 774 832 l 1,23,-1
 774 944 l 1,20,-1
774 1112 m 1,24,-1
 882 1112 l 1,25,-1
 882 944 l 1,26,-1
 774 944 l 1,27,-1
 774 1112 l 1,24,-1
658 1180 m 1,28,-1
 802 1180 l 1,29,-1
 802 1084 l 1,30,-1
 658 1084 l 1,31,-1
 658 1180 l 1,28,-1
570 1084 m 1,32,-1
 726 1084 l 1,33,-1
 726 992 l 1,34,-1
 570 992 l 1,35,-1
 570 1084 l 1,32,-1
512 982 m 1,36,-1
 674 982 l 1,37,-1
 674 916 l 1,38,-1
 512 916 l 1,39,-1
 512 982 l 1,36,-1
490 884 m 1,40,-1
 610 884 l 1,41,-1
 610 836 l 1,42,-1
 490 836 l 1,43,-1
 490 884 l 1,40,-1
474 780 m 1,44,-1
 662 780 l 1,45,-1
 662 708 l 1,46,-1
 474 708 l 1,47,-1
 474 780 l 1,44,-1
490 684 m 1,48,-1
 634 684 l 1,49,-1
 634 604 l 1,50,-1
 490 604 l 1,51,-1
 490 684 l 1,48,-1
494 572 m 1,52,-1
 622 572 l 1,53,-1
 622 504 l 1,54,-1
 494 504 l 1,55,-1
 494 572 l 1,52,-1
482 476 m 1,56,-1
 630 476 l 1,57,-1
 630 408 l 1,58,-1
 482 408 l 1,59,-1
 482 476 l 1,56,-1
438 416 m 1,60,-1
 550 416 l 1,61,-1
 550 332 l 1,62,-1
 438 332 l 1,63,-1
 438 416 l 1,60,-1
450 260 m 1,64,-1
 494 260 l 1,65,-1
 494 236 l 1,66,-1
 450 236 l 1,67,-1
 450 260 l 1,64,-1
350 208 m 1,68,-1
 462 208 l 1,69,-1
 462 100 l 1,70,-1
 350 100 l 1,71,-1
 350 208 l 1,68,-1
310 372 m 1,72,-1
 454 372 l 1,73,-1
 454 236 l 1,74,-1
 310 236 l 1,75,-1
 310 372 l 1,72,-1
310 540 m 1,76,-1
 438 540 l 1,77,-1
 438 416 l 1,78,-1
 310 416 l 1,79,-1
 310 540 l 1,76,-1
262 648 m 1,80,-1
 410 648 l 1,81,-1
 410 572 l 1,82,-1
 262 572 l 1,83,-1
 262 648 l 1,80,-1
238 764 m 1,84,-1
 375 764 l 1,85,-1
 375 665 l 1,86,-1
 238 665 l 1,87,-1
 238 764 l 1,84,-1
238 872 m 1,88,-1
 366 872 l 1,89,-1
 366 764 l 1,90,-1
 238 764 l 1,91,-1
 238 872 l 1,88,-1
166 1032 m 1,92,-1
 326 1032 l 1,93,-1
 326 924 l 1,94,-1
 166 924 l 1,95,-1
 166 1032 l 1,92,-1
138 1184 m 1,96,-1
 254 1184 l 1,97,-1
 254 1064 l 1,98,-1
 138 1064 l 1,99,-1
 138 1184 l 1,96,-1
72 73 m 1,100,-1
 72 210 l 1,101,-1
 209 210 l 1,102,-1
 209 73 l 1,103,-1
 72 73 l 1,100,-1
678 73 m 1,104,-1
 678 210 l 1,105,-1
 816 210 l 1,106,-1
 816 73 l 1,107,-1
 678 73 l 1,104,-1
72 224 m 1,108,-1
 72 362 l 1,109,-1
 209 362 l 1,110,-1
 209 224 l 1,111,-1
 72 224 l 1,108,-1
526 224 m 1,112,-1
 526 362 l 1,113,-1
 664 362 l 1,114,-1
 664 224 l 1,115,-1
 526 224 l 1,112,-1
72 375 m 1,116,-1
 72 513 l 1,117,-1
 209 513 l 1,118,-1
 209 375 l 1,119,-1
 72 375 l 1,116,-1
375 376 m 1,120,-1
 375 514 l 1,121,-1
 512 514 l 1,122,-1
 512 376 l 1,123,-1
 375 376 l 1,120,-1
72 527 m 1,124,-1
 72 665 l 1,125,-1
 209 665 l 1,126,-1
 209 527 l 1,127,-1
 72 527 l 1,124,-1
223 527 m 1,128,-1
 223 665 l 1,129,-1
 361 665 l 1,130,-1
 361 527 l 1,131,-1
 223 527 l 1,128,-1
375 527 m 1,132,-1
 375 665 l 1,133,-1
 512 665 l 1,134,-1
 512 527 l 1,135,-1
 375 527 l 1,132,-1
526 527 m 1,136,-1
 526 665 l 1,137,-1
 664 665 l 1,138,-1
 664 527 l 1,139,-1
 526 527 l 1,136,-1
72 679 m 1,140,-1
 72 816 l 1,141,-1
 209 816 l 1,142,-1
 209 679 l 1,143,-1
 72 679 l 1,140,-1
678 679 m 1,144,-1
 678 817 l 1,145,-1
 816 817 l 1,146,-1
 816 679 l 1,147,-1
 678 679 l 1,144,-1
72 830 m 1,148,-1
 72 968 l 1,149,-1
 209 968 l 1,150,-1
 209 830 l 1,151,-1
 72 830 l 1,148,-1
678 830 m 1,152,-1
 678 968 l 1,153,-1
 816 968 l 1,154,-1
 816 830 l 1,155,-1
 678 830 l 1,152,-1
72 981 m 1,156,-1
 72 1120 l 1,157,-1
 209 1120 l 1,158,-1
 209 981 l 1,159,-1
 72 981 l 1,156,-1
223 982 m 1,160,-1
 223 1120 l 1,161,-1
 361 1120 l 1,162,-1
 361 982 l 1,163,-1
 223 982 l 1,160,-1
375 982 m 1,164,-1
 375 1120 l 1,165,-1
 512 1120 l 1,166,-1
 512 982 l 1,167,-1
 375 982 l 1,164,-1
526 982 m 1,168,-1
 526 1120 l 1,169,-1
 664 1120 l 1,170,-1
 664 982 l 1,171,-1
 526 982 l 1,168,-1
EndSplineSet
Validated: 3077
EndChar

StartChar: S
Encoding: 83 83 54
Width: 857
GlyphClass: 1
Flags: W
LayerCount: 2
Fore
SplineSet
922 504 m 5,0,-1
 1026 504 l 1,1,-1
 1026 416 l 1,2,-1
 922 416 l 1,3,-1
 922 504 l 5,0,-1
746 552 m 1,4,-1
 886 552 l 1,5,-1
 886 460 l 1,6,-1
 746 460 l 1,7,-1
 746 552 l 1,4,-1
438 584 m 1,8,-1
 618 584 l 1,9,-1
 618 480 l 1,10,-1
 438 480 l 1,11,-1
 438 584 l 1,8,-1
226 616 m 1,12,-1
 398 616 l 1,13,-1
 398 500 l 1,14,-1
 226 500 l 1,15,-1
 226 616 l 1,12,-1
22 676 m 1,16,-1
 223 676 l 1,17,-1
 223 527 l 1,18,-1
 22 527 l 1,19,-1
 22 676 l 1,16,-1
750 48 m 1,20,-1
 918 48 l 1,21,-1
 918 -104 l 1,22,-1
 750 -104 l 1,23,-1
 750 48 l 1,20,-1
650 144 m 1,24,-1
 750 144 l 1,25,-1
 750 48 l 1,26,-1
 650 48 l 1,27,-1
 650 144 l 1,24,-1
598 252 m 1,28,-1
 694 252 l 1,29,-1
 694 148 l 1,30,-1
 598 148 l 1,31,-1
 598 252 l 1,28,-1
538 364 m 1,32,-1
 658 364 l 1,33,-1
 658 260 l 1,34,-1
 538 260 l 1,35,-1
 538 364 l 1,32,-1
438 480 m 1,36,-1
 582 480 l 1,37,-1
 582 380 l 1,38,-1
 438 380 l 1,39,-1
 438 480 l 1,36,-1
346 612 m 1,40,-1
 442 612 l 1,41,-1
 442 504 l 1,42,-1
 346 504 l 1,43,-1
 346 612 l 1,40,-1
202 772 m 1,44,-1
 346 772 l 1,45,-1
 346 612 l 1,46,-1
 202 612 l 1,47,-1
 202 772 l 1,44,-1
126 908 m 1,48,-1
 226 908 l 1,49,-1
 226 792 l 1,50,-1
 126 792 l 1,51,-1
 126 908 l 1,48,-1
-22 1112 m 1,52,-1
 118 1112 l 1,53,-1
 118 944 l 1,54,-1
 -22 944 l 1,55,-1
 -22 1112 l 1,52,-1
-74 128 m 1,56,-1
 58 128 l 1,57,-1
 58 0 l 1,58,-1
 -74 0 l 1,59,-1
 -74 128 l 1,56,-1
0 248 m 1,60,-1
 134 248 l 1,61,-1
 134 56 l 1,62,-1
 0 56 l 1,63,-1
 0 248 l 1,60,-1
118 332 m 1,64,-1
 246 332 l 1,65,-1
 246 212 l 1,66,-1
 118 212 l 1,67,-1
 118 332 l 1,64,-1
170 396 m 1,68,-1
 270 396 l 1,69,-1
 270 308 l 1,70,-1
 170 308 l 1,71,-1
 170 396 l 1,68,-1
222 568 m 1,72,-1
 298 568 l 1,73,-1
 298 432 l 1,74,-1
 222 432 l 1,75,-1
 222 568 l 1,72,-1
302 656 m 1,76,-1
 438 656 l 1,77,-1
 438 544 l 1,78,-1
 302 544 l 1,79,-1
 302 656 l 1,76,-1
342 732 m 1,80,-1
 490 732 l 1,81,-1
 490 636 l 1,82,-1
 342 636 l 1,83,-1
 342 732 l 1,80,-1
442 848 m 1,84,-1
 534 848 l 1,85,-1
 534 752 l 1,86,-1
 442 752 l 1,87,-1
 442 848 l 1,84,-1
512 982 m 1,88,-1
 730 982 l 1,89,-1
 730 820 l 1,90,-1
 512 820 l 1,91,-1
 512 982 l 1,88,-1
630 1060 m 1,92,-1
 750 1060 l 1,93,-1
 750 948 l 1,94,-1
 630 948 l 1,95,-1
 630 1060 l 1,92,-1
718 1164 m 1,96,-1
 857 1164 l 1,97,-1
 857 1040 l 1,98,-1
 718 1040 l 1,99,-1
 718 1164 l 1,96,-1
223 73 m 1,100,-1
 223 210 l 1,101,-1
 361 210 l 1,102,-1
 361 73 l 1,103,-1
 223 73 l 1,100,-1
375 73 m 1,104,-1
 375 210 l 1,105,-1
 512 210 l 1,106,-1
 512 73 l 1,107,-1
 375 73 l 1,104,-1
526 73 m 1,108,-1
 526 210 l 1,109,-1
 664 210 l 1,110,-1
 664 73 l 1,111,-1
 526 73 l 1,108,-1
72 224 m 1,112,-1
 72 362 l 1,113,-1
 209 362 l 1,114,-1
 209 224 l 1,115,-1
 72 224 l 1,112,-1
678 224 m 1,116,-1
 678 362 l 1,117,-1
 816 362 l 1,118,-1
 816 224 l 1,119,-1
 678 224 l 1,116,-1
678 376 m 1,120,-1
 678 514 l 1,121,-1
 816 514 l 1,122,-1
 816 376 l 1,123,-1
 678 376 l 1,120,-1
223 527 m 1,124,-1
 223 665 l 1,125,-1
 361 665 l 1,126,-1
 361 527 l 1,127,-1
 223 527 l 1,124,-1
375 527 m 1,128,-1
 375 665 l 1,129,-1
 512 665 l 1,130,-1
 512 527 l 1,131,-1
 375 527 l 1,128,-1
526 527 m 1,132,-1
 526 665 l 1,133,-1
 664 665 l 1,134,-1
 664 527 l 1,135,-1
 526 527 l 1,132,-1
72 679 m 1,136,-1
 72 816 l 1,137,-1
 209 816 l 1,138,-1
 209 679 l 1,139,-1
 72 679 l 1,136,-1
72 830 m 1,140,-1
 72 968 l 1,141,-1
 209 968 l 1,142,-1
 209 830 l 1,143,-1
 72 830 l 1,140,-1
678 830 m 1,144,-1
 678 968 l 1,145,-1
 816 968 l 1,146,-1
 816 830 l 1,147,-1
 678 830 l 1,144,-1
223 982 m 1,148,-1
 223 1120 l 1,149,-1
 361 1120 l 1,150,-1
 361 982 l 1,151,-1
 223 982 l 1,148,-1
375 982 m 1,152,-1
 375 1120 l 1,153,-1
 512 1120 l 1,154,-1
 512 982 l 1,155,-1
 375 982 l 1,152,-1
526 982 m 1,156,-1
 526 1120 l 1,157,-1
 664 1120 l 1,158,-1
 664 982 l 1,159,-1
 526 982 l 1,156,-1
EndSplineSet
Validated: 3077
EndChar

StartChar: T
Encoding: 84 84 55
Width: 857
GlyphClass: 1
Flags: W
LayerCount: 2
Fore
SplineSet
190 540 m 5,0,-1
 258 540 l 1,1,-1
 258 508 l 1,2,-1
 190 508 l 1,3,-1
 190 540 l 5,0,-1
-126 504 m 1,4,-1
 38 504 l 1,5,-1
 38 360 l 1,6,-1
 -126 360 l 1,7,-1
 -126 504 l 1,4,-1
-182 728 m 1,8,-1
 0 728 l 1,9,-1
 0 568 l 1,10,-1
 -182 568 l 1,11,-1
 -182 728 l 1,8,-1
662 512 m 1,12,-1
 822 512 l 1,13,-1
 822 336 l 1,14,-1
 662 336 l 1,15,-1
 662 512 l 1,12,-1
438 568 m 1,16,-1
 626 568 l 1,17,-1
 626 456 l 1,18,-1
 438 456 l 1,19,-1
 438 568 l 1,16,-1
270 708 m 1,20,-1
 438 708 l 1,21,-1
 438 568 l 1,22,-1
 270 568 l 1,23,-1
 270 708 l 1,20,-1
86 784 m 1,24,-1
 230 784 l 1,25,-1
 230 620 l 1,26,-1
 86 620 l 1,27,-1
 86 784 l 1,24,-1
810 1172 m 1,28,-1
 1006 1172 l 1,29,-1
 1006 1100 l 1,30,-1
 810 1100 l 1,31,-1
 810 1172 l 1,28,-1
710 1116 m 1,32,-1
 890 1116 l 1,33,-1
 890 996 l 1,34,-1
 710 996 l 1,35,-1
 710 1116 l 1,32,-1
578 1052 m 1,36,-1
 806 1052 l 1,37,-1
 806 924 l 1,38,-1
 578 924 l 1,39,-1
 578 1052 l 1,36,-1
514 876 m 1,40,-1
 718 876 l 1,41,-1
 718 768 l 1,42,-1
 514 768 l 1,43,-1
 514 876 l 1,40,-1
442 784 m 1,44,-1
 634 784 l 1,45,-1
 634 680 l 1,46,-1
 442 680 l 1,47,-1
 442 784 l 1,44,-1
378 700 m 1,48,-1
 554 700 l 1,49,-1
 554 596 l 1,50,-1
 378 596 l 1,51,-1
 378 700 l 1,48,-1
350 516 m 1,52,-1
 514 516 l 1,53,-1
 514 440 l 1,54,-1
 350 440 l 1,55,-1
 350 516 l 1,52,-1
278 396 m 1,56,-1
 426 396 l 1,57,-1
 426 340 l 1,58,-1
 278 340 l 1,59,-1
 278 396 l 1,56,-1
202 332 m 1,60,-1
 342 332 l 1,61,-1
 342 264 l 1,62,-1
 202 264 l 1,63,-1
 202 332 l 1,60,-1
102 252 m 1,64,-1
 270 252 l 1,65,-1
 270 168 l 1,66,-1
 102 168 l 1,67,-1
 102 252 l 1,64,-1
78 168 m 1,68,-1
 178 168 l 1,69,-1
 178 84 l 1,70,-1
 78 84 l 1,71,-1
 78 168 l 1,68,-1
734 156 m 1,72,-1
 830 156 l 1,73,-1
 830 0 l 1,74,-1
 734 0 l 1,75,-1
 734 156 l 1,72,-1
594 284 m 1,76,-1
 734 284 l 1,77,-1
 734 156 l 1,78,-1
 594 156 l 1,79,-1
 594 284 l 1,76,-1
513 362 m 1,80,-1
 638 362 l 1,81,-1
 638 288 l 1,82,-1
 513 288 l 1,83,-1
 513 362 l 1,80,-1
454 516 m 1,84,-1
 530 516 l 1,85,-1
 530 412 l 1,86,-1
 454 412 l 1,87,-1
 454 516 l 1,84,-1
390 620 m 1,88,-1
 490 620 l 1,89,-1
 490 504 l 1,90,-1
 390 504 l 1,91,-1
 390 620 l 1,88,-1
326 736 m 1,92,-1
 430 736 l 1,93,-1
 430 636 l 1,94,-1
 326 636 l 1,95,-1
 326 736 l 1,92,-1
266 868 m 1,96,-1
 386 868 l 1,97,-1
 386 760 l 1,98,-1
 266 760 l 1,99,-1
 266 868 l 1,96,-1
158 972 m 1,100,-1
 302 972 l 1,101,-1
 302 868 l 1,102,-1
 158 868 l 1,103,-1
 158 972 l 1,100,-1
98 1092 m 1,104,-1
 174 1092 l 1,105,-1
 174 1004 l 1,106,-1
 98 1004 l 1,107,-1
 98 1092 l 1,104,-1
-22 1180 m 1,108,-1
 98 1180 l 1,109,-1
 98 1092 l 1,110,-1
 -22 1092 l 1,111,-1
 -22 1180 l 1,108,-1
375 73 m 1,112,-1
 375 210 l 1,113,-1
 513 210 l 1,114,-1
 513 73 l 1,115,-1
 375 73 l 1,112,-1
375 224 m 1,116,-1
 375 362 l 1,117,-1
 513 362 l 1,118,-1
 513 224 l 1,119,-1
 375 224 l 1,116,-1
375 376 m 1,120,-1
 375 514 l 1,121,-1
 513 514 l 1,122,-1
 513 376 l 1,123,-1
 375 376 l 1,120,-1
375 527 m 1,124,-1
 375 665 l 1,125,-1
 512 665 l 1,126,-1
 512 527 l 1,127,-1
 375 527 l 1,124,-1
375 679 m 1,128,-1
 375 816 l 1,129,-1
 512 816 l 1,130,-1
 512 679 l 1,131,-1
 375 679 l 1,128,-1
375 830 m 1,132,-1
 375 968 l 1,133,-1
 512 968 l 1,134,-1
 512 830 l 1,135,-1
 375 830 l 1,132,-1
72 982 m 1,136,-1
 72 1120 l 1,137,-1
 209 1120 l 1,138,-1
 209 982 l 1,139,-1
 72 982 l 1,136,-1
223 982 m 1,140,-1
 223 1120 l 1,141,-1
 361 1120 l 1,142,-1
 361 982 l 1,143,-1
 223 982 l 1,140,-1
375 982 m 1,144,-1
 375 1120 l 1,145,-1
 512 1120 l 1,146,-1
 512 982 l 1,147,-1
 375 982 l 1,144,-1
526 982 m 1,148,-1
 526 1120 l 1,149,-1
 664 1120 l 1,150,-1
 664 982 l 1,151,-1
 526 982 l 1,148,-1
678 982 m 1,152,-1
 678 1120 l 1,153,-1
 816 1120 l 1,154,-1
 816 982 l 1,155,-1
 678 982 l 1,152,-1
EndSplineSet
Validated: 3077
EndChar

StartChar: U
Encoding: 85 85 56
Width: 857
GlyphClass: 1
Flags: W
LayerCount: 2
Fore
SplineSet
-62 56 m 5,0,-1
 26 56 l 1,1,-1
 26 -108 l 1,2,-1
 -62 -108 l 1,3,-1
 -62 56 l 5,0,-1
106 100 m 1,4,-1
 142 100 l 1,5,-1
 142 0 l 1,6,-1
 106 0 l 1,7,-1
 106 100 l 1,4,-1
294 140 m 1,8,-1
 294 60 l 1,9,-1
 294 140 l 1,8,-1
370 320 m 1,10,-1
 582 320 l 1,11,-1
 582 164 l 1,12,-1
 370 164 l 1,13,-1
 370 320 l 1,10,-1
682 280 m 1,14,-1
 806 280 l 1,15,-1
 806 172 l 1,16,-1
 682 172 l 1,17,-1
 682 280 l 1,14,-1
542 440 m 1,18,-1
 682 440 l 1,19,-1
 682 280 l 1,20,-1
 542 280 l 1,21,-1
 542 440 l 1,18,-1
446 548 m 1,22,-1
 542 548 l 1,23,-1
 542 440 l 1,24,-1
 446 440 l 1,25,-1
 446 548 l 1,22,-1
354 644 m 1,26,-1
 402 644 l 1,27,-1
 402 572 l 1,28,-1
 354 572 l 1,29,-1
 354 644 l 1,26,-1
206 768 m 1,30,-1
 350 768 l 1,31,-1
 350 588 l 1,32,-1
 206 588 l 1,33,-1
 206 768 l 1,30,-1
72 830 m 1,34,-1
 186 830 l 1,35,-1
 186 720 l 1,36,-1
 72 720 l 1,37,-1
 72 830 l 1,34,-1
-22 952 m 1,38,-1
 -22 820 l 1,39,-1
 -58 820 l 1,40,-1
 -58 952 l 1,41,-1
 -22 952 l 1,38,-1
810 144 m 1,42,-1
 898 144 l 1,43,-1
 898 44 l 1,44,-1
 810 44 l 1,45,-1
 810 144 l 1,42,-1
626 172 m 1,46,-1
 742 172 l 1,47,-1
 742 72 l 1,48,-1
 626 72 l 1,49,-1
 626 172 l 1,46,-1
434 196 m 1,50,-1
 554 196 l 1,51,-1
 554 72 l 1,52,-1
 434 72 l 1,53,-1
 434 196 l 1,50,-1
282 200 m 1,54,-1
 370 200 l 1,55,-1
 370 104 l 1,56,-1
 282 104 l 1,57,-1
 282 200 l 1,54,-1
209 224 m 1,58,-1
 294 224 l 1,59,-1
 294 140 l 1,60,-1
 209 140 l 1,61,-1
 209 224 l 1,58,-1
0 228 m 1,62,-1
 178 228 l 1,63,-1
 178 108 l 1,64,-1
 0 108 l 1,65,-1
 0 228 l 1,62,-1
-22 336 m 1,66,-1
 34 336 l 1,67,-1
 34 204 l 1,68,-1
 -22 204 l 1,69,-1
 -22 336 l 1,66,-1
-22 432 m 1,70,-1
 38 432 l 1,71,-1
 38 336 l 1,72,-1
 -22 336 l 1,73,-1
 -22 432 l 1,70,-1
118 460 m 1,74,-1
 118 384 l 1,75,-1
 118 460 l 1,74,-1
209 513 m 1,76,-1
 262 513 l 1,77,-1
 262 424 l 1,78,-1
 209 424 l 1,79,-1
 209 513 l 1,76,-1
282 588 m 1,80,-1
 350 588 l 1,81,-1
 350 480 l 1,82,-1
 282 480 l 1,83,-1
 282 588 l 1,80,-1
354 644 m 1,84,-1
 446 644 l 1,85,-1
 446 548 l 1,86,-1
 354 548 l 1,87,-1
 354 644 l 1,84,-1
434 728 m 1,88,-1
 582 728 l 1,89,-1
 582 576 l 1,90,-1
 434 576 l 1,91,-1
 434 728 l 1,88,-1
566 736 m 1,92,-1
 686 736 l 1,93,-1
 686 644 l 1,94,-1
 566 644 l 1,95,-1
 566 736 l 1,92,-1
810 744 m 1,96,-1
 810 679 l 1,97,-1
 810 744 l 1,96,-1
734 800 m 1,98,-1
 810 800 l 1,99,-1
 810 744 l 1,100,-1
 734 744 l 1,101,-1
 734 800 l 1,98,-1
578 880 m 1,102,-1
 674 880 l 1,103,-1
 674 792 l 1,104,-1
 578 792 l 1,105,-1
 578 880 l 1,102,-1
402 972 m 1,106,-1
 610 972 l 1,107,-1
 610 840 l 1,108,-1
 402 840 l 1,109,-1
 402 972 l 1,106,-1
206 1096 m 1,110,-1
 374 1096 l 1,111,-1
 374 932 l 1,112,-1
 206 932 l 1,113,-1
 206 1096 l 1,110,-1
70 1144 m 1,114,-1
 142 1144 l 1,115,-1
 142 1048 l 1,116,-1
 70 1048 l 1,117,-1
 70 1144 l 1,114,-1
-58 1212 m 1,118,-1
 0 1212 l 1,119,-1
 0 1104 l 1,120,-1
 -58 1104 l 1,121,-1
 -58 1212 l 1,118,-1
223 73 m 1,122,-1
 223 210 l 1,123,-1
 361 210 l 1,124,-1
 361 73 l 1,125,-1
 223 73 l 1,122,-1
375 73 m 1,126,-1
 375 210 l 1,127,-1
 512 210 l 1,128,-1
 512 73 l 1,129,-1
 375 73 l 1,126,-1
526 73 m 1,130,-1
 526 210 l 1,131,-1
 664 210 l 1,132,-1
 664 73 l 1,133,-1
 526 73 l 1,130,-1
72 224 m 1,134,-1
 72 362 l 1,135,-1
 209 362 l 1,136,-1
 209 224 l 1,137,-1
 72 224 l 1,134,-1
678 224 m 1,138,-1
 678 362 l 1,139,-1
 816 362 l 1,140,-1
 816 224 l 1,141,-1
 678 224 l 1,138,-1
72 375 m 1,142,-1
 72 513 l 1,143,-1
 209 513 l 1,144,-1
 209 375 l 1,145,-1
 72 375 l 1,142,-1
678 376 m 1,146,-1
 678 514 l 1,147,-1
 816 514 l 1,148,-1
 816 376 l 1,149,-1
 678 376 l 1,146,-1
72 527 m 1,150,-1
 72 665 l 1,151,-1
 209 665 l 1,152,-1
 209 527 l 1,153,-1
 72 527 l 1,150,-1
678 527 m 1,154,-1
 678 665 l 1,155,-1
 816 665 l 1,156,-1
 816 527 l 1,157,-1
 678 527 l 1,154,-1
72 679 m 1,158,-1
 72 816 l 1,159,-1
 209 816 l 1,160,-1
 209 679 l 1,161,-1
 72 679 l 1,158,-1
678 679 m 1,162,-1
 678 817 l 1,163,-1
 816 817 l 1,164,-1
 816 679 l 1,165,-1
 678 679 l 1,162,-1
72 830 m 1,166,-1
 72 968 l 1,167,-1
 209 968 l 1,168,-1
 209 830 l 1,169,-1
 72 830 l 1,166,-1
678 830 m 1,170,-1
 678 968 l 1,171,-1
 816 968 l 1,172,-1
 816 830 l 1,173,-1
 678 830 l 1,170,-1
72 982 m 1,174,-1
 72 1120 l 1,175,-1
 209 1120 l 1,176,-1
 209 982 l 1,177,-1
 72 982 l 1,174,-1
678 982 m 1,178,-1
 678 1120 l 1,179,-1
 816 1120 l 1,180,-1
 816 982 l 1,181,-1
 678 982 l 1,178,-1
EndSplineSet
Validated: 3077
EndChar

StartChar: V
Encoding: 86 86 57
Width: 857
GlyphClass: 1
Flags: W
LayerCount: 2
Fore
SplineSet
890 264 m 5,0,-1
 978 264 l 1,1,-1
 978 128 l 1,2,-1
 890 128 l 1,3,-1
 890 264 l 5,0,-1
622 416 m 1,4,-1
 894 416 l 1,5,-1
 894 212 l 1,6,-1
 622 212 l 1,7,-1
 622 416 l 1,4,-1
361 513 m 1,8,-1
 562 513 l 1,9,-1
 562 332 l 1,10,-1
 361 332 l 1,11,-1
 361 513 l 1,8,-1
210 568 m 1,12,-1
 258 568 l 1,13,-1
 258 480 l 1,14,-1
 210 480 l 1,15,-1
 210 568 l 1,12,-1
70 644 m 1,16,-1
 126 644 l 1,17,-1
 126 516 l 1,18,-1
 70 516 l 1,19,-1
 70 644 l 1,16,-1
42 84 m 1,20,-1
 106 84 l 1,21,-1
 106 0 l 1,22,-1
 42 0 l 1,23,-1
 42 84 l 1,20,-1
110 252 m 1,24,-1
 182 252 l 1,25,-1
 182 108 l 1,26,-1
 110 108 l 1,27,-1
 110 252 l 1,24,-1
110 396 m 1,28,-1
 266 396 l 1,29,-1
 266 252 l 1,30,-1
 110 252 l 1,31,-1
 110 396 l 1,28,-1
223 513 m 1,32,-1
 338 513 l 1,33,-1
 338 392 l 1,34,-1
 223 392 l 1,35,-1
 223 513 l 1,32,-1
278 644 m 1,36,-1
 410 644 l 1,37,-1
 410 548 l 1,38,-1
 278 548 l 1,39,-1
 278 644 l 1,36,-1
426 748 m 1,40,-1
 534 748 l 1,41,-1
 534 628 l 1,42,-1
 426 628 l 1,43,-1
 426 748 l 1,40,-1
490 848 m 1,44,-1
 594 848 l 1,45,-1
 594 728 l 1,46,-1
 490 728 l 1,47,-1
 490 848 l 1,44,-1
522 916 m 1,48,-1
 634 916 l 1,49,-1
 634 808 l 1,50,-1
 522 808 l 1,51,-1
 522 916 l 1,48,-1
626 984 m 1,52,-1
 722 984 l 1,53,-1
 722 888 l 1,54,-1
 626 888 l 1,55,-1
 626 984 l 1,52,-1
626 1104 m 1,56,-1
 762 1104 l 1,57,-1
 762 984 l 1,58,-1
 626 984 l 1,59,-1
 626 1104 l 1,56,-1
650 0 m 1025,60,-1
578 156 m 1,61,-1
 626 156 l 1,62,-1
 626 48 l 1,63,-1
 578 48 l 1,64,-1
 578 156 l 1,61,-1
494 316 m 1,65,-1
 590 316 l 1,66,-1
 590 200 l 1,67,-1
 494 200 l 1,68,-1
 494 316 l 1,65,-1
414 460 m 1,69,-1
 530 460 l 1,70,-1
 530 328 l 1,71,-1
 414 328 l 1,72,-1
 414 460 l 1,69,-1
330 592 m 1,73,-1
 458 592 l 1,74,-1
 458 464 l 1,75,-1
 330 464 l 1,76,-1
 330 592 l 1,73,-1
270 748 m 1,77,-1
 426 748 l 1,78,-1
 426 600 l 1,79,-1
 270 600 l 1,80,-1
 270 748 l 1,77,-1
150 868 m 1,81,-1
 338 868 l 1,82,-1
 338 752 l 1,83,-1
 150 752 l 1,84,-1
 150 868 l 1,81,-1
106 1000 m 1,85,-1
 258 1000 l 1,86,-1
 258 876 l 1,87,-1
 106 876 l 1,88,-1
 106 1000 l 1,85,-1
0 1152 m 1,89,-1
 142 1152 l 1,90,-1
 142 1028 l 1,91,-1
 0 1028 l 1,92,-1
 0 1152 l 1,89,-1
375 73 m 1,93,-1
 375 210 l 1,94,-1
 512 210 l 1,95,-1
 512 73 l 1,96,-1
 375 73 l 1,93,-1
72 679 m 1,97,-1
 72 816 l 1,98,-1
 209 816 l 1,99,-1
 209 679 l 1,100,-1
 72 679 l 1,97,-1
678 679 m 1,101,-1
 678 817 l 1,102,-1
 816 817 l 1,103,-1
 816 679 l 1,104,-1
 678 679 l 1,101,-1
72 830 m 1,105,-1
 72 968 l 1,106,-1
 209 968 l 1,107,-1
 209 830 l 1,108,-1
 72 830 l 1,105,-1
678 830 m 1,109,-1
 678 968 l 1,110,-1
 816 968 l 1,111,-1
 816 830 l 1,112,-1
 678 830 l 1,109,-1
72 982 m 1,113,-1
 72 1120 l 1,114,-1
 209 1120 l 1,115,-1
 209 982 l 1,116,-1
 72 982 l 1,113,-1
678 982 m 1,117,-1
 678 1120 l 1,118,-1
 816 1120 l 1,119,-1
 816 982 l 1,120,-1
 678 982 l 1,117,-1
223 375 m 1,121,-1
 223 513 l 1,122,-1
 361 513 l 1,123,-1
 361 375 l 1,124,-1
 223 375 l 1,121,-1
526 376 m 1,125,-1
 526 514 l 1,126,-1
 664 514 l 1,127,-1
 664 376 l 1,128,-1
 526 376 l 1,125,-1
223 527 m 1,129,-1
 223 665 l 1,130,-1
 361 665 l 1,131,-1
 361 527 l 1,132,-1
 223 527 l 1,129,-1
526 527 m 1,133,-1
 526 665 l 1,134,-1
 664 665 l 1,135,-1
 664 527 l 1,136,-1
 526 527 l 1,133,-1
375 224 m 1,137,-1
 375 362 l 1,138,-1
 513 362 l 1,139,-1
 513 224 l 1,140,-1
 375 224 l 1,137,-1
EndSplineSet
Validated: 3077
EndChar

StartChar: W
Encoding: 87 87 58
Width: 857
GlyphClass: 1
Flags: W
LayerCount: 2
Fore
SplineSet
974 640 m 5,0,-1
 1038 640 l 1,1,-1
 1038 572 l 1,2,-1
 974 572 l 1,3,-1
 974 640 l 5,0,-1
857 700 m 1,4,-1
 946 700 l 1,5,-1
 946 596 l 1,6,-1
 857 596 l 1,7,-1
 857 700 l 1,4,-1
658 740 m 1,8,-1
 774 740 l 1,9,-1
 774 624 l 1,10,-1
 658 624 l 1,11,-1
 658 740 l 1,8,-1
522 756 m 1,12,-1
 622 756 l 1,13,-1
 622 632 l 1,14,-1
 522 632 l 1,15,-1
 522 756 l 1,12,-1
378 784 m 1,16,-1
 506 784 l 1,17,-1
 506 632 l 1,18,-1
 378 632 l 1,19,-1
 378 784 l 1,16,-1
270 740 m 1,20,-1
 326 740 l 1,21,-1
 326 632 l 1,22,-1
 270 632 l 1,23,-1
 270 740 l 1,20,-1
146 692 m 1,24,-1
 209 692 l 1,25,-1
 209 636 l 1,26,-1
 146 636 l 1,27,-1
 146 692 l 1,24,-1
46 680 m 1,28,-1
 122 680 l 1,29,-1
 122 576 l 1,30,-1
 46 576 l 1,31,-1
 46 680 l 1,28,-1
-66 740 m 1,32,-1
 0 740 l 1,33,-1
 0 580 l 1,34,-1
 -66 580 l 1,35,-1
 -66 740 l 1,32,-1
726 72 m 1,36,-1
 726 -24 l 1,37,-1
 626 -24 l 1,38,-1
 626 72 l 1,39,-1
 726 72 l 1,36,-1
798 160 m 1,40,-1
 798 108 l 1,41,-1
 606 108 l 1,42,-1
 606 160 l 1,43,-1
 798 160 l 1,40,-1
730 280 m 1,44,-1
 730 232 l 1,45,-1
 602 232 l 1,46,-1
 602 280 l 1,47,-1
 730 280 l 1,44,-1
698 428 m 1,48,-1
 698 320 l 1,49,-1
 554 320 l 1,50,-1
 554 428 l 1,51,-1
 698 428 l 1,48,-1
734 540 m 1,52,-1
 734 452 l 1,53,-1
 566 452 l 1,54,-1
 566 540 l 1,55,-1
 734 540 l 1,52,-1
678 665 m 1,56,-1
 678 552 l 1,57,-1
 518 552 l 1,58,-1
 518 665 l 1,59,-1
 678 665 l 1,56,-1
658 740 m 1,60,-1
 658 636 l 1,61,-1
 558 636 l 1,62,-1
 558 740 l 1,63,-1
 658 740 l 1,60,-1
618 824 m 1,64,-1
 618 756 l 1,65,-1
 522 756 l 1,66,-1
 522 824 l 1,67,-1
 618 824 l 1,64,-1
618 904 m 1,68,-1
 618 824 l 1,69,-1
 502 824 l 1,70,-1
 502 904 l 1,71,-1
 618 904 l 1,68,-1
566 1020 m 1,72,-1
 646 1020 l 1,73,-1
 646 880 l 1,74,-1
 566 880 l 1,75,-1
 566 1020 l 1,72,-1
386 1128 m 1,76,-1
 566 1128 l 1,77,-1
 566 1020 l 1,78,-1
 386 1020 l 1,79,-1
 386 1128 l 1,76,-1
382 1004 m 1,80,-1
 502 1004 l 1,81,-1
 502 940 l 1,82,-1
 382 940 l 1,83,-1
 382 1004 l 1,80,-1
350 892 m 1,84,-1
 474 892 l 1,85,-1
 474 820 l 1,86,-1
 350 820 l 1,87,-1
 350 892 l 1,84,-1
350 788 m 1,88,-1
 482 788 l 1,89,-1
 482 708 l 1,90,-1
 350 708 l 1,91,-1
 350 788 l 1,88,-1
326 680 m 1,92,-1
 442 680 l 1,93,-1
 442 632 l 1,94,-1
 326 632 l 1,95,-1
 326 680 l 1,92,-1
274 616 m 1,96,-1
 418 616 l 1,97,-1
 418 548 l 1,98,-1
 274 548 l 1,99,-1
 274 616 l 1,96,-1
282 480 m 1,100,-1
 410 480 l 1,101,-1
 410 436 l 1,102,-1
 282 436 l 1,103,-1
 282 480 l 1,100,-1
246 428 m 1,104,-1
 342 428 l 1,105,-1
 342 376 l 1,106,-1
 246 376 l 1,107,-1
 246 428 l 1,104,-1
246 348 m 1,108,-1
 378 348 l 1,109,-1
 378 272 l 1,110,-1
 246 272 l 1,111,-1
 246 348 l 1,108,-1
202 168 m 1,112,-1
 318 168 l 1,113,-1
 318 72 l 1,114,-1
 202 72 l 1,115,-1
 202 168 l 1,112,-1
146 360 m 1,116,-1
 278 360 l 1,117,-1
 278 212 l 1,118,-1
 146 212 l 1,119,-1
 146 360 l 1,116,-1
82 513 m 1,120,-1
 238 513 l 1,121,-1
 238 396 l 1,122,-1
 82 396 l 1,123,-1
 82 513 l 1,120,-1
82 636 m 1,124,-1
 209 636 l 1,125,-1
 209 513 l 1,126,-1
 82 513 l 1,127,-1
 82 636 l 1,124,-1
54 768 m 1,128,-1
 130 768 l 1,129,-1
 130 656 l 1,130,-1
 54 656 l 1,131,-1
 54 768 l 1,128,-1
66 896 m 1,132,-1
 154 896 l 1,133,-1
 154 808 l 1,134,-1
 66 808 l 1,135,-1
 66 896 l 1,132,-1
0 1004 m 1,136,-1
 122 1004 l 1,137,-1
 122 896 l 1,138,-1
 0 896 l 1,139,-1
 0 1004 l 1,136,-1
-22 1132 m 1,140,-1
 94 1132 l 1,141,-1
 94 1016 l 1,142,-1
 -22 1016 l 1,143,-1
 -22 1132 l 1,140,-1
223 73 m 1,144,-1
 223 210 l 1,145,-1
 361 210 l 1,146,-1
 361 73 l 1,147,-1
 223 73 l 1,144,-1
526 73 m 1,148,-1
 526 210 l 1,149,-1
 664 210 l 1,150,-1
 664 73 l 1,151,-1
 526 73 l 1,148,-1
72 224 m 1,152,-1
 72 362 l 1,153,-1
 209 362 l 1,154,-1
 209 224 l 1,155,-1
 72 224 l 1,152,-1
375 224 m 1,156,-1
 375 362 l 1,157,-1
 512 362 l 1,158,-1
 512 224 l 1,159,-1
 375 224 l 1,156,-1
678 224 m 1,160,-1
 678 362 l 1,161,-1
 816 362 l 1,162,-1
 816 224 l 1,163,-1
 678 224 l 1,160,-1
72 375 m 1,164,-1
 72 513 l 1,165,-1
 209 513 l 1,166,-1
 209 375 l 1,167,-1
 72 375 l 1,164,-1
375 376 m 1,168,-1
 375 513 l 1,169,-1
 512 513 l 1,170,-1
 512 376 l 1,171,-1
 375 376 l 1,168,-1
678 376 m 1,172,-1
 678 514 l 1,173,-1
 816 514 l 1,174,-1
 816 376 l 1,175,-1
 678 376 l 1,172,-1
72 527 m 1,176,-1
 72 665 l 1,177,-1
 209 665 l 1,178,-1
 209 527 l 1,179,-1
 72 527 l 1,176,-1
375 527 m 1,180,-1
 375 665 l 1,181,-1
 512 665 l 1,182,-1
 512 527 l 1,183,-1
 375 527 l 1,180,-1
678 527 m 1,184,-1
 678 665 l 1,185,-1
 816 665 l 1,186,-1
 816 527 l 1,187,-1
 678 527 l 1,184,-1
72 679 m 1,188,-1
 72 816 l 1,189,-1
 209 816 l 1,190,-1
 209 679 l 1,191,-1
 72 679 l 1,188,-1
678 679 m 1,192,-1
 678 817 l 1,193,-1
 816 817 l 1,194,-1
 816 679 l 1,195,-1
 678 679 l 1,192,-1
72 830 m 1,196,-1
 72 968 l 1,197,-1
 209 968 l 1,198,-1
 209 830 l 1,199,-1
 72 830 l 1,196,-1
678 830 m 1,200,-1
 678 968 l 1,201,-1
 816 968 l 1,202,-1
 816 830 l 1,203,-1
 678 830 l 1,200,-1
72 981 m 1,204,-1
 72 1120 l 1,205,-1
 209 1120 l 1,206,-1
 209 981 l 1,207,-1
 72 981 l 1,204,-1
678 982 m 1,208,-1
 678 1120 l 1,209,-1
 816 1120 l 1,210,-1
 816 982 l 1,211,-1
 678 982 l 1,208,-1
EndSplineSet
Validated: 3077
EndChar

StartChar: X
Encoding: 88 88 59
Width: 857
GlyphClass: 1
Flags: W
LayerCount: 2
Fore
SplineSet
978 84 m 5,0,-1
 978 -36 l 1,1,-1
 857 -36 l 1,2,-1
 857 84 l 1,3,-1
 978 84 l 5,0,-1
90 1252 m 1,4,-1
 90 1132 l 1,5,-1
 -58 1132 l 1,6,-1
 -58 1252 l 1,7,-1
 90 1252 l 1,4,-1
209 1120 m 1,8,-1
 209 1072 l 1,9,-1
 0 1072 l 1,10,-1
 0 1120 l 1,11,-1
 209 1120 l 1,8,-1
366 1068 m 1,12,-1
 366 1004 l 1,13,-1
 210 1004 l 1,14,-1
 210 1068 l 1,15,-1
 366 1068 l 1,12,-1
490 1044 m 1,16,-1
 490 892 l 1,17,-1
 302 892 l 1,18,-1
 302 1044 l 1,19,-1
 490 1044 l 1,16,-1
546 860 m 1,20,-1
 546 804 l 1,21,-1
 390 804 l 1,22,-1
 390 860 l 1,23,-1
 546 860 l 1,20,-1
654 736 m 1,24,-1
 654 724 l 1,25,-1
 486 724 l 1,26,-1
 486 736 l 1,27,-1
 654 736 l 1,24,-1
702 612 m 1,28,-1
 702 568 l 1,29,-1
 562 568 l 1,30,-1
 562 612 l 1,31,-1
 702 612 l 1,28,-1
730 524 m 1,32,-1
 730 504 l 1,33,-1
 590 504 l 1,34,-1
 590 524 l 1,35,-1
 730 524 l 1,32,-1
857 400 m 1,36,-1
 857 332 l 1,37,-1
 650 332 l 1,38,-1
 650 400 l 1,39,-1
 857 400 l 1,36,-1
658 44 m 1,40,-1
 798 44 l 1,41,-1
 798 0 l 1,42,-1
 658 0 l 1,43,-1
 658 44 l 1,40,-1
502 152 m 1,44,-1
 658 152 l 1,45,-1
 658 44 l 1,46,-1
 502 44 l 1,47,-1
 502 152 l 1,44,-1
382 276 m 1,48,-1
 510 276 l 1,49,-1
 510 176 l 1,50,-1
 382 176 l 1,51,-1
 382 276 l 1,48,-1
270 508 m 1,52,-1
 438 508 l 1,53,-1
 438 336 l 1,54,-1
 270 336 l 1,55,-1
 270 508 l 1,52,-1
134 652 m 1,56,-1
 298 652 l 1,57,-1
 298 520 l 1,58,-1
 134 520 l 1,59,-1
 134 652 l 1,56,-1
0 744 m 1,60,-1
 134 744 l 1,61,-1
 134 652 l 1,62,-1
 0 652 l 1,63,-1
 0 744 l 1,60,-1
72 73 m 1,64,-1
 72 210 l 1,65,-1
 209 210 l 1,66,-1
 209 73 l 1,67,-1
 72 73 l 1,64,-1
678 73 m 1,68,-1
 678 210 l 1,69,-1
 816 210 l 1,70,-1
 816 73 l 1,71,-1
 678 73 l 1,68,-1
72 224 m 1,72,-1
 72 362 l 1,73,-1
 209 362 l 1,74,-1
 209 224 l 1,75,-1
 72 224 l 1,72,-1
678 224 m 1,76,-1
 678 362 l 1,77,-1
 816 362 l 1,78,-1
 816 224 l 1,79,-1
 678 224 l 1,76,-1
223 376 m 1,80,-1
 223 514 l 1,81,-1
 361 514 l 1,82,-1
 361 376 l 1,83,-1
 223 376 l 1,80,-1
526 376 m 1,84,-1
 526 514 l 1,85,-1
 664 514 l 1,86,-1
 664 376 l 1,87,-1
 526 376 l 1,84,-1
375 527 m 1,88,-1
 375 665 l 1,89,-1
 512 665 l 1,90,-1
 512 527 l 1,91,-1
 375 527 l 1,88,-1
223 679 m 1,92,-1
 223 816 l 1,93,-1
 361 816 l 1,94,-1
 361 679 l 1,95,-1
 223 679 l 1,92,-1
526 679 m 1,96,-1
 526 816 l 1,97,-1
 664 816 l 1,98,-1
 664 679 l 1,99,-1
 526 679 l 1,96,-1
72 830 m 1,100,-1
 72 968 l 1,101,-1
 209 968 l 1,102,-1
 209 830 l 1,103,-1
 72 830 l 1,100,-1
678 830 m 1,104,-1
 678 968 l 1,105,-1
 816 968 l 1,106,-1
 816 830 l 1,107,-1
 678 830 l 1,104,-1
72 982 m 1,108,-1
 72 1120 l 1,109,-1
 209 1120 l 1,110,-1
 209 982 l 1,111,-1
 72 982 l 1,108,-1
678 982 m 1,112,-1
 678 1120 l 1,113,-1
 816 1120 l 1,114,-1
 816 982 l 1,115,-1
 678 982 l 1,112,-1
EndSplineSet
Validated: 3077
EndChar

StartChar: Y
Encoding: 89 89 60
Width: 857
GlyphClass: 1
Flags: W
LayerCount: 2
Fore
SplineSet
750 396 m 5,0,-1
 882 396 l 1,1,-1
 882 300 l 1,2,-1
 750 300 l 1,3,-1
 750 396 l 5,0,-1
518 468 m 1,4,-1
 694 468 l 1,5,-1
 694 336 l 1,6,-1
 518 336 l 1,7,-1
 518 468 l 1,4,-1
250 524 m 1,8,-1
 458 524 l 1,9,-1
 458 392 l 1,10,-1
 250 392 l 1,11,-1
 250 524 l 1,8,-1
0 620 m 1,12,-1
 190 620 l 1,13,-1
 190 456 l 1,14,-1
 0 456 l 1,15,-1
 0 620 l 1,12,-1
0 144 m 1,16,-1
 106 144 l 1,17,-1
 106 64 l 1,18,-1
 0 64 l 1,19,-1
 0 144 l 1,16,-1
50 296 m 1,20,-1
 202 296 l 1,21,-1
 202 148 l 1,22,-1
 50 148 l 1,23,-1
 50 296 l 1,20,-1
138 404 m 1,24,-1
 282 404 l 1,25,-1
 282 256 l 1,26,-1
 138 256 l 1,27,-1
 138 404 l 1,24,-1
223 527 m 1,28,-1
 366 527 l 1,29,-1
 366 400 l 1,30,-1
 223 400 l 1,31,-1
 223 527 l 1,28,-1
342 696 m 1,32,-1
 510 696 l 1,33,-1
 510 572 l 1,34,-1
 342 572 l 1,35,-1
 342 696 l 1,32,-1
450 820 m 1,36,-1
 618 820 l 1,37,-1
 618 676 l 1,38,-1
 450 676 l 1,39,-1
 450 820 l 1,36,-1
566 964 m 1,40,-1
 710 964 l 1,41,-1
 710 828 l 1,42,-1
 566 828 l 1,43,-1
 566 964 l 1,40,-1
598 1108 m 1,44,-1
 726 1108 l 1,45,-1
 726 988 l 1,46,-1
 598 988 l 1,47,-1
 598 1108 l 1,44,-1
738 164 m 1,48,-1
 878 164 l 1,49,-1
 878 0 l 1,50,-1
 738 0 l 1,51,-1
 738 164 l 1,48,-1
614 336 m 1,52,-1
 694 336 l 1,53,-1
 694 212 l 1,54,-1
 614 212 l 1,55,-1
 614 336 l 1,52,-1
375 514 m 1,56,-1
 614 514 l 1,57,-1
 614 336 l 1,58,-1
 375 336 l 1,59,-1
 375 514 l 1,56,-1
202 728 m 1,60,-1
 338 728 l 1,61,-1
 338 568 l 1,62,-1
 202 568 l 1,63,-1
 202 728 l 1,60,-1
86 908 m 1,64,-1
 178 908 l 1,65,-1
 178 772 l 1,66,-1
 86 772 l 1,67,-1
 86 908 l 1,64,-1
0 1068 m 1,68,-1
 86 1068 l 1,69,-1
 86 908 l 1,70,-1
 0 908 l 1,71,-1
 0 1068 l 1,68,-1
-126 1200 m 1,72,-1
 0 1200 l 1,73,-1
 0 1068 l 1,74,-1
 -126 1068 l 1,75,-1
 -126 1200 l 1,72,-1
375 73 m 1,76,-1
 375 210 l 1,77,-1
 513 210 l 1,78,-1
 513 73 l 1,79,-1
 375 73 l 1,76,-1
375 224 m 1,80,-1
 375 362 l 1,81,-1
 512 362 l 1,82,-1
 512 224 l 1,83,-1
 375 224 l 1,80,-1
375 376 m 1,84,-1
 375 514 l 1,85,-1
 512 514 l 1,86,-1
 512 376 l 1,87,-1
 375 376 l 1,84,-1
223 527 m 1,88,-1
 223 665 l 1,89,-1
 361 665 l 1,90,-1
 361 527 l 1,91,-1
 223 527 l 1,88,-1
526 527 m 1,92,-1
 526 665 l 1,93,-1
 664 665 l 1,94,-1
 664 527 l 1,95,-1
 526 527 l 1,92,-1
72 679 m 1,96,-1
 72 816 l 1,97,-1
 210 816 l 1,98,-1
 210 679 l 1,99,-1
 72 679 l 1,96,-1
678 679 m 1,100,-1
 678 817 l 1,101,-1
 816 817 l 1,102,-1
 816 679 l 1,103,-1
 678 679 l 1,100,-1
72 830 m 1,104,-1
 72 968 l 1,105,-1
 209 968 l 1,106,-1
 209 830 l 1,107,-1
 72 830 l 1,104,-1
678 830 m 1,108,-1
 678 968 l 1,109,-1
 816 968 l 1,110,-1
 816 830 l 1,111,-1
 678 830 l 1,108,-1
72 982 m 1,112,-1
 72 1120 l 1,113,-1
 209 1120 l 1,114,-1
 209 982 l 1,115,-1
 72 982 l 1,112,-1
678 982 m 1,116,-1
 678 1120 l 1,117,-1
 816 1120 l 1,118,-1
 816 982 l 1,119,-1
 678 982 l 1,116,-1
EndSplineSet
Validated: 3077
EndChar

StartChar: Z
Encoding: 90 90 61
Width: 857
GlyphClass: 1
Flags: W
LayerCount: 2
Fore
SplineSet
930 452 m 5,0,-1
 930 364 l 1,1,-1
 758 364 l 1,2,-1
 758 452 l 1,3,-1
 930 452 l 5,0,-1
1054 284 m 1,4,-1
 1054 192 l 1,5,-1
 942 192 l 1,6,-1
 942 284 l 1,7,-1
 1054 284 l 1,4,-1
930 452 m 1,8,-1
 930 344 l 1,9,-1
 930 452 l 1,8,-1
0 1360 m 1,10,-1
 -26 1360 l 1,11,-1
 -26 1380 l 1,12,-1
 0 1380 l 1,13,-1
 0 1360 l 1,10,-1
178 1260 m 1,14,-1
 22 1260 l 1,15,-1
 22 1320 l 1,16,-1
 178 1320 l 1,17,-1
 178 1260 l 1,14,-1
361 1120 m 1,18,-1
 170 1120 l 1,19,-1
 170 1216 l 1,20,-1
 361 1216 l 1,21,-1
 361 1120 l 1,18,-1
498 904 m 1,22,-1
 302 904 l 1,23,-1
 302 1028 l 1,24,-1
 498 1028 l 1,25,-1
 498 904 l 1,22,-1
714 688 m 1,26,-1
 538 688 l 1,27,-1
 538 840 l 1,28,-1
 714 840 l 1,29,-1
 714 688 l 1,26,-1
857 492 m 1,30,-1
 618 492 l 1,31,-1
 618 664 l 1,32,-1
 857 664 l 1,33,-1
 857 492 l 1,30,-1
474 68 m 1,34,-1
 546 68 l 1,35,-1
 546 40 l 1,36,-1
 474 40 l 1,37,-1
 474 68 l 1,34,-1
330 224 m 1,38,-1
 512 224 l 1,39,-1
 512 73 l 1,40,-1
 330 73 l 1,41,-1
 330 224 l 1,38,-1
234 436 m 1,42,-1
 390 436 l 1,43,-1
 390 324 l 1,44,-1
 234 324 l 1,45,-1
 234 436 l 1,42,-1
186 604 m 1,46,-1
 334 604 l 1,47,-1
 334 508 l 1,48,-1
 186 508 l 1,49,-1
 186 604 l 1,46,-1
-30 904 m 1,50,-1
 294 904 l 1,51,-1
 294 668 l 1,52,-1
 -30 668 l 1,53,-1
 -30 904 l 1,50,-1
330 224 m 1,54,-1
 558 224 l 1,55,-1
 558 68 l 1,56,-1
 330 68 l 1,57,-1
 330 224 l 1,54,-1
361 375 m 1,58,-1
 554 375 l 1,59,-1
 554 240 l 1,60,-1
 361 240 l 1,61,-1
 361 375 l 1,58,-1
382 556 m 1,62,-1
 594 556 l 1,63,-1
 594 424 l 1,64,-1
 382 424 l 1,65,-1
 382 556 l 1,62,-1
362 732 m 1,66,-1
 558 732 l 1,67,-1
 558 592 l 1,68,-1
 362 592 l 1,69,-1
 362 732 l 1,66,-1
330 892 m 1,70,-1
 458 892 l 1,71,-1
 458 760 l 1,72,-1
 330 760 l 1,73,-1
 330 892 l 1,70,-1
270 1040 m 1,74,-1
 414 1040 l 1,75,-1
 414 920 l 1,76,-1
 270 920 l 1,77,-1
 270 1040 l 1,74,-1
857 40 m 1,78,-1
 934 40 l 1,79,-1
 934 -20 l 1,80,-1
 857 -20 l 1,81,-1
 857 40 l 1,78,-1
642 304 m 1,82,-1
 794 304 l 1,83,-1
 794 140 l 1,84,-1
 642 140 l 1,85,-1
 642 304 l 1,82,-1
502 480 m 1,86,-1
 642 480 l 1,87,-1
 642 336 l 1,88,-1
 502 336 l 1,89,-1
 502 480 l 1,86,-1
386 616 m 1,90,-1
 550 616 l 1,91,-1
 550 480 l 1,92,-1
 386 480 l 1,93,-1
 386 616 l 1,90,-1
262 776 m 1,94,-1
 418 776 l 1,95,-1
 418 628 l 1,96,-1
 262 628 l 1,97,-1
 262 776 l 1,94,-1
114 932 m 1,98,-1
 254 932 l 1,99,-1
 254 800 l 1,100,-1
 114 800 l 1,101,-1
 114 932 l 1,98,-1
72 73 m 1,102,-1
 72 210 l 1,103,-1
 209 210 l 1,104,-1
 209 73 l 1,105,-1
 72 73 l 1,102,-1
223 73 m 1,106,-1
 223 210 l 1,107,-1
 361 210 l 1,108,-1
 361 73 l 1,109,-1
 223 73 l 1,106,-1
375 73 m 1,110,-1
 375 210 l 1,111,-1
 512 210 l 1,112,-1
 512 73 l 1,113,-1
 375 73 l 1,110,-1
526 73 m 1,114,-1
 526 210 l 1,115,-1
 664 210 l 1,116,-1
 664 73 l 1,117,-1
 526 73 l 1,114,-1
678 73 m 1,118,-1
 678 210 l 1,119,-1
 816 210 l 1,120,-1
 816 73 l 1,121,-1
 678 73 l 1,118,-1
72 224 m 1,122,-1
 72 362 l 1,123,-1
 209 362 l 1,124,-1
 209 224 l 1,125,-1
 72 224 l 1,122,-1
223 375 m 1,126,-1
 223 513 l 1,127,-1
 361 513 l 1,128,-1
 361 375 l 1,129,-1
 223 375 l 1,126,-1
375 527 m 1,130,-1
 375 665 l 1,131,-1
 512 665 l 1,132,-1
 512 527 l 1,133,-1
 375 527 l 1,130,-1
526 679 m 1,134,-1
 526 817 l 1,135,-1
 664 817 l 1,136,-1
 664 679 l 1,137,-1
 526 679 l 1,134,-1
678 830 m 1,138,-1
 678 968 l 1,139,-1
 816 968 l 1,140,-1
 816 830 l 1,141,-1
 678 830 l 1,138,-1
72 982 m 1,142,-1
 72 1120 l 1,143,-1
 209 1120 l 1,144,-1
 209 982 l 1,145,-1
 72 982 l 1,142,-1
223 982 m 1,146,-1
 223 1120 l 1,147,-1
 361 1120 l 1,148,-1
 361 982 l 1,149,-1
 223 982 l 1,146,-1
375 982 m 1,150,-1
 375 1120 l 1,151,-1
 512 1120 l 1,152,-1
 512 982 l 1,153,-1
 375 982 l 1,150,-1
526 982 m 1,154,-1
 526 1120 l 1,155,-1
 664 1120 l 1,156,-1
 664 982 l 1,157,-1
 526 982 l 1,154,-1
678 982 m 1,158,-1
 678 1120 l 1,159,-1
 816 1120 l 1,160,-1
 816 982 l 1,161,-1
 678 982 l 1,158,-1
EndSplineSet
Validated: 3077
EndChar

StartChar: bracketleft
Encoding: 91 91 62
Width: 857
GlyphClass: 1
Flags: W
LayerCount: 2
Fore
SplineSet
224 73 m 1,0,-1
 224 210 l 1,1,-1
 361 210 l 1,2,-1
 361 73 l 1,3,-1
 224 73 l 1,0,-1
375 73 m 1,4,-1
 375 210 l 1,5,-1
 513 210 l 1,6,-1
 513 73 l 1,7,-1
 375 73 l 1,4,-1
527 73 m 1,8,-1
 527 210 l 1,9,-1
 664 210 l 1,10,-1
 664 73 l 1,11,-1
 527 73 l 1,8,-1
224 224 m 1,12,-1
 224 362 l 1,13,-1
 361 362 l 1,14,-1
 361 224 l 1,15,-1
 224 224 l 1,12,-1
224 376 m 1,16,-1
 224 514 l 1,17,-1
 361 514 l 1,18,-1
 361 376 l 1,19,-1
 224 376 l 1,16,-1
224 527 m 1,20,-1
 224 665 l 1,21,-1
 361 665 l 1,22,-1
 361 527 l 1,23,-1
 224 527 l 1,20,-1
224 679 m 1,24,-1
 224 816 l 1,25,-1
 361 816 l 1,26,-1
 361 679 l 1,27,-1
 224 679 l 1,24,-1
224 830 m 1,28,-1
 224 968 l 1,29,-1
 361 968 l 1,30,-1
 361 830 l 1,31,-1
 224 830 l 1,28,-1
224 982 m 1,32,-1
 224 1120 l 1,33,-1
 361 1120 l 1,34,-1
 361 982 l 1,35,-1
 224 982 l 1,32,-1
375 982 m 1,36,-1
 375 1120 l 1,37,-1
 513 1120 l 1,38,-1
 513 982 l 1,39,-1
 375 982 l 1,36,-1
526 982 m 1,40,-1
 526 1120 l 1,41,-1
 664 1120 l 1,42,-1
 664 982 l 1,43,-1
 526 982 l 1,40,-1
EndSplineSet
Validated: 1
EndChar

StartChar: backslash
Encoding: 92 92 63
Width: 857
GlyphClass: 1
Flags: W
LayerCount: 2
Fore
SplineSet
678 224 m 1,0,-1
 678 362 l 1,1,-1
 816 362 l 1,2,-1
 816 224 l 1,3,-1
 678 224 l 1,0,-1
526 376 m 1,4,-1
 526 514 l 1,5,-1
 664 514 l 1,6,-1
 664 376 l 1,7,-1
 526 376 l 1,4,-1
375 527 m 1,8,-1
 375 665 l 1,9,-1
 513 665 l 1,10,-1
 513 527 l 1,11,-1
 375 527 l 1,8,-1
223 679 m 1,12,-1
 223 817 l 1,13,-1
 361 817 l 1,14,-1
 361 679 l 1,15,-1
 223 679 l 1,12,-1
72 830 m 1,16,-1
 72 969 l 1,17,-1
 210 969 l 1,18,-1
 210 830 l 1,19,-1
 72 830 l 1,16,-1
EndSplineSet
Validated: 1
EndChar

StartChar: bracketright
Encoding: 93 93 64
Width: 857
GlyphClass: 1
Flags: W
LayerCount: 2
Fore
SplineSet
224 73 m 1,0,-1
 224 210 l 1,1,-1
 361 210 l 1,2,-1
 361 73 l 1,3,-1
 224 73 l 1,0,-1
375 73 m 1,4,-1
 375 210 l 1,5,-1
 512 210 l 1,6,-1
 512 73 l 1,7,-1
 375 73 l 1,4,-1
527 73 m 1,8,-1
 527 210 l 1,9,-1
 664 210 l 1,10,-1
 664 73 l 1,11,-1
 527 73 l 1,8,-1
526 224 m 1,12,-1
 526 362 l 1,13,-1
 664 362 l 1,14,-1
 664 224 l 1,15,-1
 526 224 l 1,12,-1
526 376 m 1,16,-1
 526 514 l 1,17,-1
 664 514 l 1,18,-1
 664 376 l 1,19,-1
 526 376 l 1,16,-1
526 527 m 1,20,-1
 526 665 l 1,21,-1
 664 665 l 1,22,-1
 664 527 l 1,23,-1
 526 527 l 1,20,-1
526 679 m 1,24,-1
 526 817 l 1,25,-1
 664 817 l 1,26,-1
 664 679 l 1,27,-1
 526 679 l 1,24,-1
526 830 m 1,28,-1
 526 968 l 1,29,-1
 664 968 l 1,30,-1
 664 830 l 1,31,-1
 526 830 l 1,28,-1
224 982 m 1,32,-1
 224 1120 l 1,33,-1
 361 1120 l 1,34,-1
 361 982 l 1,35,-1
 224 982 l 1,32,-1
375 982 m 1,36,-1
 375 1120 l 1,37,-1
 512 1120 l 1,38,-1
 512 982 l 1,39,-1
 375 982 l 1,36,-1
526 982 m 1,40,-1
 526 1120 l 1,41,-1
 664 1120 l 1,42,-1
 664 982 l 1,43,-1
 526 982 l 1,40,-1
EndSplineSet
Validated: 1
EndChar

StartChar: asciicircum
Encoding: 94 94 65
Width: 857
GlyphClass: 1
Flags: W
LayerCount: 2
Fore
SplineSet
72 679 m 1,0,-1
 72 817 l 1,1,-1
 210 817 l 1,2,-1
 210 679 l 1,3,-1
 72 679 l 1,0,-1
678 679 m 1,4,-1
 678 817 l 1,5,-1
 816 817 l 1,6,-1
 816 679 l 1,7,-1
 678 679 l 1,4,-1
223 830 m 1,8,-1
 223 968 l 1,9,-1
 361 968 l 1,10,-1
 361 830 l 1,11,-1
 223 830 l 1,8,-1
526 830 m 1,12,-1
 526 968 l 1,13,-1
 664 968 l 1,14,-1
 664 830 l 1,15,-1
 526 830 l 1,12,-1
375 982 m 1,16,-1
 375 1120 l 1,17,-1
 513 1120 l 1,18,-1
 513 982 l 1,19,-1
 375 982 l 1,16,-1
EndSplineSet
Validated: 1
EndChar

StartChar: underscore
Encoding: 95 95 66
Width: 857
GlyphClass: 1
Flags: W
LayerCount: 2
Fore
SplineSet
754 156 m 5
 878 156 l 1
 878 0 l 1
 754 0 l 1
 754 156 l 5
62 848 m 1,0,-1
 186 848 l 1,1,-1
 186 724 l 1,2,-1
 62 724 l 1,3,-1
 62 848 l 1,0,-1
374 1088 m 1,4,-1
 522 1088 l 1,5,-1
 522 972 l 1,6,-1
 374 972 l 1,7,-1
 374 1088 l 1,4,-1
558 1128 m 1,8,-1
 658 1128 l 1,9,-1
 658 936 l 1,10,-1
 558 936 l 1,11,-1
 558 1128 l 1,8,-1
502 1108 m 1,12,-1
 710 1108 l 1,13,-1
 710 1092 l 1,14,-1
 502 1092 l 1,15,-1
 502 1108 l 1,12,-1
554 904 m 1,16,-1
 670 904 l 1,17,-1
 670 812 l 1,18,-1
 554 812 l 1,19,-1
 554 904 l 1,16,-1
574 632 m 1,20,-1
 734 632 l 1,21,-1
 734 564 l 1,22,-1
 574 564 l 1,23,-1
 574 632 l 1,20,-1
618 396 m 1,24,-1
 758 396 l 1,25,-1
 758 284 l 1,26,-1
 618 284 l 1,27,-1
 618 396 l 1,24,-1
342 200 m 1,28,-1
 494 200 l 1,29,-1
 494 92 l 1,30,-1
 342 92 l 1,31,-1
 342 200 l 1,28,-1
262 384 m 1,32,-1
 262 248 l 1,33,-1
 70 248 l 1,34,-1
 70 384 l 1,35,-1
 262 384 l 1,32,-1
386 408 m 1,36,-1
 386 336 l 1,37,-1
 186 336 l 1,38,-1
 186 408 l 1,39,-1
 386 408 l 1,36,-1
438 580 m 1,40,-1
 438 472 l 1,41,-1
 226 472 l 1,42,-1
 226 580 l 1,43,-1
 438 580 l 1,40,-1
518 784 m 1,44,-1
 518 660 l 1,45,-1
 314 660 l 1,46,-1
 314 784 l 1,47,-1
 518 784 l 1,44,-1
518 936 m 1,48,-1
 518 784 l 1,49,-1
 350 784 l 1,50,-1
 350 936 l 1,51,-1
 518 936 l 1,48,-1
662 188 m 1,52,-1
 754 188 l 1,53,-1
 754 100 l 1,54,-1
 662 100 l 1,55,-1
 662 188 l 1,52,-1
386 408 m 1,56,-1
 570 408 l 1,57,-1
 570 276 l 1,58,-1
 386 276 l 1,59,-1
 386 408 l 1,56,-1
270 500 m 1,60,-1
 358 500 l 1,61,-1
 358 412 l 1,62,-1
 270 412 l 1,63,-1
 270 500 l 1,60,-1
66 620 m 1,64,-1
 270 620 l 1,65,-1
 270 500 l 1,66,-1
 66 500 l 1,67,-1
 66 620 l 1,64,-1
602 64 m 1,68,-1
 654 64 l 1,69,-1
 654 56 l 1,70,-1
 602 56 l 1,71,-1
 602 64 l 1,68,-1
494 240 m 1,72,-1
 706 240 l 1,73,-1
 706 92 l 1,74,-1
 494 92 l 1,75,-1
 494 240 l 1,72,-1
386 408 m 1,76,-1
 570 408 l 1,77,-1
 570 276 l 1,78,-1
 386 276 l 1,79,-1
 386 408 l 1,76,-1
358 548 m 1,80,-1
 482 548 l 1,81,-1
 482 436 l 1,82,-1
 358 436 l 1,83,-1
 358 548 l 1,80,-1
314 660 m 1,84,-1
 410 660 l 1,85,-1
 410 600 l 1,86,-1
 314 600 l 1,87,-1
 314 660 l 1,84,-1
314 728 m 1,88,-1
 414 728 l 1,89,-1
 414 660 l 1,90,-1
 314 660 l 1,91,-1
 314 728 l 1,88,-1
262 812 m 1,92,-1
 374 812 l 1,93,-1
 374 756 l 1,94,-1
 262 756 l 1,95,-1
 262 812 l 1,92,-1
186 928 m 1,96,-1
 346 928 l 1,97,-1
 346 840 l 1,98,-1
 186 840 l 1,99,-1
 186 928 l 1,96,-1
150 1000 m 1,100,-1
 218 1000 l 1,101,-1
 218 948 l 1,102,-1
 150 948 l 1,103,-1
 150 1000 l 1,100,-1
42 1120 m 1,104,-1
 198 1120 l 1,105,-1
 198 1000 l 1,106,-1
 42 1000 l 1,107,-1
 42 1120 l 1,104,-1
682 996 m 1,108,-1
 822 996 l 1,109,-1
 822 944 l 1,110,-1
 682 944 l 1,111,-1
 682 996 l 1,108,-1
670 884 m 1,112,-1
 810 884 l 1,113,-1
 810 812 l 1,114,-1
 670 812 l 1,115,-1
 670 884 l 1,112,-1
710 748 m 1,116,-1
 826 748 l 1,117,-1
 826 672 l 1,118,-1
 710 672 l 1,119,-1
 710 748 l 1,116,-1
710 636 m 1,120,-1
 782 636 l 1,121,-1
 782 580 l 1,122,-1
 710 580 l 1,123,-1
 710 636 l 1,120,-1
646 556 m 1,124,-1
 798 556 l 1,125,-1
 798 476 l 1,126,-1
 646 476 l 1,127,-1
 646 556 l 1,124,-1
598 508 m 1,128,-1
 674 508 l 1,129,-1
 674 460 l 1,130,-1
 598 460 l 1,131,-1
 598 508 l 1,128,-1
554 424 m 1,132,-1
 618 424 l 1,133,-1
 618 396 l 1,134,-1
 554 396 l 1,135,-1
 554 424 l 1,132,-1
494 356 m 1,136,-1
 590 356 l 1,137,-1
 590 320 l 1,138,-1
 494 320 l 1,139,-1
 494 356 l 1,136,-1
338 328 m 1,140,-1
 546 328 l 1,141,-1
 546 272 l 1,142,-1
 338 272 l 1,143,-1
 338 328 l 1,140,-1
294 264 m 1,144,-1
 426 264 l 1,145,-1
 426 232 l 1,146,-1
 294 232 l 1,147,-1
 294 264 l 1,144,-1
226 244 m 1,148,-1
 342 244 l 1,149,-1
 342 176 l 1,150,-1
 226 176 l 1,151,-1
 226 244 l 1,148,-1
166 204 m 1,152,-1
 278 204 l 1,153,-1
 278 128 l 1,154,-1
 166 128 l 1,155,-1
 166 204 l 1,152,-1
126 164 m 1,156,-1
 210 164 l 1,157,-1
 210 96 l 1,158,-1
 126 96 l 1,159,-1
 126 164 l 1,156,-1
26 112 m 1,160,-1
 122 112 l 1,161,-1
 122 28 l 1,162,-1
 26 28 l 1,163,-1
 26 112 l 1,160,-1
EndSplineSet
EndChar

StartChar: grave
Encoding: 96 96 67
Width: 585
GlyphClass: 1
Flags: W
LayerCount: 2
Fore
SplineSet
375 678 m 1,0,-1
 375 816 l 1,1,-1
 513 816 l 1,2,-1
 513 678 l 1,3,-1
 375 678 l 1,0,-1
223 830 m 1,4,-1
 223 968 l 1,5,-1
 361 968 l 1,6,-1
 361 830 l 1,7,-1
 223 830 l 1,4,-1
72 981 m 1,8,-1
 72 1120 l 1,9,-1
 210 1120 l 1,10,-1
 210 981 l 1,11,-1
 72 981 l 1,8,-1
EndSplineSet
Validated: 1
EndChar

StartChar: a
Encoding: 97 97 68
Width: 857
GlyphClass: 1
Flags: W
LayerCount: 2
Fore
SplineSet
72 73 m 1,0,-1
 72 210 l 1,1,-1
 209 210 l 1,2,-1
 209 73 l 1,3,-1
 72 73 l 1,0,-1
678 73 m 1,4,-1
 678 210 l 1,5,-1
 816 210 l 1,6,-1
 816 73 l 1,7,-1
 678 73 l 1,4,-1
72 224 m 1,8,-1
 72 362 l 1,9,-1
 209 362 l 1,10,-1
 209 224 l 1,11,-1
 72 224 l 1,8,-1
678 224 m 1,12,-1
 678 362 l 1,13,-1
 816 362 l 1,14,-1
 816 224 l 1,15,-1
 678 224 l 1,12,-1
72 375 m 1,16,-1
 72 513 l 1,17,-1
 209 513 l 1,18,-1
 209 375 l 1,19,-1
 72 375 l 1,16,-1
223 375 m 1,20,-1
 223 513 l 1,21,-1
 361 513 l 1,22,-1
 361 375 l 1,23,-1
 223 375 l 1,20,-1
375 376 m 1,24,-1
 375 513 l 1,25,-1
 512 513 l 1,26,-1
 512 376 l 1,27,-1
 375 376 l 1,24,-1
526 376 m 1,28,-1
 526 514 l 1,29,-1
 664 514 l 1,30,-1
 664 376 l 1,31,-1
 526 376 l 1,28,-1
678 376 m 1,32,-1
 678 514 l 1,33,-1
 816 514 l 1,34,-1
 816 376 l 1,35,-1
 678 376 l 1,32,-1
72 527 m 1,36,-1
 72 665 l 1,37,-1
 209 665 l 1,38,-1
 209 527 l 1,39,-1
 72 527 l 1,36,-1
678 527 m 1,40,-1
 678 665 l 1,41,-1
 816 665 l 1,42,-1
 816 527 l 1,43,-1
 678 527 l 1,40,-1
72 679 m 1,44,-1
 72 816 l 1,45,-1
 209 816 l 1,46,-1
 209 679 l 1,47,-1
 72 679 l 1,44,-1
678 679 m 1,48,-1
 678 817 l 1,49,-1
 816 817 l 1,50,-1
 816 679 l 1,51,-1
 678 679 l 1,48,-1
223 830 m 1,52,-1
 223 968 l 1,53,-1
 360 968 l 1,54,-1
 360 830 l 1,55,-1
 223 830 l 1,52,-1
526 832 m 1,56,-1
 526 970 l 1,57,-1
 664 970 l 1,58,-1
 664 832 l 1,59,-1
 526 832 l 1,56,-1
375 982 m 1,60,-1
 375 1120 l 1,61,-1
 512 1120 l 1,62,-1
 512 982 l 1,63,-1
 375 982 l 1,60,-1
EndSplineSet
Validated: 1
EndChar

StartChar: b
Encoding: 98 98 69
Width: 857
GlyphClass: 1
Flags: W
LayerCount: 2
Fore
SplineSet
72 73 m 1,0,-1
 72 210 l 1,1,-1
 209 210 l 1,2,-1
 209 73 l 1,3,-1
 72 73 l 1,0,-1
223 73 m 1,4,-1
 223 210 l 1,5,-1
 361 210 l 1,6,-1
 361 73 l 1,7,-1
 223 73 l 1,4,-1
375 73 m 1,8,-1
 375 210 l 1,9,-1
 512 210 l 1,10,-1
 512 73 l 1,11,-1
 375 73 l 1,8,-1
526 73 m 1,12,-1
 526 210 l 1,13,-1
 664 210 l 1,14,-1
 664 73 l 1,15,-1
 526 73 l 1,12,-1
72 224 m 1,16,-1
 72 361 l 1,17,-1
 209 361 l 1,18,-1
 209 224 l 1,19,-1
 72 224 l 1,16,-1
678 224 m 1,20,-1
 678 362 l 1,21,-1
 816 362 l 1,22,-1
 816 224 l 1,23,-1
 678 224 l 1,20,-1
72 375 m 1,24,-1
 72 513 l 1,25,-1
 209 513 l 1,26,-1
 209 375 l 1,27,-1
 72 375 l 1,24,-1
678 376 m 1,28,-1
 678 514 l 1,29,-1
 816 514 l 1,30,-1
 816 376 l 1,31,-1
 678 376 l 1,28,-1
72 527 m 1,32,-1
 72 665 l 1,33,-1
 209 665 l 1,34,-1
 209 527 l 1,35,-1
 72 527 l 1,32,-1
223 527 m 1,36,-1
 223 665 l 1,37,-1
 361 665 l 1,38,-1
 361 527 l 1,39,-1
 223 527 l 1,36,-1
375 527 m 1,40,-1
 375 665 l 1,41,-1
 512 665 l 1,42,-1
 512 527 l 1,43,-1
 375 527 l 1,40,-1
526 527 m 1,44,-1
 526 665 l 1,45,-1
 664 665 l 1,46,-1
 664 527 l 1,47,-1
 526 527 l 1,44,-1
72 678 m 1,48,-1
 72 816 l 1,49,-1
 209 816 l 1,50,-1
 209 678 l 1,51,-1
 72 678 l 1,48,-1
678 679 m 1,52,-1
 678 817 l 1,53,-1
 816 817 l 1,54,-1
 816 679 l 1,55,-1
 678 679 l 1,52,-1
72 830 m 1,56,-1
 72 968 l 1,57,-1
 209 968 l 1,58,-1
 209 830 l 1,59,-1
 72 830 l 1,56,-1
678 830 m 1,60,-1
 678 968 l 1,61,-1
 816 968 l 1,62,-1
 816 830 l 1,63,-1
 678 830 l 1,60,-1
72 981 m 1,64,-1
 72 1120 l 1,65,-1
 209 1120 l 1,66,-1
 209 981 l 1,67,-1
 72 981 l 1,64,-1
223 982 m 1,68,-1
 223 1120 l 1,69,-1
 361 1120 l 1,70,-1
 361 982 l 1,71,-1
 223 982 l 1,68,-1
375 982 m 1,72,-1
 375 1120 l 1,73,-1
 512 1120 l 1,74,-1
 512 982 l 1,75,-1
 375 982 l 1,72,-1
526 982 m 1,76,-1
 526 1120 l 1,77,-1
 664 1120 l 1,78,-1
 664 982 l 1,79,-1
 526 982 l 1,76,-1
EndSplineSet
Validated: 1
EndChar

StartChar: c
Encoding: 99 99 70
Width: 857
GlyphClass: 1
Flags: W
LayerCount: 2
Fore
SplineSet
223 73 m 1,0,-1
 223 210 l 1,1,-1
 361 210 l 1,2,-1
 361 73 l 1,3,-1
 223 73 l 1,0,-1
375 73 m 1,4,-1
 375 210 l 1,5,-1
 513 210 l 1,6,-1
 513 73 l 1,7,-1
 375 73 l 1,4,-1
526 73 m 1,8,-1
 526 210 l 1,9,-1
 664 210 l 1,10,-1
 664 73 l 1,11,-1
 526 73 l 1,8,-1
72 224 m 1,12,-1
 72 362 l 1,13,-1
 210 362 l 1,14,-1
 210 224 l 1,15,-1
 72 224 l 1,12,-1
678 224 m 1,16,-1
 678 362 l 1,17,-1
 816 362 l 1,18,-1
 816 224 l 1,19,-1
 678 224 l 1,16,-1
72 376 m 1,20,-1
 72 513 l 1,21,-1
 209 513 l 1,22,-1
 209 376 l 1,23,-1
 72 376 l 1,20,-1
72 527 m 1,24,-1
 72 665 l 1,25,-1
 209 665 l 1,26,-1
 209 527 l 1,27,-1
 72 527 l 1,24,-1
72 679 m 1,28,-1
 72 816 l 1,29,-1
 209 816 l 1,30,-1
 209 679 l 1,31,-1
 72 679 l 1,28,-1
72 830 m 1,32,-1
 72 968 l 1,33,-1
 209 968 l 1,34,-1
 209 830 l 1,35,-1
 72 830 l 1,32,-1
678 830 m 1,36,-1
 678 968 l 1,37,-1
 816 968 l 1,38,-1
 816 830 l 1,39,-1
 678 830 l 1,36,-1
223 982 m 1,40,-1
 223 1120 l 1,41,-1
 361 1120 l 1,42,-1
 361 982 l 1,43,-1
 223 982 l 1,40,-1
375 982 m 1,44,-1
 375 1120 l 1,45,-1
 512 1120 l 1,46,-1
 512 982 l 1,47,-1
 375 982 l 1,44,-1
526 982 m 1,48,-1
 526 1120 l 1,49,-1
 664 1120 l 1,50,-1
 664 982 l 1,51,-1
 526 982 l 1,48,-1
EndSplineSet
Validated: 1
EndChar

StartChar: d
Encoding: 100 100 71
Width: 857
GlyphClass: 1
Flags: W
LayerCount: 2
Fore
SplineSet
72 73 m 1,0,-1
 72 210 l 1,1,-1
 209 210 l 1,2,-1
 209 73 l 1,3,-1
 72 73 l 1,0,-1
223 73 m 1,4,-1
 223 210 l 1,5,-1
 361 210 l 1,6,-1
 361 73 l 1,7,-1
 223 73 l 1,4,-1
375 73 m 1,8,-1
 375 210 l 1,9,-1
 512 210 l 1,10,-1
 512 73 l 1,11,-1
 375 73 l 1,8,-1
72 224 m 1,12,-1
 72 362 l 1,13,-1
 209 362 l 1,14,-1
 209 224 l 1,15,-1
 72 224 l 1,12,-1
526 224 m 1,16,-1
 526 362 l 1,17,-1
 664 362 l 1,18,-1
 664 224 l 1,19,-1
 526 224 l 1,16,-1
72 375 m 1,20,-1
 72 513 l 1,21,-1
 209 513 l 1,22,-1
 209 375 l 1,23,-1
 72 375 l 1,20,-1
678 376 m 1,24,-1
 678 514 l 1,25,-1
 816 514 l 1,26,-1
 816 376 l 1,27,-1
 678 376 l 1,24,-1
72 527 m 1,28,-1
 72 665 l 1,29,-1
 209 665 l 1,30,-1
 209 527 l 1,31,-1
 72 527 l 1,28,-1
678 527 m 1,32,-1
 678 665 l 1,33,-1
 816 665 l 1,34,-1
 816 527 l 1,35,-1
 678 527 l 1,32,-1
72 679 m 1,36,-1
 72 816 l 1,37,-1
 209 816 l 1,38,-1
 209 679 l 1,39,-1
 72 679 l 1,36,-1
678 679 m 1,40,-1
 678 817 l 1,41,-1
 816 817 l 1,42,-1
 816 679 l 1,43,-1
 678 679 l 1,40,-1
72 830 m 1,44,-1
 72 968 l 1,45,-1
 209 968 l 1,46,-1
 209 830 l 1,47,-1
 72 830 l 1,44,-1
526 830 m 1,48,-1
 526 968 l 1,49,-1
 664 968 l 1,50,-1
 664 830 l 1,51,-1
 526 830 l 1,48,-1
72 981 m 1,52,-1
 72 1120 l 1,53,-1
 209 1120 l 1,54,-1
 209 981 l 1,55,-1
 72 981 l 1,52,-1
223 982 m 1,56,-1
 223 1120 l 1,57,-1
 361 1120 l 1,58,-1
 361 982 l 1,59,-1
 223 982 l 1,56,-1
375 982 m 1,60,-1
 375 1120 l 1,61,-1
 512 1120 l 1,62,-1
 512 982 l 1,63,-1
 375 982 l 1,60,-1
EndSplineSet
Validated: 1
EndChar

StartChar: e
Encoding: 101 101 72
Width: 857
GlyphClass: 1
Flags: W
LayerCount: 2
Fore
SplineSet
72 73 m 1,0,-1
 72 210 l 1,1,-1
 209 210 l 1,2,-1
 209 73 l 1,3,-1
 72 73 l 1,0,-1
223 73 m 1,4,-1
 223 210 l 1,5,-1
 361 210 l 1,6,-1
 361 73 l 1,7,-1
 223 73 l 1,4,-1
375 73 m 1,8,-1
 375 210 l 1,9,-1
 512 210 l 1,10,-1
 512 73 l 1,11,-1
 375 73 l 1,8,-1
526 73 m 1,12,-1
 526 210 l 1,13,-1
 664 210 l 1,14,-1
 664 73 l 1,15,-1
 526 73 l 1,12,-1
678 73 m 1,16,-1
 678 210 l 1,17,-1
 816 210 l 1,18,-1
 816 73 l 1,19,-1
 678 73 l 1,16,-1
72 224 m 1,20,-1
 72 362 l 1,21,-1
 209 362 l 1,22,-1
 209 224 l 1,23,-1
 72 224 l 1,20,-1
72 375 m 1,24,-1
 72 513 l 1,25,-1
 209 513 l 1,26,-1
 209 375 l 1,27,-1
 72 375 l 1,24,-1
72 527 m 1,28,-1
 72 665 l 1,29,-1
 209 665 l 1,30,-1
 209 527 l 1,31,-1
 72 527 l 1,28,-1
223 527 m 1,32,-1
 223 665 l 1,33,-1
 361 665 l 1,34,-1
 361 527 l 1,35,-1
 223 527 l 1,32,-1
375 527 m 1,36,-1
 375 665 l 1,37,-1
 512 665 l 1,38,-1
 512 527 l 1,39,-1
 375 527 l 1,36,-1
526 527 m 1,40,-1
 526 665 l 1,41,-1
 664 665 l 1,42,-1
 664 527 l 1,43,-1
 526 527 l 1,40,-1
72 679 m 1,44,-1
 72 816 l 1,45,-1
 209 816 l 1,46,-1
 209 679 l 1,47,-1
 72 679 l 1,44,-1
72 830 m 1,48,-1
 72 968 l 1,49,-1
 209 968 l 1,50,-1
 209 830 l 1,51,-1
 72 830 l 1,48,-1
72 981 m 1,52,-1
 72 1120 l 1,53,-1
 209 1120 l 1,54,-1
 209 981 l 1,55,-1
 72 981 l 1,52,-1
223 982 m 1,56,-1
 223 1120 l 1,57,-1
 361 1120 l 1,58,-1
 361 982 l 1,59,-1
 223 982 l 1,56,-1
375 982 m 1,60,-1
 375 1120 l 1,61,-1
 512 1120 l 1,62,-1
 512 982 l 1,63,-1
 375 982 l 1,60,-1
526 982 m 1,64,-1
 526 1120 l 1,65,-1
 664 1120 l 1,66,-1
 664 982 l 1,67,-1
 526 982 l 1,64,-1
678 982 m 1,68,-1
 678 1120 l 1,69,-1
 816 1120 l 1,70,-1
 816 982 l 1,71,-1
 678 982 l 1,68,-1
EndSplineSet
Validated: 1
EndChar

StartChar: f
Encoding: 102 102 73
Width: 857
GlyphClass: 1
Flags: W
LayerCount: 2
Fore
SplineSet
72 73 m 1,0,-1
 72 210 l 1,1,-1
 210 210 l 1,2,-1
 210 73 l 1,3,-1
 72 73 l 1,0,-1
72 224 m 1,4,-1
 72 362 l 1,5,-1
 210 362 l 1,6,-1
 210 224 l 1,7,-1
 72 224 l 1,4,-1
72 376 m 1,8,-1
 72 513 l 1,9,-1
 209 513 l 1,10,-1
 209 376 l 1,11,-1
 72 376 l 1,8,-1
72 527 m 1,12,-1
 72 665 l 1,13,-1
 209 665 l 1,14,-1
 209 527 l 1,15,-1
 72 527 l 1,12,-1
223 527 m 1,16,-1
 223 665 l 1,17,-1
 361 665 l 1,18,-1
 361 527 l 1,19,-1
 223 527 l 1,16,-1
375 527 m 1,20,-1
 375 665 l 1,21,-1
 513 665 l 1,22,-1
 513 527 l 1,23,-1
 375 527 l 1,20,-1
526 527 m 1,24,-1
 526 665 l 1,25,-1
 664 665 l 1,26,-1
 664 527 l 1,27,-1
 526 527 l 1,24,-1
72 679 m 1,28,-1
 72 816 l 1,29,-1
 209 816 l 1,30,-1
 209 679 l 1,31,-1
 72 679 l 1,28,-1
72 830 m 1,32,-1
 72 968 l 1,33,-1
 209 968 l 1,34,-1
 209 830 l 1,35,-1
 72 830 l 1,32,-1
72 982 m 1,36,-1
 72 1120 l 1,37,-1
 209 1120 l 1,38,-1
 209 982 l 1,39,-1
 72 982 l 1,36,-1
223 982 m 1,40,-1
 223 1120 l 1,41,-1
 361 1120 l 1,42,-1
 361 982 l 1,43,-1
 223 982 l 1,40,-1
375 982 m 1,44,-1
 375 1120 l 1,45,-1
 513 1120 l 1,46,-1
 513 982 l 1,47,-1
 375 982 l 1,44,-1
526 982 m 1,48,-1
 526 1120 l 1,49,-1
 664 1120 l 1,50,-1
 664 982 l 1,51,-1
 526 982 l 1,48,-1
678 982 m 1,52,-1
 678 1120 l 1,53,-1
 816 1120 l 1,54,-1
 816 982 l 1,55,-1
 678 982 l 1,52,-1
EndSplineSet
Validated: 1
EndChar

StartChar: g
Encoding: 103 103 74
Width: 857
GlyphClass: 1
Flags: W
LayerCount: 2
Fore
SplineSet
223 73 m 1,0,-1
 223 210 l 1,1,-1
 361 210 l 1,2,-1
 361 73 l 1,3,-1
 223 73 l 1,0,-1
375 73 m 1,4,-1
 375 210 l 1,5,-1
 512 210 l 1,6,-1
 512 73 l 1,7,-1
 375 73 l 1,4,-1
526 73 m 1,8,-1
 526 210 l 1,9,-1
 664 210 l 1,10,-1
 664 73 l 1,11,-1
 526 73 l 1,8,-1
678 73 m 1,12,-1
 678 210 l 1,13,-1
 816 210 l 1,14,-1
 816 73 l 1,15,-1
 678 73 l 1,12,-1
72 224 m 1,16,-1
 72 362 l 1,17,-1
 209 362 l 1,18,-1
 209 224 l 1,19,-1
 72 224 l 1,16,-1
678 224 m 1,20,-1
 678 362 l 1,21,-1
 816 362 l 1,22,-1
 816 224 l 1,23,-1
 678 224 l 1,20,-1
72 375 m 1,24,-1
 72 513 l 1,25,-1
 209 513 l 1,26,-1
 209 375 l 1,27,-1
 72 375 l 1,24,-1
678 376 m 1,28,-1
 678 514 l 1,29,-1
 816 514 l 1,30,-1
 816 376 l 1,31,-1
 678 376 l 1,28,-1
72 527 m 1,32,-1
 72 665 l 1,33,-1
 209 665 l 1,34,-1
 209 527 l 1,35,-1
 72 527 l 1,32,-1
375 527 m 1,36,-1
 375 665 l 1,37,-1
 512 665 l 1,38,-1
 512 527 l 1,39,-1
 375 527 l 1,36,-1
526 527 m 1,40,-1
 526 665 l 1,41,-1
 664 665 l 1,42,-1
 664 527 l 1,43,-1
 526 527 l 1,40,-1
678 527 m 1,44,-1
 678 665 l 1,45,-1
 816 665 l 1,46,-1
 816 527 l 1,47,-1
 678 527 l 1,44,-1
72 679 m 1,48,-1
 72 816 l 1,49,-1
 209 816 l 1,50,-1
 209 679 l 1,51,-1
 72 679 l 1,48,-1
72 830 m 1,52,-1
 72 968 l 1,53,-1
 209 968 l 1,54,-1
 209 830 l 1,55,-1
 72 830 l 1,52,-1
678 830 m 1,56,-1
 678 968 l 1,57,-1
 816 968 l 1,58,-1
 816 830 l 1,59,-1
 678 830 l 1,56,-1
223 982 m 1,60,-1
 223 1120 l 1,61,-1
 361 1120 l 1,62,-1
 361 982 l 1,63,-1
 223 982 l 1,60,-1
375 982 m 1,64,-1
 375 1120 l 1,65,-1
 512 1120 l 1,66,-1
 512 982 l 1,67,-1
 375 982 l 1,64,-1
526 982 m 1,68,-1
 526 1120 l 1,69,-1
 664 1120 l 1,70,-1
 664 982 l 1,71,-1
 526 982 l 1,68,-1
EndSplineSet
Validated: 1
EndChar

StartChar: h
Encoding: 104 104 75
Width: 857
GlyphClass: 1
Flags: W
LayerCount: 2
Fore
SplineSet
72 73 m 1,0,-1
 72 210 l 1,1,-1
 209 210 l 1,2,-1
 209 73 l 1,3,-1
 72 73 l 1,0,-1
678 73 m 1,4,-1
 678 210 l 1,5,-1
 816 210 l 1,6,-1
 816 73 l 1,7,-1
 678 73 l 1,4,-1
72 224 m 1,8,-1
 72 362 l 1,9,-1
 209 362 l 1,10,-1
 209 224 l 1,11,-1
 72 224 l 1,8,-1
678 224 m 1,12,-1
 678 362 l 1,13,-1
 816 362 l 1,14,-1
 816 224 l 1,15,-1
 678 224 l 1,12,-1
72 375 m 1,16,-1
 72 513 l 1,17,-1
 209 513 l 1,18,-1
 209 375 l 1,19,-1
 72 375 l 1,16,-1
678 376 m 1,20,-1
 678 514 l 1,21,-1
 816 514 l 1,22,-1
 816 376 l 1,23,-1
 678 376 l 1,20,-1
72 527 m 1,24,-1
 72 665 l 1,25,-1
 209 665 l 1,26,-1
 209 527 l 1,27,-1
 72 527 l 1,24,-1
223 527 m 1,28,-1
 223 665 l 1,29,-1
 361 665 l 1,30,-1
 361 527 l 1,31,-1
 223 527 l 1,28,-1
375 527 m 1,32,-1
 375 665 l 1,33,-1
 512 665 l 1,34,-1
 512 527 l 1,35,-1
 375 527 l 1,32,-1
526 527 m 1,36,-1
 526 665 l 1,37,-1
 664 665 l 1,38,-1
 664 527 l 1,39,-1
 526 527 l 1,36,-1
678 527 m 1,40,-1
 678 665 l 1,41,-1
 816 665 l 1,42,-1
 816 527 l 1,43,-1
 678 527 l 1,40,-1
72 679 m 1,44,-1
 72 816 l 1,45,-1
 209 816 l 1,46,-1
 209 679 l 1,47,-1
 72 679 l 1,44,-1
678 679 m 1,48,-1
 678 817 l 1,49,-1
 816 817 l 1,50,-1
 816 679 l 1,51,-1
 678 679 l 1,48,-1
72 830 m 1,52,-1
 72 968 l 1,53,-1
 209 968 l 1,54,-1
 209 830 l 1,55,-1
 72 830 l 1,52,-1
678 830 m 1,56,-1
 678 968 l 1,57,-1
 816 968 l 1,58,-1
 816 830 l 1,59,-1
 678 830 l 1,56,-1
72 981 m 1,60,-1
 72 1120 l 1,61,-1
 209 1120 l 1,62,-1
 209 981 l 1,63,-1
 72 981 l 1,60,-1
678 982 m 1,64,-1
 678 1120 l 1,65,-1
 816 1120 l 1,66,-1
 816 982 l 1,67,-1
 678 982 l 1,64,-1
EndSplineSet
Validated: 1
EndChar

StartChar: i
Encoding: 105 105 76
Width: 857
GlyphClass: 1
Flags: W
LayerCount: 2
Fore
SplineSet
224 73 m 1,0,-1
 224 210 l 1,1,-1
 361 210 l 1,2,-1
 361 73 l 1,3,-1
 224 73 l 1,0,-1
375 73 m 1,4,-1
 375 210 l 1,5,-1
 513 210 l 1,6,-1
 513 73 l 1,7,-1
 375 73 l 1,4,-1
527 73 m 1,8,-1
 527 210 l 1,9,-1
 664 210 l 1,10,-1
 664 73 l 1,11,-1
 527 73 l 1,8,-1
375 224 m 1,12,-1
 375 362 l 1,13,-1
 513 362 l 1,14,-1
 513 224 l 1,15,-1
 375 224 l 1,12,-1
375 376 m 1,16,-1
 375 514 l 1,17,-1
 513 514 l 1,18,-1
 513 376 l 1,19,-1
 375 376 l 1,16,-1
375 527 m 1,20,-1
 375 665 l 1,21,-1
 512 665 l 1,22,-1
 512 527 l 1,23,-1
 375 527 l 1,20,-1
375 679 m 1,24,-1
 375 816 l 1,25,-1
 512 816 l 1,26,-1
 512 679 l 1,27,-1
 375 679 l 1,24,-1
375 830 m 1,28,-1
 375 968 l 1,29,-1
 512 968 l 1,30,-1
 512 830 l 1,31,-1
 375 830 l 1,28,-1
224 982 m 1,32,-1
 224 1120 l 1,33,-1
 361 1120 l 1,34,-1
 361 982 l 1,35,-1
 224 982 l 1,32,-1
375 982 m 1,36,-1
 375 1120 l 1,37,-1
 512 1120 l 1,38,-1
 512 982 l 1,39,-1
 375 982 l 1,36,-1
526 982 m 1,40,-1
 526 1120 l 1,41,-1
 664 1120 l 1,42,-1
 664 982 l 1,43,-1
 526 982 l 1,40,-1
EndSplineSet
Validated: 1
EndChar

StartChar: j
Encoding: 106 106 77
Width: 857
GlyphClass: 1
Flags: W
LayerCount: 2
Fore
SplineSet
223 73 m 1,0,-1
 223 210 l 1,1,-1
 361 210 l 1,2,-1
 361 73 l 1,3,-1
 223 73 l 1,0,-1
375 73 m 1,4,-1
 375 210 l 1,5,-1
 512 210 l 1,6,-1
 512 73 l 1,7,-1
 375 73 l 1,4,-1
72 224 m 1,8,-1
 72 362 l 1,9,-1
 209 362 l 1,10,-1
 209 224 l 1,11,-1
 72 224 l 1,8,-1
526 224 m 1,12,-1
 526 362 l 1,13,-1
 664 362 l 1,14,-1
 664 224 l 1,15,-1
 526 224 l 1,12,-1
526 376 m 1,16,-1
 526 514 l 1,17,-1
 664 514 l 1,18,-1
 664 376 l 1,19,-1
 526 376 l 1,16,-1
526 527 m 1,20,-1
 526 665 l 1,21,-1
 664 665 l 1,22,-1
 664 527 l 1,23,-1
 526 527 l 1,20,-1
526 679 m 1,24,-1
 526 817 l 1,25,-1
 664 817 l 1,26,-1
 664 679 l 1,27,-1
 526 679 l 1,24,-1
526 830 m 1,28,-1
 526 968 l 1,29,-1
 664 968 l 1,30,-1
 664 830 l 1,31,-1
 526 830 l 1,28,-1
375 982 m 1,32,-1
 375 1120 l 1,33,-1
 512 1120 l 1,34,-1
 512 982 l 1,35,-1
 375 982 l 1,32,-1
526 982 m 1,36,-1
 526 1120 l 1,37,-1
 664 1120 l 1,38,-1
 664 982 l 1,39,-1
 526 982 l 1,36,-1
678 982 m 1,40,-1
 678 1120 l 1,41,-1
 816 1120 l 1,42,-1
 816 982 l 1,43,-1
 678 982 l 1,40,-1
EndSplineSet
Validated: 1
EndChar

StartChar: k
Encoding: 107 107 78
Width: 857
GlyphClass: 1
Flags: W
LayerCount: 2
Fore
SplineSet
72 73 m 1,0,-1
 72 210 l 1,1,-1
 210 210 l 1,2,-1
 210 73 l 1,3,-1
 72 73 l 1,0,-1
678 73 m 1,4,-1
 678 210 l 1,5,-1
 816 210 l 1,6,-1
 816 73 l 1,7,-1
 678 73 l 1,4,-1
72 224 m 1,8,-1
 72 362 l 1,9,-1
 210 362 l 1,10,-1
 210 224 l 1,11,-1
 72 224 l 1,8,-1
526 224 m 1,12,-1
 526 362 l 1,13,-1
 664 362 l 1,14,-1
 664 224 l 1,15,-1
 526 224 l 1,12,-1
72 376 m 1,16,-1
 72 513 l 1,17,-1
 209 513 l 1,18,-1
 209 376 l 1,19,-1
 72 376 l 1,16,-1
375 376 m 1,20,-1
 375 514 l 1,21,-1
 513 514 l 1,22,-1
 513 376 l 1,23,-1
 375 376 l 1,20,-1
72 527 m 1,24,-1
 72 665 l 1,25,-1
 209 665 l 1,26,-1
 209 527 l 1,27,-1
 72 527 l 1,24,-1
223 527 m 1,28,-1
 223 665 l 1,29,-1
 361 665 l 1,30,-1
 361 527 l 1,31,-1
 223 527 l 1,28,-1
72 679 m 1,32,-1
 72 816 l 1,33,-1
 209 816 l 1,34,-1
 209 679 l 1,35,-1
 72 679 l 1,32,-1
375 679 m 1,36,-1
 375 816 l 1,37,-1
 512 816 l 1,38,-1
 512 679 l 1,39,-1
 375 679 l 1,36,-1
72 830 m 1,40,-1
 72 968 l 1,41,-1
 209 968 l 1,42,-1
 209 830 l 1,43,-1
 72 830 l 1,40,-1
526 830 m 1,44,-1
 526 968 l 1,45,-1
 664 968 l 1,46,-1
 664 830 l 1,47,-1
 526 830 l 1,44,-1
72 982 m 1,48,-1
 72 1120 l 1,49,-1
 209 1120 l 1,50,-1
 209 982 l 1,51,-1
 72 982 l 1,48,-1
678 982 m 1,52,-1
 678 1120 l 1,53,-1
 816 1120 l 1,54,-1
 816 982 l 1,55,-1
 678 982 l 1,52,-1
EndSplineSet
Validated: 1
EndChar

StartChar: l
Encoding: 108 108 79
Width: 857
GlyphClass: 1
Flags: W
LayerCount: 2
Fore
SplineSet
72 73 m 1,0,-1
 72 210 l 1,1,-1
 210 210 l 1,2,-1
 210 73 l 1,3,-1
 72 73 l 1,0,-1
223 73 m 1,4,-1
 223 210 l 1,5,-1
 361 210 l 1,6,-1
 361 73 l 1,7,-1
 223 73 l 1,4,-1
375 73 m 1,8,-1
 375 210 l 1,9,-1
 513 210 l 1,10,-1
 513 73 l 1,11,-1
 375 73 l 1,8,-1
526 73 m 1,12,-1
 526 210 l 1,13,-1
 664 210 l 1,14,-1
 664 73 l 1,15,-1
 526 73 l 1,12,-1
678 73 m 1,16,-1
 678 210 l 1,17,-1
 816 210 l 1,18,-1
 816 73 l 1,19,-1
 678 73 l 1,16,-1
72 224 m 1,20,-1
 72 362 l 1,21,-1
 210 362 l 1,22,-1
 210 224 l 1,23,-1
 72 224 l 1,20,-1
72 376 m 1,24,-1
 72 514 l 1,25,-1
 210 514 l 1,26,-1
 210 376 l 1,27,-1
 72 376 l 1,24,-1
72 527 m 1,28,-1
 72 665 l 1,29,-1
 210 665 l 1,30,-1
 210 527 l 1,31,-1
 72 527 l 1,28,-1
72 679 m 1,32,-1
 72 816 l 1,33,-1
 210 816 l 1,34,-1
 210 679 l 1,35,-1
 72 679 l 1,32,-1
72 830 m 1,36,-1
 72 968 l 1,37,-1
 209 968 l 1,38,-1
 209 830 l 1,39,-1
 72 830 l 1,36,-1
72 982 m 1,40,-1
 72 1120 l 1,41,-1
 209 1120 l 1,42,-1
 209 982 l 1,43,-1
 72 982 l 1,40,-1
EndSplineSet
Validated: 1
EndChar

StartChar: m
Encoding: 109 109 80
Width: 857
GlyphClass: 1
Flags: W
LayerCount: 2
Fore
SplineSet
72 73 m 1,0,-1
 72 210 l 1,1,-1
 209 210 l 1,2,-1
 209 73 l 1,3,-1
 72 73 l 1,0,-1
678 73 m 1,4,-1
 678 210 l 1,5,-1
 816 210 l 1,6,-1
 816 73 l 1,7,-1
 678 73 l 1,4,-1
72 224 m 1,8,-1
 72 362 l 1,9,-1
 209 362 l 1,10,-1
 209 224 l 1,11,-1
 72 224 l 1,8,-1
678 224 m 1,12,-1
 678 362 l 1,13,-1
 816 362 l 1,14,-1
 816 224 l 1,15,-1
 678 224 l 1,12,-1
72 375 m 1,16,-1
 72 513 l 1,17,-1
 209 513 l 1,18,-1
 209 375 l 1,19,-1
 72 375 l 1,16,-1
678 376 m 1,20,-1
 678 514 l 1,21,-1
 816 514 l 1,22,-1
 816 376 l 1,23,-1
 678 376 l 1,20,-1
72 527 m 1,24,-1
 72 665 l 1,25,-1
 209 665 l 1,26,-1
 209 527 l 1,27,-1
 72 527 l 1,24,-1
375 527 m 1,28,-1
 375 665 l 1,29,-1
 512 665 l 1,30,-1
 512 527 l 1,31,-1
 375 527 l 1,28,-1
678 527 m 1,32,-1
 678 665 l 1,33,-1
 816 665 l 1,34,-1
 816 527 l 1,35,-1
 678 527 l 1,32,-1
72 679 m 1,36,-1
 72 816 l 1,37,-1
 209 816 l 1,38,-1
 209 679 l 1,39,-1
 72 679 l 1,36,-1
375 679 m 1,40,-1
 375 816 l 1,41,-1
 512 816 l 1,42,-1
 512 679 l 1,43,-1
 375 679 l 1,40,-1
678 679 m 1,44,-1
 678 817 l 1,45,-1
 816 817 l 1,46,-1
 816 679 l 1,47,-1
 678 679 l 1,44,-1
72 830 m 1,48,-1
 72 968 l 1,49,-1
 209 968 l 1,50,-1
 209 830 l 1,51,-1
 72 830 l 1,48,-1
223 830 m 1,52,-1
 223 968 l 1,53,-1
 361 968 l 1,54,-1
 361 830 l 1,55,-1
 223 830 l 1,52,-1
526 830 m 1,56,-1
 526 968 l 1,57,-1
 664 968 l 1,58,-1
 664 830 l 1,59,-1
 526 830 l 1,56,-1
678 830 m 1,60,-1
 678 968 l 1,61,-1
 816 968 l 1,62,-1
 816 830 l 1,63,-1
 678 830 l 1,60,-1
72 981 m 1,64,-1
 72 1120 l 1,65,-1
 209 1120 l 1,66,-1
 209 981 l 1,67,-1
 72 981 l 1,64,-1
678 982 m 1,68,-1
 678 1120 l 1,69,-1
 816 1120 l 1,70,-1
 816 982 l 1,71,-1
 678 982 l 1,68,-1
EndSplineSet
Validated: 1
EndChar

StartChar: n
Encoding: 110 110 81
Width: 857
GlyphClass: 1
Flags: W
LayerCount: 2
Fore
SplineSet
72 73 m 1,0,-1
 72 210 l 1,1,-1
 209 210 l 1,2,-1
 209 73 l 1,3,-1
 72 73 l 1,0,-1
678 73 m 1,4,-1
 678 210 l 1,5,-1
 816 210 l 1,6,-1
 816 73 l 1,7,-1
 678 73 l 1,4,-1
72 224 m 1,8,-1
 72 362 l 1,9,-1
 209 362 l 1,10,-1
 209 224 l 1,11,-1
 72 224 l 1,8,-1
678 224 m 1,12,-1
 678 362 l 1,13,-1
 816 362 l 1,14,-1
 816 224 l 1,15,-1
 678 224 l 1,12,-1
72 375 m 1,16,-1
 72 513 l 1,17,-1
 209 513 l 1,18,-1
 209 375 l 1,19,-1
 72 375 l 1,16,-1
526 376 m 1,20,-1
 526 514 l 1,21,-1
 664 514 l 1,22,-1
 664 376 l 1,23,-1
 526 376 l 1,20,-1
678 376 m 1,24,-1
 678 514 l 1,25,-1
 816 514 l 1,26,-1
 816 376 l 1,27,-1
 678 376 l 1,24,-1
72 527 m 1,28,-1
 72 665 l 1,29,-1
 209 665 l 1,30,-1
 209 527 l 1,31,-1
 72 527 l 1,28,-1
375 527 m 1,32,-1
 375 665 l 1,33,-1
 512 665 l 1,34,-1
 512 527 l 1,35,-1
 375 527 l 1,32,-1
678 527 m 1,36,-1
 678 665 l 1,37,-1
 816 665 l 1,38,-1
 816 527 l 1,39,-1
 678 527 l 1,36,-1
72 679 m 1,40,-1
 72 816 l 1,41,-1
 209 816 l 1,42,-1
 209 679 l 1,43,-1
 72 679 l 1,40,-1
223 679 m 1,44,-1
 223 816 l 1,45,-1
 361 816 l 1,46,-1
 361 679 l 1,47,-1
 223 679 l 1,44,-1
678 679 m 1,48,-1
 678 817 l 1,49,-1
 816 817 l 1,50,-1
 816 679 l 1,51,-1
 678 679 l 1,48,-1
72 830 m 1,52,-1
 72 968 l 1,53,-1
 209 968 l 1,54,-1
 209 830 l 1,55,-1
 72 830 l 1,52,-1
678 830 m 1,56,-1
 678 968 l 1,57,-1
 816 968 l 1,58,-1
 816 830 l 1,59,-1
 678 830 l 1,56,-1
72 981 m 1,60,-1
 72 1120 l 1,61,-1
 209 1120 l 1,62,-1
 209 981 l 1,63,-1
 72 981 l 1,60,-1
678 982 m 1,64,-1
 678 1120 l 1,65,-1
 816 1120 l 1,66,-1
 816 982 l 1,67,-1
 678 982 l 1,64,-1
EndSplineSet
Validated: 1
EndChar

StartChar: o
Encoding: 111 111 82
Width: 857
GlyphClass: 1
Flags: W
LayerCount: 2
Fore
SplineSet
223 73 m 1,0,-1
 223 210 l 1,1,-1
 361 210 l 1,2,-1
 361 73 l 1,3,-1
 223 73 l 1,0,-1
375 73 m 1,4,-1
 375 210 l 1,5,-1
 512 210 l 1,6,-1
 512 73 l 1,7,-1
 375 73 l 1,4,-1
526 73 m 1,8,-1
 526 210 l 1,9,-1
 664 210 l 1,10,-1
 664 73 l 1,11,-1
 526 73 l 1,8,-1
72 224 m 1,12,-1
 72 362 l 1,13,-1
 209 362 l 1,14,-1
 209 224 l 1,15,-1
 72 224 l 1,12,-1
678 224 m 1,16,-1
 678 362 l 1,17,-1
 816 362 l 1,18,-1
 816 224 l 1,19,-1
 678 224 l 1,16,-1
72 375 m 1,20,-1
 72 513 l 1,21,-1
 209 513 l 1,22,-1
 209 375 l 1,23,-1
 72 375 l 1,20,-1
678 376 m 1,24,-1
 678 514 l 1,25,-1
 816 514 l 1,26,-1
 816 376 l 1,27,-1
 678 376 l 1,24,-1
72 527 m 1,28,-1
 72 665 l 1,29,-1
 209 665 l 1,30,-1
 209 527 l 1,31,-1
 72 527 l 1,28,-1
678 527 m 1,32,-1
 678 665 l 1,33,-1
 816 665 l 1,34,-1
 816 527 l 1,35,-1
 678 527 l 1,32,-1
72 679 m 1,36,-1
 72 816 l 1,37,-1
 209 816 l 1,38,-1
 209 679 l 1,39,-1
 72 679 l 1,36,-1
678 679 m 1,40,-1
 678 817 l 1,41,-1
 816 817 l 1,42,-1
 816 679 l 1,43,-1
 678 679 l 1,40,-1
72 830 m 1,44,-1
 72 968 l 1,45,-1
 209 968 l 1,46,-1
 209 830 l 1,47,-1
 72 830 l 1,44,-1
678 830 m 1,48,-1
 678 968 l 1,49,-1
 816 968 l 1,50,-1
 816 830 l 1,51,-1
 678 830 l 1,48,-1
223 982 m 1,52,-1
 223 1120 l 1,53,-1
 361 1120 l 1,54,-1
 361 982 l 1,55,-1
 223 982 l 1,52,-1
375 982 m 1,56,-1
 375 1120 l 1,57,-1
 512 1120 l 1,58,-1
 512 982 l 1,59,-1
 375 982 l 1,56,-1
526 982 m 1,60,-1
 526 1120 l 1,61,-1
 664 1120 l 1,62,-1
 664 982 l 1,63,-1
 526 982 l 1,60,-1
EndSplineSet
Validated: 1
EndChar

StartChar: p
Encoding: 112 112 83
Width: 857
GlyphClass: 1
Flags: W
LayerCount: 2
Fore
SplineSet
72 73 m 1,0,-1
 72 210 l 1,1,-1
 210 210 l 1,2,-1
 210 73 l 1,3,-1
 72 73 l 1,0,-1
72 224 m 1,4,-1
 72 362 l 1,5,-1
 209 362 l 1,6,-1
 209 224 l 1,7,-1
 72 224 l 1,4,-1
72 375 m 1,8,-1
 72 513 l 1,9,-1
 209 513 l 1,10,-1
 209 375 l 1,11,-1
 72 375 l 1,8,-1
72 527 m 1,12,-1
 72 665 l 1,13,-1
 209 665 l 1,14,-1
 209 527 l 1,15,-1
 72 527 l 1,12,-1
223 527 m 1,16,-1
 223 665 l 1,17,-1
 361 665 l 1,18,-1
 361 527 l 1,19,-1
 223 527 l 1,16,-1
375 527 m 1,20,-1
 375 665 l 1,21,-1
 513 665 l 1,22,-1
 513 527 l 1,23,-1
 375 527 l 1,20,-1
526 527 m 1,24,-1
 526 665 l 1,25,-1
 664 665 l 1,26,-1
 664 527 l 1,27,-1
 526 527 l 1,24,-1
72 679 m 1,28,-1
 72 816 l 1,29,-1
 209 816 l 1,30,-1
 209 679 l 1,31,-1
 72 679 l 1,28,-1
678 679 m 1,32,-1
 678 817 l 1,33,-1
 816 817 l 1,34,-1
 816 679 l 1,35,-1
 678 679 l 1,32,-1
72 830 m 1,36,-1
 72 968 l 1,37,-1
 209 968 l 1,38,-1
 209 830 l 1,39,-1
 72 830 l 1,36,-1
678 830 m 1,40,-1
 678 968 l 1,41,-1
 816 968 l 1,42,-1
 816 830 l 1,43,-1
 678 830 l 1,40,-1
72 982 m 1,44,-1
 72 1120 l 1,45,-1
 209 1120 l 1,46,-1
 209 982 l 1,47,-1
 72 982 l 1,44,-1
223 982 m 1,48,-1
 223 1120 l 1,49,-1
 361 1120 l 1,50,-1
 361 982 l 1,51,-1
 223 982 l 1,48,-1
375 982 m 1,52,-1
 375 1120 l 1,53,-1
 512 1120 l 1,54,-1
 512 982 l 1,55,-1
 375 982 l 1,52,-1
526 982 m 1,56,-1
 526 1120 l 1,57,-1
 664 1120 l 1,58,-1
 664 982 l 1,59,-1
 526 982 l 1,56,-1
EndSplineSet
Validated: 1
EndChar

StartChar: q
Encoding: 113 113 84
Width: 857
GlyphClass: 1
Flags: W
LayerCount: 2
Fore
SplineSet
223 73 m 1,0,-1
 223 210 l 1,1,-1
 361 210 l 1,2,-1
 361 73 l 1,3,-1
 223 73 l 1,0,-1
375 73 m 1,4,-1
 375 210 l 1,5,-1
 512 210 l 1,6,-1
 512 73 l 1,7,-1
 375 73 l 1,4,-1
678 73 m 1,8,-1
 678 210 l 1,9,-1
 816 210 l 1,10,-1
 816 73 l 1,11,-1
 678 73 l 1,8,-1
72 224 m 1,12,-1
 72 362 l 1,13,-1
 209 362 l 1,14,-1
 209 224 l 1,15,-1
 72 224 l 1,12,-1
526 224 m 1,16,-1
 526 362 l 1,17,-1
 664 362 l 1,18,-1
 664 224 l 1,19,-1
 526 224 l 1,16,-1
72 375 m 1,20,-1
 72 513 l 1,21,-1
 209 513 l 1,22,-1
 209 375 l 1,23,-1
 72 375 l 1,20,-1
375 376 m 1,24,-1
 375 513 l 1,25,-1
 512 513 l 1,26,-1
 512 376 l 1,27,-1
 375 376 l 1,24,-1
678 376 m 1,28,-1
 678 514 l 1,29,-1
 816 514 l 1,30,-1
 816 376 l 1,31,-1
 678 376 l 1,28,-1
72 527 m 1,32,-1
 72 665 l 1,33,-1
 209 665 l 1,34,-1
 209 527 l 1,35,-1
 72 527 l 1,32,-1
678 527 m 1,36,-1
 678 665 l 1,37,-1
 816 665 l 1,38,-1
 816 527 l 1,39,-1
 678 527 l 1,36,-1
72 679 m 1,40,-1
 72 816 l 1,41,-1
 209 816 l 1,42,-1
 209 679 l 1,43,-1
 72 679 l 1,40,-1
678 679 m 1,44,-1
 678 817 l 1,45,-1
 816 817 l 1,46,-1
 816 679 l 1,47,-1
 678 679 l 1,44,-1
72 830 m 1,48,-1
 72 968 l 1,49,-1
 209 968 l 1,50,-1
 209 830 l 1,51,-1
 72 830 l 1,48,-1
678 830 m 1,52,-1
 678 968 l 1,53,-1
 816 968 l 1,54,-1
 816 830 l 1,55,-1
 678 830 l 1,52,-1
223 982 m 1,56,-1
 223 1120 l 1,57,-1
 361 1120 l 1,58,-1
 361 982 l 1,59,-1
 223 982 l 1,56,-1
375 982 m 1,60,-1
 375 1120 l 1,61,-1
 512 1120 l 1,62,-1
 512 982 l 1,63,-1
 375 982 l 1,60,-1
526 982 m 1,64,-1
 526 1120 l 1,65,-1
 664 1120 l 1,66,-1
 664 982 l 1,67,-1
 526 982 l 1,64,-1
EndSplineSet
Validated: 1
EndChar

StartChar: r
Encoding: 114 114 85
Width: 857
GlyphClass: 1
Flags: W
LayerCount: 2
Fore
SplineSet
72 73 m 1,0,-1
 72 210 l 1,1,-1
 209 210 l 1,2,-1
 209 73 l 1,3,-1
 72 73 l 1,0,-1
678 73 m 1,4,-1
 678 210 l 1,5,-1
 816 210 l 1,6,-1
 816 73 l 1,7,-1
 678 73 l 1,4,-1
72 224 m 1,8,-1
 72 362 l 1,9,-1
 209 362 l 1,10,-1
 209 224 l 1,11,-1
 72 224 l 1,8,-1
526 224 m 1,12,-1
 526 362 l 1,13,-1
 664 362 l 1,14,-1
 664 224 l 1,15,-1
 526 224 l 1,12,-1
72 375 m 1,16,-1
 72 513 l 1,17,-1
 209 513 l 1,18,-1
 209 375 l 1,19,-1
 72 375 l 1,16,-1
375 376 m 1,20,-1
 375 514 l 1,21,-1
 512 514 l 1,22,-1
 512 376 l 1,23,-1
 375 376 l 1,20,-1
72 527 m 1,24,-1
 72 665 l 1,25,-1
 209 665 l 1,26,-1
 209 527 l 1,27,-1
 72 527 l 1,24,-1
223 527 m 1,28,-1
 223 665 l 1,29,-1
 361 665 l 1,30,-1
 361 527 l 1,31,-1
 223 527 l 1,28,-1
375 527 m 1,32,-1
 375 665 l 1,33,-1
 512 665 l 1,34,-1
 512 527 l 1,35,-1
 375 527 l 1,32,-1
526 527 m 1,36,-1
 526 665 l 1,37,-1
 664 665 l 1,38,-1
 664 527 l 1,39,-1
 526 527 l 1,36,-1
72 679 m 1,40,-1
 72 816 l 1,41,-1
 209 816 l 1,42,-1
 209 679 l 1,43,-1
 72 679 l 1,40,-1
678 679 m 1,44,-1
 678 817 l 1,45,-1
 816 817 l 1,46,-1
 816 679 l 1,47,-1
 678 679 l 1,44,-1
72 830 m 1,48,-1
 72 968 l 1,49,-1
 209 968 l 1,50,-1
 209 830 l 1,51,-1
 72 830 l 1,48,-1
678 830 m 1,52,-1
 678 968 l 1,53,-1
 816 968 l 1,54,-1
 816 830 l 1,55,-1
 678 830 l 1,52,-1
72 981 m 1,56,-1
 72 1120 l 1,57,-1
 209 1120 l 1,58,-1
 209 981 l 1,59,-1
 72 981 l 1,56,-1
223 982 m 1,60,-1
 223 1120 l 1,61,-1
 361 1120 l 1,62,-1
 361 982 l 1,63,-1
 223 982 l 1,60,-1
375 982 m 1,64,-1
 375 1120 l 1,65,-1
 512 1120 l 1,66,-1
 512 982 l 1,67,-1
 375 982 l 1,64,-1
526 982 m 1,68,-1
 526 1120 l 1,69,-1
 664 1120 l 1,70,-1
 664 982 l 1,71,-1
 526 982 l 1,68,-1
EndSplineSet
Validated: 1
EndChar

StartChar: s
Encoding: 115 115 86
Width: 857
GlyphClass: 1
Flags: W
LayerCount: 2
Fore
SplineSet
223 73 m 1,0,-1
 223 210 l 1,1,-1
 361 210 l 1,2,-1
 361 73 l 1,3,-1
 223 73 l 1,0,-1
375 73 m 1,4,-1
 375 210 l 1,5,-1
 512 210 l 1,6,-1
 512 73 l 1,7,-1
 375 73 l 1,4,-1
526 73 m 1,8,-1
 526 210 l 1,9,-1
 664 210 l 1,10,-1
 664 73 l 1,11,-1
 526 73 l 1,8,-1
72 224 m 1,12,-1
 72 362 l 1,13,-1
 209 362 l 1,14,-1
 209 224 l 1,15,-1
 72 224 l 1,12,-1
678 224 m 1,16,-1
 678 362 l 1,17,-1
 816 362 l 1,18,-1
 816 224 l 1,19,-1
 678 224 l 1,16,-1
678 376 m 1,20,-1
 678 514 l 1,21,-1
 816 514 l 1,22,-1
 816 376 l 1,23,-1
 678 376 l 1,20,-1
223 527 m 1,24,-1
 223 665 l 1,25,-1
 361 665 l 1,26,-1
 361 527 l 1,27,-1
 223 527 l 1,24,-1
375 527 m 1,28,-1
 375 665 l 1,29,-1
 512 665 l 1,30,-1
 512 527 l 1,31,-1
 375 527 l 1,28,-1
526 527 m 1,32,-1
 526 665 l 1,33,-1
 664 665 l 1,34,-1
 664 527 l 1,35,-1
 526 527 l 1,32,-1
72 679 m 1,36,-1
 72 816 l 1,37,-1
 209 816 l 1,38,-1
 209 679 l 1,39,-1
 72 679 l 1,36,-1
72 830 m 1,40,-1
 72 968 l 1,41,-1
 209 968 l 1,42,-1
 209 830 l 1,43,-1
 72 830 l 1,40,-1
678 830 m 1,44,-1
 678 968 l 1,45,-1
 816 968 l 1,46,-1
 816 830 l 1,47,-1
 678 830 l 1,44,-1
223 982 m 1,48,-1
 223 1120 l 1,49,-1
 361 1120 l 1,50,-1
 361 982 l 1,51,-1
 223 982 l 1,48,-1
375 982 m 1,52,-1
 375 1120 l 1,53,-1
 512 1120 l 1,54,-1
 512 982 l 1,55,-1
 375 982 l 1,52,-1
526 982 m 1,56,-1
 526 1120 l 1,57,-1
 664 1120 l 1,58,-1
 664 982 l 1,59,-1
 526 982 l 1,56,-1
EndSplineSet
Validated: 1
EndChar

StartChar: t
Encoding: 116 116 87
Width: 857
GlyphClass: 1
Flags: W
LayerCount: 2
Fore
SplineSet
375 73 m 1,0,-1
 375 210 l 1,1,-1
 513 210 l 1,2,-1
 513 73 l 1,3,-1
 375 73 l 1,0,-1
375 224 m 1,4,-1
 375 362 l 1,5,-1
 513 362 l 1,6,-1
 513 224 l 1,7,-1
 375 224 l 1,4,-1
375 376 m 1,8,-1
 375 514 l 1,9,-1
 513 514 l 1,10,-1
 513 376 l 1,11,-1
 375 376 l 1,8,-1
375 527 m 1,12,-1
 375 665 l 1,13,-1
 512 665 l 1,14,-1
 512 527 l 1,15,-1
 375 527 l 1,12,-1
375 679 m 1,16,-1
 375 816 l 1,17,-1
 512 816 l 1,18,-1
 512 679 l 1,19,-1
 375 679 l 1,16,-1
375 830 m 1,20,-1
 375 968 l 1,21,-1
 512 968 l 1,22,-1
 512 830 l 1,23,-1
 375 830 l 1,20,-1
72 982 m 1,24,-1
 72 1120 l 1,25,-1
 209 1120 l 1,26,-1
 209 982 l 1,27,-1
 72 982 l 1,24,-1
223 982 m 1,28,-1
 223 1120 l 1,29,-1
 361 1120 l 1,30,-1
 361 982 l 1,31,-1
 223 982 l 1,28,-1
375 982 m 1,32,-1
 375 1120 l 1,33,-1
 512 1120 l 1,34,-1
 512 982 l 1,35,-1
 375 982 l 1,32,-1
526 982 m 1,36,-1
 526 1120 l 1,37,-1
 664 1120 l 1,38,-1
 664 982 l 1,39,-1
 526 982 l 1,36,-1
678 982 m 1,40,-1
 678 1120 l 1,41,-1
 816 1120 l 1,42,-1
 816 982 l 1,43,-1
 678 982 l 1,40,-1
EndSplineSet
Validated: 1
EndChar

StartChar: u
Encoding: 117 117 88
Width: 857
GlyphClass: 1
Flags: W
LayerCount: 2
Fore
SplineSet
223 73 m 1,0,-1
 223 210 l 1,1,-1
 361 210 l 1,2,-1
 361 73 l 1,3,-1
 223 73 l 1,0,-1
375 73 m 1,4,-1
 375 210 l 1,5,-1
 512 210 l 1,6,-1
 512 73 l 1,7,-1
 375 73 l 1,4,-1
526 73 m 1,8,-1
 526 210 l 1,9,-1
 664 210 l 1,10,-1
 664 73 l 1,11,-1
 526 73 l 1,8,-1
72 224 m 1,12,-1
 72 362 l 1,13,-1
 209 362 l 1,14,-1
 209 224 l 1,15,-1
 72 224 l 1,12,-1
678 224 m 1,16,-1
 678 362 l 1,17,-1
 816 362 l 1,18,-1
 816 224 l 1,19,-1
 678 224 l 1,16,-1
72 375 m 1,20,-1
 72 513 l 1,21,-1
 209 513 l 1,22,-1
 209 375 l 1,23,-1
 72 375 l 1,20,-1
678 376 m 1,24,-1
 678 514 l 1,25,-1
 816 514 l 1,26,-1
 816 376 l 1,27,-1
 678 376 l 1,24,-1
72 527 m 1,28,-1
 72 665 l 1,29,-1
 209 665 l 1,30,-1
 209 527 l 1,31,-1
 72 527 l 1,28,-1
678 527 m 1,32,-1
 678 665 l 1,33,-1
 816 665 l 1,34,-1
 816 527 l 1,35,-1
 678 527 l 1,32,-1
72 679 m 1,36,-1
 72 816 l 1,37,-1
 209 816 l 1,38,-1
 209 679 l 1,39,-1
 72 679 l 1,36,-1
678 679 m 1,40,-1
 678 817 l 1,41,-1
 816 817 l 1,42,-1
 816 679 l 1,43,-1
 678 679 l 1,40,-1
72 830 m 1,44,-1
 72 968 l 1,45,-1
 209 968 l 1,46,-1
 209 830 l 1,47,-1
 72 830 l 1,44,-1
678 830 m 1,48,-1
 678 968 l 1,49,-1
 816 968 l 1,50,-1
 816 830 l 1,51,-1
 678 830 l 1,48,-1
72 982 m 1,52,-1
 72 1120 l 1,53,-1
 209 1120 l 1,54,-1
 209 982 l 1,55,-1
 72 982 l 1,52,-1
678 982 m 1,56,-1
 678 1120 l 1,57,-1
 816 1120 l 1,58,-1
 816 982 l 1,59,-1
 678 982 l 1,56,-1
EndSplineSet
Validated: 1
EndChar

StartChar: v
Encoding: 118 118 89
Width: 857
GlyphClass: 1
Flags: W
LayerCount: 2
Fore
SplineSet
375 73 m 1,0,-1
 375 210 l 1,1,-1
 512 210 l 1,2,-1
 512 73 l 1,3,-1
 375 73 l 1,0,-1
72 679 m 1,4,-1
 72 816 l 1,5,-1
 209 816 l 1,6,-1
 209 679 l 1,7,-1
 72 679 l 1,4,-1
678 679 m 1,8,-1
 678 817 l 1,9,-1
 816 817 l 1,10,-1
 816 679 l 1,11,-1
 678 679 l 1,8,-1
72 830 m 1,12,-1
 72 968 l 1,13,-1
 209 968 l 1,14,-1
 209 830 l 1,15,-1
 72 830 l 1,12,-1
678 830 m 1,16,-1
 678 968 l 1,17,-1
 816 968 l 1,18,-1
 816 830 l 1,19,-1
 678 830 l 1,16,-1
72 982 m 1,20,-1
 72 1120 l 1,21,-1
 209 1120 l 1,22,-1
 209 982 l 1,23,-1
 72 982 l 1,20,-1
678 982 m 1,24,-1
 678 1120 l 1,25,-1
 816 1120 l 1,26,-1
 816 982 l 1,27,-1
 678 982 l 1,24,-1
223 375 m 1,28,-1
 223 513 l 1,29,-1
 361 513 l 1,30,-1
 361 375 l 1,31,-1
 223 375 l 1,28,-1
526 376 m 1,32,-1
 526 514 l 1,33,-1
 664 514 l 1,34,-1
 664 376 l 1,35,-1
 526 376 l 1,32,-1
223 527 m 1,36,-1
 223 665 l 1,37,-1
 361 665 l 1,38,-1
 361 527 l 1,39,-1
 223 527 l 1,36,-1
526 527 m 1,40,-1
 526 665 l 1,41,-1
 664 665 l 1,42,-1
 664 527 l 1,43,-1
 526 527 l 1,40,-1
375 224 m 1,44,-1
 375 362 l 1,45,-1
 513 362 l 1,46,-1
 513 224 l 1,47,-1
 375 224 l 1,44,-1
EndSplineSet
Validated: 1
EndChar

StartChar: w
Encoding: 119 119 90
Width: 857
GlyphClass: 1
Flags: W
LayerCount: 2
Fore
SplineSet
223 73 m 1,0,-1
 223 210 l 1,1,-1
 361 210 l 1,2,-1
 361 73 l 1,3,-1
 223 73 l 1,0,-1
526 73 m 1,4,-1
 526 210 l 1,5,-1
 664 210 l 1,6,-1
 664 73 l 1,7,-1
 526 73 l 1,4,-1
72 224 m 1,8,-1
 72 362 l 1,9,-1
 209 362 l 1,10,-1
 209 224 l 1,11,-1
 72 224 l 1,8,-1
375 224 m 1,12,-1
 375 362 l 1,13,-1
 512 362 l 1,14,-1
 512 224 l 1,15,-1
 375 224 l 1,12,-1
678 224 m 1,16,-1
 678 362 l 1,17,-1
 816 362 l 1,18,-1
 816 224 l 1,19,-1
 678 224 l 1,16,-1
72 375 m 1,20,-1
 72 513 l 1,21,-1
 209 513 l 1,22,-1
 209 375 l 1,23,-1
 72 375 l 1,20,-1
375 376 m 1,24,-1
 375 513 l 1,25,-1
 512 513 l 1,26,-1
 512 376 l 1,27,-1
 375 376 l 1,24,-1
678 376 m 1,28,-1
 678 514 l 1,29,-1
 816 514 l 1,30,-1
 816 376 l 1,31,-1
 678 376 l 1,28,-1
72 527 m 1,32,-1
 72 665 l 1,33,-1
 209 665 l 1,34,-1
 209 527 l 1,35,-1
 72 527 l 1,32,-1
375 527 m 1,36,-1
 375 665 l 1,37,-1
 512 665 l 1,38,-1
 512 527 l 1,39,-1
 375 527 l 1,36,-1
678 527 m 1,40,-1
 678 665 l 1,41,-1
 816 665 l 1,42,-1
 816 527 l 1,43,-1
 678 527 l 1,40,-1
72 679 m 1,44,-1
 72 816 l 1,45,-1
 209 816 l 1,46,-1
 209 679 l 1,47,-1
 72 679 l 1,44,-1
678 679 m 1,48,-1
 678 817 l 1,49,-1
 816 817 l 1,50,-1
 816 679 l 1,51,-1
 678 679 l 1,48,-1
72 830 m 1,52,-1
 72 968 l 1,53,-1
 209 968 l 1,54,-1
 209 830 l 1,55,-1
 72 830 l 1,52,-1
678 830 m 1,56,-1
 678 968 l 1,57,-1
 816 968 l 1,58,-1
 816 830 l 1,59,-1
 678 830 l 1,56,-1
72 981 m 1,60,-1
 72 1120 l 1,61,-1
 209 1120 l 1,62,-1
 209 981 l 1,63,-1
 72 981 l 1,60,-1
678 982 m 1,64,-1
 678 1120 l 1,65,-1
 816 1120 l 1,66,-1
 816 982 l 1,67,-1
 678 982 l 1,64,-1
EndSplineSet
Validated: 1
EndChar

StartChar: x
Encoding: 120 120 91
Width: 857
GlyphClass: 1
Flags: W
LayerCount: 2
Fore
SplineSet
72 73 m 1,0,-1
 72 210 l 1,1,-1
 209 210 l 1,2,-1
 209 73 l 1,3,-1
 72 73 l 1,0,-1
678 73 m 1,4,-1
 678 210 l 1,5,-1
 816 210 l 1,6,-1
 816 73 l 1,7,-1
 678 73 l 1,4,-1
72 224 m 1,8,-1
 72 362 l 1,9,-1
 209 362 l 1,10,-1
 209 224 l 1,11,-1
 72 224 l 1,8,-1
678 224 m 1,12,-1
 678 362 l 1,13,-1
 816 362 l 1,14,-1
 816 224 l 1,15,-1
 678 224 l 1,12,-1
223 376 m 1,16,-1
 223 514 l 1,17,-1
 361 514 l 1,18,-1
 361 376 l 1,19,-1
 223 376 l 1,16,-1
526 376 m 1,20,-1
 526 514 l 1,21,-1
 664 514 l 1,22,-1
 664 376 l 1,23,-1
 526 376 l 1,20,-1
375 527 m 1,24,-1
 375 665 l 1,25,-1
 512 665 l 1,26,-1
 512 527 l 1,27,-1
 375 527 l 1,24,-1
223 679 m 1,28,-1
 223 816 l 1,29,-1
 361 816 l 1,30,-1
 361 679 l 1,31,-1
 223 679 l 1,28,-1
526 679 m 1,32,-1
 526 816 l 1,33,-1
 664 816 l 1,34,-1
 664 679 l 1,35,-1
 526 679 l 1,32,-1
72 830 m 1,36,-1
 72 968 l 1,37,-1
 209 968 l 1,38,-1
 209 830 l 1,39,-1
 72 830 l 1,36,-1
678 830 m 1,40,-1
 678 968 l 1,41,-1
 816 968 l 1,42,-1
 816 830 l 1,43,-1
 678 830 l 1,40,-1
72 982 m 1,44,-1
 72 1120 l 1,45,-1
 209 1120 l 1,46,-1
 209 982 l 1,47,-1
 72 982 l 1,44,-1
678 982 m 1,48,-1
 678 1120 l 1,49,-1
 816 1120 l 1,50,-1
 816 982 l 1,51,-1
 678 982 l 1,48,-1
EndSplineSet
Validated: 1
EndChar

